<?xml version="1.0" encoding="utf-8"?>
<!-- Generator: Adobe Illustrator 18.1.1, SVG Export Plug-In . SVG Version: 6.00 Build 0)  -->
<svg version="1.1" id="XMLID_4_" xmlns="http://www.w3.org/2000/svg" xmlns:xlink="http://www.w3.org/1999/xlink" x="0px" y="0px"
	 viewBox="0 0 42 42" enable-background="new 0 0 42 42" xml:space="preserve">
<path id="calendar" fill="#FFFFFF" d="M35.875,23.625h-7v-7h7V23.625z M35.875,35.875h-7v-7h7V35.875z M24.5,23.625h-7v-7h7V23.625z
	 M24.5,35.875h-7v-7h7V35.875z M13.125,23.625h-7v-7h7V23.625z M13.125,35.875h-7v-7h7V35.875z M39.375,0h-3.5v5.25
	c0,1.458-1.1671,2.625-2.625,2.625c-1.458,0-2.625-1.167-2.625-2.625V0h-19.25v5.25c0,1.458-1.1671,2.625-2.625,2.625
	c-1.458,0-2.625-1.167-2.625-2.625V0h-3.5C1.167,0,0,1.1671,0,2.625v36.75C0,40.833,1.167,42,2.625,42h36.75
	C40.8329,42,42,40.833,42,39.375V2.625C42,1.1671,40.8329,0,39.375,0"/>
</svg>
