<?xml version="1.0" encoding="utf-8"?>
<!-- Generator: Adobe Illustrator 18.1.1, SVG Export Plug-In . SVG Version: 6.00 Build 0)  -->
<svg version="1.1" id="XMLID_3_" xmlns="http://www.w3.org/2000/svg" xmlns:xlink="http://www.w3.org/1999/xlink" x="0px" y="0px"
	 viewBox="0 0 32.4728 31.2048" enable-background="new 0 0 32.4728 31.2048" xml:space="preserve">
<path id="file--pdf" fill="none" stroke="#FFFFFF" stroke-width="3" stroke-miterlimit="10" d="M16.3147,1.845
	c0.662,0.312,0.5239,0.716,0.3209,2.626c-0.208,1.97-0.905,5.568-2.2479,9.108c-1.3451,3.535-3.3401,7.007-5.078,9.578
	c-1.7371,2.571-3.224,4.243-4.3571,5.208c-1.1379,0.965-1.925,1.223-2.439,1.308c-0.51,0.085-0.7411,0-0.879-0.26
	c-0.1381-0.257-0.186-0.682-0.067-1.201c0.116-0.512,0.392-1.113,1.177-1.882c0.793-0.771,2.089-1.716,3.8979-2.593
	c1.8081-0.879,4.125-1.694,6.0281-2.252c1.903-0.555,3.385-0.856,4.682-1.092c1.301-0.237,2.413-0.406,3.502-0.494
	c1.09-0.082,2.1591-0.082,3.202,0c1.043,0.088,2.062,0.257,2.9449,0.473c0.879,0.214,1.623,0.47,2.2721,0.881
	c0.647,0.404,1.205,0.962,1.4819,1.586c0.281,0.619,0.281,1.308,0.048,1.798c-0.231,0.494-0.6969,0.793-1.2279,0.967
	c-0.5331,0.168-1.136,0.211-1.8561,0c-0.718-0.217-1.5559-0.688-2.434-1.309c-0.881-0.623-1.809-1.395-3.0131-2.594
	c-1.2069-1.2-2.6919-2.827-3.943-4.413c-1.25-1.586-2.2739-3.129-2.97-4.436c-0.693-1.308-1.0649-2.379-1.366-3.45
	c-0.302-1.073-0.533-2.144-0.626-3.108c-0.092-0.963-0.05-1.823,0.0439-2.51c0.092-0.682,0.234-1.201,0.464-1.545
	c0.2321-0.337,0.558-0.513,0.79-0.598c0.231-0.085,0.3719-0.085,0.509-0.107c0.1379-0.022,0.276-0.064,0.4879,0
	c0.202,0.062,0.4701,0.226,0.738,0.393"/>
</svg>
