<?xml version="1.0" encoding="utf-8"?>
<!-- Generator: Adobe Illustrator 18.1.1, SVG Export Plug-In . SVG Version: 6.00 Build 0)  -->
<svg version="1.1" id="XMLID_3_" xmlns="http://www.w3.org/2000/svg" xmlns:xlink="http://www.w3.org/1999/xlink" x="0px" y="0px"
	 viewBox="0 0 28.8108 28.8106" enable-background="new 0 0 28.8108 28.8106" xml:space="preserve">
<g id="file--link">
	<path fill="#FFFFFF" d="M17.8098,22.035c3.0339-3.034,3.0339-7.967,0-11.034c-0.7001-0.7-1.8671-0.7-2.567,0
		c-0.7001,0.7-0.7001,1.867,0,2.567c1.667,1.633,1.667,4.3,0,5.933l-4.467,4.468c-1.6331,1.633-4.3,1.633-5.934,0
		c-1.6331-1.634-1.6331-4.301,0-5.934l2.1339-2.134c-0.5339-1.433-0.734-2.967-0.6-4.5l-4.101,4.1
		c-3.0331,3.034-3.0331,7.967,0,11.034c3.067,3.034,8.001,3.034,11.035,0L17.8098,22.035z"/>
	<path fill="#FFFFFF" d="M26.5107,13.3342c3.0669-3.067,3.0669-8.001,0-11.034c-3.0341-3.067-7.967-3.067-11.0341,0l-4.467,4.467
		c-3.0339,3.033-3.0339,7.967,0,11.034c0.7001,0.7,1.833,0.7,2.5331,0c0.734-0.7,0.734-1.833,0-2.533
		c-1.6331-1.667-1.6331-4.301,0-5.968l4.5-4.467c1.6339-1.633,4.3009-1.633,5.934,0c1.634,1.634,1.634,4.301,0,5.934l-2.1331,2.167
		c0.5331,1.433,0.733,2.934,0.6001,4.467L26.5107,13.3342z"/>
</g>
</svg>
