<?xml version="1.0" encoding="utf-8"?>
<!-- Generator: Adobe Illustrator 18.1.1, SVG Export Plug-In . SVG Version: 6.00 Build 0)  -->
<svg version="1.1" id="XMLID_4_" xmlns="http://www.w3.org/2000/svg" xmlns:xlink="http://www.w3.org/1999/xlink" x="0px" y="0px"
	 viewBox="0 0 135.388 132.0451" enable-background="new 0 0 135.388 132.0451" xml:space="preserve">
<path id="github" fill="#939598" d="M67.694,0C30.313,0,0,30.306,0,67.694c0,29.909,19.396,55.283,46.293,64.234
	c3.383,0.627,4.626-1.469,4.626-3.256c0-1.614-0.063-6.947-0.092-12.6039c-18.833,4.0959-22.807-7.987-22.807-7.987
	c-3.079-7.824-7.516-9.905-7.516-9.905c-6.142-4.201,0.463-4.115,0.463-4.115c6.797,0.478,10.377,6.977,10.377,6.977
	c6.037,10.348,15.836,7.356,19.699,5.627c0.608-4.375,2.362-7.362,4.298-9.053c-15.036-1.711-30.842-7.516-30.842-33.454
	c0-7.39,2.645-13.429,6.975-18.17c-0.702-1.706-3.02-8.59,0.656-17.915c0,0,5.685-1.8181,18.62,6.9399
	c5.4-1.5,11.191-2.253,16.944-2.279c5.753,0.026,11.548,0.779,16.9579,2.279c12.921-8.758,18.597-6.9399,18.597-6.9399
	c3.685,9.325,1.368,16.209,0.665,17.915c4.34,4.741,6.966,10.78,6.966,18.17c0,26.001-15.836,31.725-30.91,33.401
	c2.428,2.101,4.591,6.22,4.591,12.535c0,9.058-0.077,16.348-0.077,18.5779c0,1.802,1.218,3.912,4.649,3.248
	c26.883-8.962,46.255-34.327,46.255-64.226C135.388,30.306,105.08,0,67.694,0"/>
</svg>
