<svg xmlns="http://www.w3.org/2000/svg" xmlns:xlink="http://www.w3.org/1999/xlink" version="1.1" id="Your_Icon" x="0px" y="0px" width="100px" height="100px" viewBox="0 0 100 100" enable-background="new 0 0 100 100" xml:space="preserve">
<g id="WvmeoN.tif">
	<g>
		<g>
			<path fill="#FFFFFF" d="M0,53.156c0-2.115,0-4.229,0-6.342c0.07-0.349,0.178-0.694,0.206-1.046     c0.402-5.049,1.479-9.954,3.494-14.6C10.787,14.827,23.021,4.691,40.476,0.954C42.483,0.524,44.54,0.313,46.574,0     c2.276,0,4.551,0,6.828,0c2.275,0.349,4.572,0.598,6.826,1.061c26.899,5.529,44.397,32.317,38.692,59.191     c-5.727,26.969-32.192,44.549-59.088,38.584C19.346,94.293,6.511,81.271,1.252,60.93C0.598,58.4,0.407,55.75,0,53.156z      M4.943,47.493c5.839,0,11.551,0,17.308,0c0.046-0.237,0.11-0.427,0.121-0.621c0.294-5.417,1.211-10.721,2.91-15.877     c0.271-0.823-0.235-0.941-0.751-1.209c-3.486-1.815-6.96-3.652-10.438-5.482c-0.271-0.144-0.542-0.288-0.868-0.461     C8.22,30.957,5.484,38.764,4.943,47.493z M86.818,24.079c-3.966,1.987-7.881,3.928-11.76,5.934     c-0.229,0.12-0.332,0.792-0.254,1.16c0.741,3.569,1.597,7.114,2.286,10.693c0.354,1.85,0.436,3.752,0.638,5.604     c5.813,0,11.526,0,17.239,0C94.89,39.85,90.771,28.208,86.818,24.079z M25.288,69.578c-1.78-5.484-2.708-11.229-2.998-17.09     c-5.833,0-11.548,0-17.346,0c0.548,8.727,3.273,16.58,8.208,23.506C17.266,73.818,21.202,71.738,25.288,69.578z M77.668,52.494     c-0.259,5.953-1.248,11.684-2.977,17.094c4.096,2.162,8.064,4.26,12.062,6.371c4.04-4.254,8.229-16.123,8.205-23.465     C89.241,52.494,83.525,52.494,77.668,52.494z M72.754,52.508c-6.842,0-13.552,0-20.266,0c0,4.213,0,8.334,0,12.166     c5.912,1.029,11.714,2.037,17.648,3.072C71.64,62.99,72.627,57.891,72.754,52.508z M47.487,52.523c-6.799,0-13.507,0-20.27,0     c0.145,5.395,1.102,10.521,2.63,15.217c5.993-1.039,11.763-2.043,17.64-3.062C47.487,60.842,47.487,56.719,47.487,52.523z      M69.928,32.266c-5.852,1.012-11.611,2.009-17.411,3.015c0,3.909,0,8.06,0,12.192c6.769,0,13.446,0,20.118,0     C72.91,44.11,71.174,34.723,69.928,32.266z M27.241,47.464c6.819,0,13.526,0,20.211,0c0-4.231,0-8.385,0-12.174     C41.57,34.266,35.841,33.27,29.98,32.25C28.441,37,27.396,42.116,27.241,47.464z M47.47,94.555c0-8.328,0-16.424,0-24.596     c-5.443,0.193-10.658,1.131-15.835,2.791C35.263,81.252,40.424,88.455,47.47,94.555z M52.522,69.965c0,8.254,0,16.33,0,24.576     c7.038-6.117,12.226-13.322,15.811-21.811C63.098,71.104,57.913,70.133,52.522,69.965z M47.507,5.866     c-6.96,6.034-12.074,13.083-15.686,21.418c5.16,1.603,10.322,2.565,15.686,2.708C47.507,21.933,47.507,14.031,47.507,5.866z      M68.155,27.284c-3.648-8.358-8.744-15.43-15.642-21.356c0,8.15,0,16.084,0,24.081C57.858,29.818,62.977,28.895,68.155,27.284z      M60.094,6.162c5.312,5.818,9.608,12.242,12.748,19.714c3.714-1.971,7.265-3.854,10.93-5.798     C77.143,12.833,69.383,8.202,60.094,6.162z M16.199,20.091c3.698,1.948,7.282,3.837,10.959,5.773     c3.124-7.56,7.484-13.916,12.727-19.721C30.566,8.222,22.798,12.842,16.199,20.091z M26.98,74.168     c-3.633,1.928-7.147,3.791-10.778,5.719c6.501,7.111,14.104,11.711,23.483,14.014C34.225,87.965,30.004,81.611,26.98,74.168z      M72.991,74.162c-3.036,7.477-7.263,13.814-12.705,19.748c9.388-2.332,17.001-6.912,23.479-14.027     C80.131,77.955,76.637,76.096,72.991,74.162z"/>
		</g>
	</g>
</g>
</svg>
