<?xml version="1.0" encoding="utf-8"?>
<!-- Generator: Adobe Illustrator 18.1.1, SVG Export Plug-In . SVG Version: 6.00 Build 0)  -->
<svg version="1.1" id="XMLID_4_" xmlns="http://www.w3.org/2000/svg" xmlns:xlink="http://www.w3.org/1999/xlink" x="0px" y="0px"
	 viewBox="0 0 44.5 44.5" enable-background="new 0 0 44.5 44.5" xml:space="preserve">
<g id="phone">
	<path fill="#FFFFFF" d="M44.5,5.305c0-0.1029-0.052-0.2579-0.103-0.361c-0.052-0.2059-0.258-0.412-0.464-0.515L32.911,0.0511
		c-0.463-0.1541-0.978,0.052-1.184,0.464l-6.078,12.155c-0.206,0.361-0.103,0.7729,0.155,1.0819l5.923,5.9231
		C28.688,24.568,24.568,28.74,19.675,31.778l-5.923-5.974c-0.309-0.2579-0.721-0.361-1.082-0.1549l-12.155,6.078
		C0.103,31.933-0.103,32.448,0.051,32.912l4.378,11.022c0.103,0.2061,0.258,0.412,0.515,0.515C5.047,44.5,5.202,44.5,5.305,44.5
		s0.206,0,0.36-0.051c20.19-2.5239,36.26-18.542,38.783-38.7839C44.5,5.511,44.5,5.408,44.5,5.305"/>
</g>
</svg>
