<?xml version="1.0" encoding="utf-8"?>
<!-- Generator: Adobe Illustrator 18.1.1, SVG Export Plug-In . SVG Version: 6.00 Build 0)  -->
<svg version="1.1" id="XMLID_3_" xmlns="http://www.w3.org/2000/svg" xmlns:xlink="http://www.w3.org/1999/xlink" x="0px" y="0px"
	 viewBox="0 0 40 40" enable-background="new 0 0 40 40" xml:space="preserve">
<path id="screen" fill="#FFFFFF" d="M35,27.5H5V5h30V27.5z M37.5,0h-35C1.111,0,0,1.1111,0,2.5V30c0,1.389,1.111,2.5,2.5,2.5H15
	v2.4071L7.963,38.426c-0.37,0.1851-0.509,0.5551-0.463,0.926C7.593,39.722,7.963,40,8.3329,40h23.334
	c0.463,0,0.833-0.37,0.833-0.8329c0-0.3241-0.1851-0.6481-0.509-0.7411L25,34.9071V32.5h12.5c1.389,0,2.5-1.111,2.5-2.5V2.5
	C40,1.1111,38.889,0,37.5,0"/>
</svg>
