<?xml version="1.0" encoding="utf-8"?>
<!-- Generator: Adobe Illustrator 18.1.1, SVG Export Plug-In . SVG Version: 6.00 Build 0)  -->
<!DOCTYPE svg PUBLIC "-//W3C//DTD SVG 1.1//EN" "http://www.w3.org/Graphics/SVG/1.1/DTD/svg11.dtd">
<svg version="1.1" id="Layer_1" xmlns="http://www.w3.org/2000/svg" xmlns:xlink="http://www.w3.org/1999/xlink" x="0px" y="0px"
	 viewBox="-39.9 88.6 82 80.7" enable-background="new -39.9 88.6 82 80.7" xml:space="preserve">
<path fill="#FFFFFF" d="M-3.9,169.3c-3.2,0-5.7-1.8-6.8-4.8c-0.8-2.3-1.6-4.6-2.3-6.9c-0.2-0.7-0.5-0.9-1.3-0.6
	c-2.1,0.8-4.3,1.5-6.5,2.2c-3,0.9-5.8,0.6-7.9-1.8c-3.3-3.6-1.7-9.5,2.9-11.2c2.3-0.9,4.6-1.6,7-2.3c0.7-0.2,0.9-0.5,0.7-1.3
	c-1.5-4.4-3-8.8-4.5-13.3c-0.3-0.8-0.6-0.9-1.4-0.7c-2.2,0.8-4.4,1.6-6.6,2.3c-2.5,0.8-4.9,0.6-7-1.3c-3.9-3.5-2.6-9.8,2.3-11.6
	c2.3-0.8,4.6-1.6,6.9-2.3c0.8-0.3,1-0.6,0.7-1.4c-0.8-2.1-1.5-4.3-2.2-6.5c-1.6-4.9,1.4-9.3,6.5-9.6c2.9-0.2,5.8,1.8,6.9,4.6
	c0.8,2.3,1.6,4.7,2.4,7c0.2,0.8,0.6,0.9,1.3,0.7c4.4-1.5,8.8-3,13.3-4.4c0.8-0.2,0.9-0.5,0.7-1.3c-0.8-2.2-1.5-4.4-2.2-6.5
	c-1.3-4,0.5-8,4.4-9.3c3.9-1.3,7.8,0.7,9.2,4.8c0.7,2.2,1.5,4.4,2.2,6.5c0.2,0.8,0.6,0.9,1.3,0.7c2.6-0.9,5.1-1.9,7.8-2.5
	c4.3-0.9,8.3,2.5,8.2,6.7c-0.1,2.7-2.1,5.2-5.1,6.2c-2.2,0.8-4.4,1.5-6.6,2.2c-0.8,0.2-0.9,0.6-0.6,1.3c1.6,4.5,3.1,8.9,4.6,13.4
	c0.2,0.7,0.5,0.9,1.2,0.6c2.4-0.8,4.8-1.7,7.2-2.4c4.1-1.3,8.3,1,9.1,5c0.8,3.9-0.7,6.6-4.7,8.1c-2.4,0.9-4.8,1.7-7.3,2.5
	c-0.7,0.2-0.8,0.5-0.5,1.1c0.8,2.3,1.6,4.6,2.3,6.9c1.6,4.6-1.1,8.9-5.9,9.6c-3.2,0.4-6.4-1.6-7.5-4.8c-0.8-2.3-1.6-4.7-2.4-7
	c-0.2-0.7-0.5-0.9-1.2-0.6c-4.5,1.6-9,3.1-13.5,4.6c-0.6,0.2-0.7,0.5-0.5,1.1c0.8,2.4,1.7,4.8,2.4,7.2C4.3,164.8,1,169.3-3.9,169.3z
	 M5.3,118.8c-0.2,0.1-0.4,0.1-0.6,0.2c-4.5,1.5-8.9,3-13.4,4.5c-0.6,0.2-0.8,0.5-0.6,1.1c1.6,4.5,3.1,9.1,4.6,13.7
	c0.2,0.6,0.4,0.7,1,0.5c4.5-1.5,9.1-3.1,13.7-4.6c0.7-0.2,0.8-0.5,0.5-1.1c-0.5-1.5-1-3-1.5-4.5c-1-3-2.1-6.1-3.1-9.1
	C5.9,119.2,5.9,118.7,5.3,118.8z"/>
</svg>
