<?xml version="1.0" encoding="utf-8"?>
<!-- Generator: Adobe Illustrator 18.1.1, SVG Export Plug-In . SVG Version: 6.00 Build 0)  -->
<svg version="1.1" id="st-logo" xmlns="http://www.w3.org/2000/svg" xmlns:xlink="http://www.w3.org/1999/xlink" x="0px" y="0px"
	 viewBox="0 0 32.9501 35.762" enable-background="new 0 0 32.9501 35.762" xml:space="preserve">
<path fill="#FFFFFF" d="M26.4221,32.3309c-0.592,0.1361-1.1931,0.202-1.8041,0.202c-0.545,0-0.9719-0.226-1.267-0.6799
	c-0.298-0.451-0.354-1.109-0.175-1.943l2.905-13.3871h6.316l0.553-2.5819h-6.312l1.39-6.416h-0.019
	c0.5121-2.3771,0.105-4.3401-1.028-5.641C25.837,0.568,24.073,0,22.2371,0c-2.177,0-4.5341,0.766-6.559,2.187
	c-2.021,1.41-3.7151,3.5759-4.265,6.157c-0.38,1.785-0.233,3.412,0.5349,5.168h-0.111c-2.132,0-3.9,0.5131-5.318,1.5591
	c-1.413,1.052-2.318,2.4829-2.707,4.282c-0.188,0.866-0.214,1.614-0.0659,2.2269c0.137,0.6001,0.406,1.1541,0.788,1.6271
	c0.377,0.494,0.869,0.937,1.468,1.348c0.592,0.3939,1.252,0.834,1.9709,1.2999c0.568,0.376,1.0901,0.707,1.5951,1.004
	c0.4969,0.285,0.9159,0.569,1.251,0.842c0.338,0.2849,0.578,0.6,0.7319,0.9419c0.1581,0.348,0.171,0.771,0.066,1.2671
	c-0.256,1.192-0.7631,1.986-1.525,2.3829c-0.7479,0.396-1.734,0.588-2.954,0.588c-0.792,0-1.6071-0.192-2.4301-0.574
	c-0.84-0.3721-1.5459-1.094-2.1379-2.1741L0,32.307c0.6381,1.109,1.484,1.9659,2.5031,2.5599c1.033,0.5951,2.354,0.895,3.9709,0.895
	c2.092,0,3.942-0.504,5.5231-1.5089c1.592-0.999,2.6219-2.5811,3.085-4.7321c0.193-0.8781,0.23-1.609,0.119-2.205
	c-0.1219-0.599-0.3669-1.1171-0.749-1.5651c-0.37-0.458-0.8629-0.876-1.469-1.259c-0.6019-0.3669-1.296-0.7909-2.051-1.2539
	c-0.3939-0.264-0.84-0.5231-1.3199-0.792c-0.473-0.266-0.912-0.5291-1.307-0.8251c-0.397-0.299-0.707-0.6169-0.932-0.981
	c-0.234-0.365-0.288-0.79-0.1799-1.287C7.4091,18.33,7.885,17.595,8.604,17.152c0.7271-0.454,1.6361-0.678,2.728-0.678
	c0.793,0,1.511,0.214,2.171,0.6329c0.663,0.42,1.183,0.894,1.584,1.4181l2.415-2.2321c-0.173-0.233-0.382-0.463-0.606-0.693
	c-0.2981-0.376-0.567-0.718-0.796-1.0599l-0.011,0.005c-3.0221-4.2161-3.875-8.27,0.8409-10.7561
	c3.292-1.7369,5.53-0.9369,6.6801,0.0271c0,0.006,0.007,0.016,0.01,0.016c0.0509,0.0399,0.0969,0.088,0.1479,0.119
	c0.11,0.0919,0.229,0.184,0.324,0.287c0.535,0.6329,0.8461,1.6229,0.4821,3.365l-0.076,0.375h0.011l-1.2949,5.963h-3.521
	l-0.557,2.5819h3.4719L19.6411,30.212c-0.394,1.809-0.2941,3.151,0.287,4.041c0.589,0.8899,1.835,1.3309,3.757,1.3309
	c0.824,0,1.691-0.145,2.61-0.441c0.912-0.2799,1.757-0.604,2.531-0.9559l-0.2159-2.568
	C27.7421,31.9609,27.014,32.207,26.4221,32.3309"/>
<g>
	<path fill="#FFFFFF" d="M26.4221,32.3309c-0.592,0.1361-1.1931,0.202-1.8041,0.202c-0.545,0-0.9719-0.226-1.267-0.6799
		c-0.298-0.451-0.354-1.109-0.175-1.943l2.905-13.3871h6.316l0.553-2.5819h-6.312l1.39-6.416h-0.019
		c0.5121-2.3771,0.105-4.3401-1.028-5.641C25.837,0.568,24.073,0,22.2371,0c-2.177,0-4.5341,0.766-6.559,2.187
		c-2.021,1.41-3.7151,3.5759-4.265,6.157c-0.38,1.785-0.233,3.412,0.5349,5.168h-0.111c-2.132,0-3.9,0.5131-5.318,1.5591
		c-1.413,1.052-2.318,2.4829-2.707,4.282c-0.188,0.866-0.214,1.614-0.0659,2.2269c0.137,0.6001,0.406,1.1541,0.788,1.6271
		c0.377,0.494,0.869,0.937,1.468,1.348c0.592,0.3939,1.252,0.834,1.9709,1.2999c0.568,0.376,1.0901,0.707,1.5951,1.004
		c0.4969,0.285,0.9159,0.569,1.251,0.842c0.338,0.2849,0.578,0.6,0.7319,0.9419c0.1581,0.348,0.171,0.771,0.066,1.2671
		c-0.256,1.192-0.7631,1.986-1.525,2.3829c-0.7479,0.396-1.734,0.588-2.954,0.588c-0.792,0-1.6071-0.192-2.4301-0.574
		c-0.84-0.3721-1.5459-1.094-2.1379-2.1741L0,32.307c0.6381,1.109,1.484,1.9659,2.5031,2.5599
		c1.033,0.5951,2.354,0.895,3.9709,0.895c2.092,0,3.942-0.504,5.5231-1.5089c1.592-0.999,2.6219-2.5811,3.085-4.7321
		c0.193-0.8781,0.23-1.609,0.119-2.205c-0.1219-0.599-0.3669-1.1171-0.749-1.5651c-0.37-0.458-0.8629-0.876-1.469-1.259
		c-0.6019-0.3669-1.296-0.7909-2.051-1.2539c-0.3939-0.264-0.84-0.5231-1.3199-0.792c-0.473-0.266-0.912-0.5291-1.307-0.8251
		c-0.397-0.299-0.707-0.6169-0.932-0.981c-0.234-0.365-0.288-0.79-0.1799-1.287C7.4091,18.33,7.885,17.595,8.604,17.152
		c0.7271-0.454,1.6361-0.678,2.728-0.678c0.793,0,1.511,0.214,2.171,0.6329c0.663,0.42,1.183,0.894,1.584,1.4181l2.415-2.2321
		c-0.173-0.233-0.382-0.463-0.606-0.693c-0.2981-0.376-0.567-0.718-0.796-1.0599l-0.011,0.005
		c-3.0221-4.2161-3.875-8.27,0.8409-10.7561c3.292-1.7369,5.53-0.9369,6.6801,0.0271c0,0.006,0.007,0.016,0.01,0.016
		c0.0509,0.0399,0.0969,0.088,0.1479,0.119c0.11,0.0919,0.229,0.184,0.324,0.287c0.535,0.6329,0.8461,1.6229,0.4821,3.365
		l-0.076,0.375h0.011l-1.2949,5.963h-3.521l-0.557,2.5819h3.4719L19.6411,30.212c-0.394,1.809-0.2941,3.151,0.287,4.041
		c0.589,0.8899,1.835,1.3309,3.757,1.3309c0.824,0,1.691-0.145,2.61-0.441c0.912-0.2799,1.757-0.604,2.531-0.9559l-0.2159-2.568
		C27.7421,31.9609,27.014,32.207,26.4221,32.3309"/>
</g>
</svg>
