<?xml version="1.0" encoding="utf-8"?>
<!-- Generator: Adobe Illustrator 18.1.1, SVG Export Plug-In . SVG Version: 6.00 Build 0)  -->
<!DOCTYPE svg PUBLIC "-//W3C//DTD SVG 1.1//EN" "http://www.w3.org/Graphics/SVG/1.1/DTD/svg11.dtd">
<svg version="1.1" id="Layer_1" xmlns="http://www.w3.org/2000/svg" xmlns:xlink="http://www.w3.org/1999/xlink" x="0px" y="0px"
	 viewBox="0 0 288 288" enable-background="new 0 0 288 288" xml:space="preserve">
<path fill="#FFFFFF" d="M249,3.1h-210c-19.3,0-35,15.7-35,35v210c0,19.3,15.7,35,35,35h210c19.3,0,35-15.7,35-35v-210
	C284.1,18.8,268.4,3.1,249,3.1z M125.9,215.9c0,9.3-7.5,16.8-16.8,16.8H57.2c-9.3,0-16.8-7.5-16.8-16.8V56.3
	c0-9.3,7.5-16.8,16.8-16.8h51.8c9.3,0,16.8,7.5,16.8,16.8V215.9z M247.7,145.9c0,9.3-7.5,16.8-16.8,16.8H179
	c-9.3,0-16.8-7.5-16.8-16.8V56.3c0-9.3,7.5-16.8,16.8-16.8h51.8c9.3,0,16.8,7.5,16.8,16.8V145.9z"/>
</svg>
