<svg xmlns="http://www.w3.org/2000/svg" xmlns:xlink="http://www.w3.org/1999/xlink" viewBox="0 0 299.4 320.3"><defs><path id="a" d="M0 0h299.4v320.3H0z"/></defs><clipPath id="b"><use xlink:href="#a" overflow="visible"/></clipPath><path clip-path="url(#b)" d="M103.9 208.5c0 5.6 4.3 10 9.8 10 5.4 0 9.6-4.4 9.6-10v-39.3h52.8v39.3c0 5.6 4.3 10 9.6 10 5.5 0 9.8-4.4 9.8-10v-96.6c0-5.6-4.3-10-9.8-10-5.4 0-9.6 4.4-9.6 10v38.6h-52.8v-38.6c0-5.6-4.3-10-9.6-10-5.5 0-9.8 4.4-9.8 10v96.6z"/><path d="M36.4 297.2h209v7.1H29.9l6.5-7.1zm21.4-23.1h187.6v6.9h-194l6.4-6.9zM15.4 62.3h23.1v209.4l-23.1 24.9V62.3zm38.5 0h191.5v195.8H53.9V62.3zM38.5 25.6v20.6H19.7l18.8-20.6zm15.4-9.5h230v242h-23.1V46.2H53.9V16.1zM38.5 0L0 43.5v276.8h260.8v-23.1h15.9l15-16.2h-30.9v-6.9h38.5V0H38.5z"/></svg>