<svg xmlns="http://www.w3.org/2000/svg" viewBox="0 0 452.2 194.3"><g fill="#FFC904"><path d="M314.4 732.7c-8.8 6.1-22.1 11.2-38.8 11.2-31.6 0-54.2-22.1-54.2-56.6 0-43.6 32.2-68.8 74.1-68.8 48.4 0 77.9 34.8 77.9 86.1 0 59.3-44.1 105.8-123.3 105.8l-4-8c43.9-7.8 62.5-33.8 68.3-69.7zm1.1-10.1c.8-6.4 1.1-12.8 1.1-19.7 0-39.6-6.4-72.3-24.7-72.3-13.6 0-18.9 17.5-18.9 40.4 0 27.9 10.9 51.8 35.1 51.8 2.6.1 5.3.1 7.4-.2z"/><path d="M511.1 752.7c0 38.8-37.5 57.9-75.2 57.9-43.3 0-65.6-17-65.6-38.3 0-11.2 6.4-19.7 12.5-22.6h34c-1.9 4.8-3.2 10.4-3.2 18.1 0 17 7.4 31.4 23.6 31.4 13.3 0 21-12 21-34.5 0-25.2-13.3-42.5-39.1-42.5h-4l-3.5-8.2c28.2-12 34-22.6 34-36.7 0-13.8-8.2-22.6-24.2-22.6-15.1 0-25.2 6.6-34.5 17.3l-7.7-6.1c12.8-26.6 33.2-47 70.4-47 29 0 49.4 13.8 49.4 38.5 0 27.1-26.3 39.3-47.6 43.3 36.3.7 59.7 20.3 59.7 52zM576.2 696.3c8.8-5.8 21.8-11.2 38.8-11.2 31.6 0 54.2 22.1 54.2 56.6 0 43.6-32.2 68.8-74.1 68.8-48.4 0-77.9-34.8-77.9-86.1 0-59.3 44.1-105.8 123.3-105.8l4 8c-43.9 8.1-62.5 33.9-68.3 69.7zm-1.3 10.1c-.5 6.4-.8 13-.8 19.7 0 39.6 6.4 72.3 24.7 72.3 13.6 0 18.9-17.5 18.9-40.4 0-27.9-10.9-51.8-35.1-51.8-3 0-5.4 0-7.7.2z"/></g><path fill="none" d="M-1017.9 431.5h2230.5V1453h-2230.5z"/><g fill="#2E72B8"><path d="M126.1 188.9H2L30.8 24.2h124.1l-8.4 47H78.9L76.1 86h59l-6.7 41.1H69.1l-2.8 14.8h67.9l-8.1 47zM286.6 132.7c-1.1 6.2-1.4 9.2-1.4 10.9 0 3.4 1.4 5.3 4.8 5.3 3.1 0 6.2-1.1 9.2-2.5l-7.8 38.3c-6.2 3.6-18.5 6.2-29.9 6.2-18.2 0-29.9-9.8-32.2-25.7-6.2 15.1-21 27.1-40.8 27.1-27.1 0-45.6-18.5-45.6-54.5 0-44.2 24.6-81.4 62.3-81.4 19 0 30.8 7.8 34.7 21.8l13.4-76h56.5l-23.2 130.5zm-53.7-13.4c.8-4.2 1.1-7.8 1.1-10.6 0-7.5-3.6-12.6-10.6-12.6-13.4 0-21.8 20.7-21.8 40.8 0 9.5 4.5 15.7 11.7 15.7 8.9 0 14.8-7.8 17.3-21.2l2.3-12.1zM437.3 132.7c-1.1 6.2-1.4 9.2-1.4 10.9 0 3.4 1.4 5.3 4.8 5.3 3.1 0 6.2-1.1 9.2-2.5l-7.8 38.3c-6.2 3.6-18.5 6.2-30.5 6.2-21 0-29.1-10.3-31-26.6-6.2 20.1-21.8 28-43.1 28-21 0-34.9-12.9-34.9-33.8 0-6.2.3-9.2 1.4-16.5l14.5-82.2h55.6l-12.3 71.6c-.8 4.8-1.1 7.8-1.1 9.8 0 4.5 1.7 7.5 7 7.5 7.5 0 12.3-6.4 15.7-25.7l10.9-63.2h55.9l-12.9 72.9z"/></g></svg>