<svg xmlns="http://www.w3.org/2000/svg" viewBox="0 0 452.2 194.3"><g fill="#FFC904"><path d="M95.2 115.4c-8.8 6.1-22.1 11.2-38.8 11.2-31.6 0-54.2-22.1-54.2-56.6 0-43.6 32.2-68.8 74.1-68.8 48.4 0 77.9 34.8 77.9 86.1 0 59.3-44.1 105.8-123.3 105.8l-4-8c43.9-7.8 62.5-33.9 68.3-69.7zm1.1-10.1c.8-6.4 1.1-12.8 1.1-19.7 0-39.6-6.4-72.3-24.7-72.3-13.6 0-18.9 17.5-18.9 40.4 0 27.9 10.9 51.8 35.1 51.8 2.6 0 5.3 0 7.4-.2z"/><path d="M291.9 135.3c0 38.8-37.5 57.9-75.2 57.9-43.3 0-65.6-17-65.6-38.3 0-11.2 6.4-19.7 12.5-22.6h34c-1.9 4.8-3.2 10.4-3.2 18.1 0 17 7.4 31.4 23.6 31.4 13.3 0 21-12 21-34.5 0-25.2-13.3-42.5-39.1-42.5h-4l-3.5-8.2c28.2-12 34-22.6 34-36.7 0-13.8-8.2-22.6-24.2-22.6-15.1 0-25.2 6.6-34.5 17.3l-7.7-6.1c12.8-26.6 33.2-47 70.4-47 29 0 49.4 13.8 49.4 38.5 0 27.1-26.3 39.3-47.6 43.3 36.3.7 59.7 20.4 59.7 52zM357 79c8.8-5.8 21.8-11.2 38.8-11.2 31.6 0 54.2 22.1 54.2 56.6 0 43.6-32.2 68.8-74.1 68.8-48.4 0-77.9-34.8-77.9-86.1C298 47.9 342.1 1.4 421.3 1.4l4 8C381.4 17.3 362.8 43.1 357 79zm-1.4 10.1c-.5 6.4-.8 13-.8 19.7 0 39.6 6.4 72.3 24.7 72.3 13.6 0 18.9-17.5 18.9-40.4 0-27.9-10.9-51.8-35.1-51.8-2.9-.1-5.3-.1-7.7.2z"/></g></svg>