<?xml version="1.0" encoding="UTF-8" standalone="no"?>
<svg width="863px" height="388px" viewBox="0 0 863 388" version="1.1" xmlns="http://www.w3.org/2000/svg" xmlns:xlink="http://www.w3.org/1999/xlink" xmlns:sketch="http://www.bohemiancoding.com/sketch/ns">
    <!-- Generator: Sketch 3.3.3 (12072) - http://www.bohemiancoding.com/sketch -->
    <title>Type</title>
    <desc>Created with Sketch.</desc>
    <defs></defs>
    <g id="Page-1" stroke="none" stroke-width="1" fill="none" fill-rule="evenodd" sketch:type="MSPage">
        <g id="Artboard-3-Copy" sketch:type="MSArtboardGroup" transform="translate(-244.000000, -1087.000000)">
            <g id="Arithmetic-Copy" sketch:type="MSLayerGroup" transform="translate(0.000000, 2.000000)">
                <g id="background-elements">
                    <g id="Type" transform="translate(245.000000, 1066.000000)">
                        <text id="№" sketch:type="MSTextLayer" font-family="Abril Fatface" font-size="113" font-style="italic" font-weight="740" line-spacing="106" fill="#000000">
                            <tspan x="70" y="117">№</tspan>
                        </text>
                        <g id="!-+-!-copy" transform="translate(338.000000, 220.000000)" font-weight="740" font-family="Abril Fatface" line-spacing="106" sketch:type="MSTextLayer" font-size="87.3333333" font-style="italic" fill="#000000">
                            <text id="!">
                                <tspan x="0" y="91">!</tspan>
                            </text>
                            <text id="!-copy" transform="translate(43.000000, 84.666667) scale(-1, -1) translate(-43.000000, -84.666667) ">
                                <tspan x="26" y="140.333333">!</tspan>
                            </text>
                        </g>
                        <text id="ontogeny-recapitulat" sketch:type="MSTextLayer" font-family="Abril Fatface" font-size="28" font-style="italic" font-weight="740" line-spacing="33" fill="#000000">
                            <tspan x="413" y="354">ontogeny recapitulates </tspan>
                            <tspan x="413" y="387">phylogeny</tspan>
                        </text>
                        <text id="Nel-mezzo-del-cammin" sketch:type="MSTextLayer" font-family="Grad" font-size="20" font-style="italic" font-weight="normal" line-spacing="24" fill="#000000">
                            <tspan x="0" y="271">Nel mezzo del cammin di nostra vita, </tspan>
                            <tspan x="0" y="295">mi ritrovai per una selva oscura . . .</tspan>
                        </text>
                        <text id="Call-me-Ishmael.-Som" sketch:type="MSTextLayer" font-family="IM FELL Great Primer" font-size="36" font-weight="normal" fill="#000000">
                            <tspan x="525" y="138">Call me Ishmael. Some </tspan>
                            <tspan x="525" y="182">years ago - never mind </tspan>
                            <tspan x="525" y="226">how long precisely. . .</tspan>
                        </text>
                        <text id="prerequisite" sketch:type="MSTextLayer" font-family="Nixie One" font-size="46" font-weight="normal" fill="#000000">
                            <tspan x="433" y="295">prerequisite</tspan>
                        </text>
                        <text id="egad?" sketch:type="MSTextLayer" font-family="Cubano" font-size="73" font-weight="normal" fill="#000000">
                            <tspan x="525" y="78">egad?</tspan>
                        </text>
                        <g id="PARANORMAL-+-Line" transform="translate(0.000000, 132.000000)">
                            <text id="PARANORMAL" sketch:type="MSTextLayer" font-family="Purista" font-size="62" font-weight="bold" letter-spacing="7.86463348" fill="#000000">
                                <tspan x="0" y="67">PARANORMAL</tspan>
                            </text>
                            <path d="M4.5,82 L474.590424,82" id="Line" stroke="#000000" stroke-width="8" stroke-linecap="square" sketch:type="MSShapeGroup"></path>
                        </g>
                        <text id="A-sweeping-tale-that" sketch:type="MSTextLayer" font-family="Adelle W01 Light Italic" font-size="30" font-style="italic" font-weight="normal" fill="#000000">
                            <tspan x="231" y="42">A sweeping tale </tspan>
                            <tspan x="231" y="78">that moves at heart </tspan>
                            <tspan x="231" y="114">pounding speeds.</tspan>
                        </text>
                        <path d="M121.812,392.148 C140.18,392.148 147.806,383.456 147.806,372.878 C147.806,364.842 140.426,360.988 133.292,358.528 C128.946,356.97 125.42,356.15 125.42,354.346 C125.42,352.952 126.732,351.886 129.93,351.886 C134.604,351.886 140.508,354.92 144.362,359.348 C144.854,359.84 152.07,355.576 152.07,348.852 C152.07,346.474 151.168,344.342 149.364,342.538 C145.838,339.012 139.442,336.798 130.094,336.798 C112.382,336.798 105.74,346.474 105.74,355.986 C105.74,365.088 112.792,368.532 118.86,370.746 C122.714,372.058 125.584,372.878 125.584,374.6 C125.584,376.24 124.272,377.06 121.484,377.06 C116.154,377.06 109.102,373.534 105.33,369.844 C104.838,369.352 98.524,373.616 98.524,379.356 C98.524,381.898 99.508,384.276 101.558,386.326 C105.084,389.852 111.644,392.148 121.812,392.148 L121.812,392.148 Z M154.53,406.744 L156.498,406.744 C161.418,406.744 163.878,404.448 165.354,397.478 L167.896,385.752 C170.602,390.098 174.948,391.984 180.278,391.984 C192.906,391.984 200.696,379.192 200.696,365.826 C200.696,355.33 194.382,348.77 185.362,348.77 C178.884,348.77 174.128,352.706 171.914,358.036 C171.012,351.886 166.42,349.426 161.746,349.426 C158.63,349.426 156.17,350.328 156.088,350.738 L146.166,397.478 C144.608,404.612 149.364,406.744 154.53,406.744 L154.53,406.744 Z M177.244,363.53 C180.77,363.53 182.328,365.908 182.328,369.106 C182.328,373.698 180.114,377.552 176.096,377.552 C171.914,377.552 170.192,374.436 171.34,369.106 L172.078,365.826 C173.472,364.35 175.358,363.53 177.244,363.53 L177.244,363.53 Z M214.964,392.066 C223.492,392.066 225.296,387.556 225.132,387.392 C222.59,386.244 221.77,384.194 222.918,379.028 L230.79,341.882 C232.348,334.748 227.592,332.616 222.426,332.616 L220.458,332.616 C215.538,332.616 213.078,334.912 211.602,341.882 L203.894,378.208 C202.336,385.67 204.304,392.066 214.964,392.066 L214.964,392.066 Z M270.15,392.066 C278.268,392.066 280.072,387.556 279.908,387.392 C277.366,386.244 276.546,384.194 277.694,379.028 L283.516,351.722 C283.68,350.984 280.728,349.426 277.038,349.426 C271.134,349.426 267.198,351.394 264.574,355.904 C262.278,350.984 257.194,348.77 252.356,348.77 C239.318,348.77 230.544,362.054 230.544,375.83 C230.544,385.506 236.202,391.984 245.058,391.984 C251.454,391.984 256.456,388.458 259.08,383.62 C259.654,388.622 263.016,392.066 270.15,392.066 L270.15,392.066 Z M253.586,377.224 C250.634,377.224 248.912,375.092 248.912,372.304 C248.912,367.384 251.782,363.202 256.21,363.202 C258.834,363.202 260.146,364.596 261.13,366.564 L260.228,370.992 C259.326,375.256 256.702,377.224 253.586,377.224 L253.586,377.224 Z M302.868,391.82 C315.578,391.82 321.892,386.08 321.892,378.044 C321.892,370.992 316.152,367.958 309.428,365.17 C307.05,364.186 305.246,363.448 305.246,362.546 C305.246,361.726 306.066,361.152 307.542,361.152 C311.806,361.152 316.152,364.268 319.186,367.548 C319.514,367.876 325.008,365.416 325.008,359.676 C325.008,357.544 324.188,355.904 322.958,354.674 C319.432,351.148 313.282,349.016 305.984,349.016 C293.602,349.016 287.698,355.576 287.698,363.202 C287.698,371.074 293.52,373.862 299.096,376.322 C300.818,377.06 301.966,377.716 301.966,378.454 C301.966,379.438 301.474,379.766 300.08,379.766 C296.062,379.766 290.486,376.814 287.206,373.698 C286.796,373.288 282.122,375.83 282.122,380.668 C282.122,382.882 283.188,384.85 284.828,386.49 C287.862,389.524 293.93,391.82 302.868,391.82 L302.868,391.82 Z M361.99,392.066 C371.42,392.066 373.47,385.916 373.224,385.834 C371.174,385.26 370.108,384.112 370.108,381.652 C370.108,380.012 370.928,376.814 371.994,372.96 C373.552,367.466 374.29,364.268 374.29,361.398 C374.29,353.772 369.944,348.77 362.728,348.77 C356.742,348.77 351.822,352.132 348.788,356.806 L351.986,341.882 C353.544,334.748 348.788,332.616 343.622,332.616 L341.654,332.616 C336.734,332.616 334.274,334.912 332.798,341.882 L324.27,382.144 C322.794,389.278 327.468,391.41 332.634,391.41 L334.602,391.41 C339.522,391.41 341.982,389.114 343.458,382.144 L346.984,365.662 C348.132,364.596 349.034,364.104 350.674,364.104 C352.888,364.104 354.036,365.416 354.036,367.548 C354.036,368.614 353.544,370.828 352.642,374.108 C351.248,379.028 350.838,380.914 350.838,383.374 C350.838,388.54 353.954,392.066 361.99,392.066 L361.99,392.066 Z" id="Splash" fill="#000000" sketch:type="MSShapeGroup"></path>
                        <path d="M759.157,306.211 L773.043,306.211 C774.746,309.879 775.925,314.726 777.235,320.359 C773.043,318.918 769.244,318.525 767.148,318.525 C758.633,318.525 750.118,324.027 750.118,335.817 C750.118,343.415 754.179,348.786 763.087,348.786 C770.292,348.786 774.746,344.07 778.152,337.127 C784.44,340.271 798.85,349.441 808.937,349.441 C816.273,349.441 824.526,344.725 826.753,319.442 L824.264,319.311 C822.954,328.874 819.679,331.101 813.391,331.101 C809.068,331.101 791.907,325.206 782.606,321.538 L787.846,306.08 L810.771,306.211 L811.557,302.543 L789.025,302.281 L794.92,279.487 C798.981,263.243 802.911,257.479 810.64,257.479 C816.535,257.479 818.893,261.933 814.57,268.614 L809.854,268.614 C808.413,271.103 807.496,273.723 807.496,276.212 C807.627,280.797 810.247,284.858 817.452,284.858 C827.277,284.858 830.683,277.915 830.683,271.234 C830.683,261.016 822.692,254.859 806.579,254.859 C781.951,254.859 767.148,267.566 767.148,283.81 C767.148,290.098 769.375,296.517 771.602,302.543 L760.074,302.543 L759.157,306.211 Z M763.087,332.149 C767.148,332.149 770.816,333.721 774.353,335.686 C771.733,343.415 766.755,345.642 763.087,345.642 C756.144,345.642 754.834,341.188 754.834,338.961 C754.834,335.031 757.323,332.149 763.087,332.149 L763.087,332.149 Z" id="£" fill="#000000" sketch:type="MSShapeGroup"></path>
                    </g>
                </g>
            </g>
        </g>
    </g>
</svg>