<?xml version="1.0" encoding="UTF-8" standalone="no"?>
<svg width="22px" height="77px" viewBox="0 0 22 77" version="1.1" xmlns="http://www.w3.org/2000/svg" xmlns:xlink="http://www.w3.org/1999/xlink" xmlns:sketch="http://www.bohemiancoding.com/sketch/ns">
    <!-- Generator: Sketch 3.3.3 (12072) - http://www.bohemiancoding.com/sketch -->
    <title>{         }</title>
    <desc>Created with Sketch.</desc>
    <defs></defs>
    <g id="Page-1" stroke="none" stroke-width="1" fill="none" fill-rule="evenodd" sketch:type="MSPage">
        <g id="Desktop-HD" sketch:type="MSArtboardGroup" transform="translate(-1162.000000, -6317.000000)" fill="#000000">
            <g id="Chapter-1---A-Versatile-System" sketch:type="MSLayerGroup" transform="translate(0.000000, 2112.000000)">
                <g id="Arithmetic" transform="translate(0.000000, 1600.000000)" sketch:type="MSShapeGroup">
                    <g id="27-background-textures" transform="translate(250.000000, 2442.000000)">
                        <path d="M933.504,200.716 C929.472,199.876 926.532,197.692 926.532,192.316 L926.532,173.752 C926.532,167.116 920.988,163 912,163 L912,164.932 C916.62,165.436 919.56,167.536 919.56,173.164 L919.56,191.644 C919.56,197.524 922.668,199.624 928.38,201.22 C922.668,202.816 919.56,204.916 919.56,210.796 L919.56,229.276 C919.56,234.904 916.62,237.004 912,237.508 L912,239.44 C920.988,239.44 926.532,235.324 926.532,228.688 L926.532,210.124 C926.532,204.748 929.472,202.564 933.504,201.724 L933.504,200.716 Z" id="{---------}"></path>
                    </g>
                </g>
            </g>
        </g>
    </g>
</svg>