<?xml version="1.0" encoding="UTF-8" standalone="no"?>
<svg width="91px" height="77px" viewBox="0 0 91 77" version="1.1" xmlns="http://www.w3.org/2000/svg" xmlns:xlink="http://www.w3.org/1999/xlink" xmlns:sketch="http://www.bohemiancoding.com/sketch/ns">
    <!-- Generator: Sketch 3.3.3 (12072) - http://www.bohemiancoding.com/sketch -->
    <title>Imported Layers Copy 23 + Path Copy</title>
    <desc>Created with Sketch.</desc>
    <defs></defs>
    <g id="Page-1" stroke="none" stroke-width="1" fill="none" fill-rule="evenodd" sketch:type="MSPage">
        <g id="Desktop-HD" sketch:type="MSArtboardGroup" transform="translate(-903.000000, -6317.000000)">
            <g id="Chapter-1---A-Versatile-System" sketch:type="MSLayerGroup" transform="translate(0.000000, 2112.000000)">
                <g id="Arithmetic" transform="translate(0.000000, 1600.000000)" sketch:type="MSShapeGroup">
                    <g id="27-background-textures" transform="translate(250.000000, 2442.000000)">
                        <g id="Imported-Layers-Copy-23-+-Path-Copy" transform="translate(654.000000, 163.000000)">
                            <path d="M0,19 L40,59 M40,19 L0,59" id="Imported-Layers-Copy-23" stroke="#000000" stroke-width="2"></path>
                            <path d="M68,38.724 C72.032,39.564 74.972,41.748 74.972,47.124 L74.972,65.688 C74.972,72.324 80.516,76.44 89.504,76.44 L89.504,74.508 C84.884,74.004 81.944,71.904 81.944,66.276 L81.944,47.796 C81.944,41.916 78.836,39.816 73.124,38.22 C78.836,36.624 81.944,34.524 81.944,28.644 L81.944,10.164 C81.944,4.536 84.884,2.436 89.504,1.932 L89.504,0 C80.516,0 74.972,4.116 74.972,10.752 L74.972,29.316 C74.972,34.692 72.032,36.876 68,37.716 L68,38.724 Z" id="Path-Copy" fill="#000000"></path>
                        </g>
                    </g>
                </g>
            </g>
        </g>
    </g>
</svg>