<?xml version="1.0" encoding="UTF-8" standalone="no"?>
<svg width="89px" height="103px" viewBox="0 0 89 103" version="1.1" xmlns="http://www.w3.org/2000/svg" xmlns:xlink="http://www.w3.org/1999/xlink" xmlns:sketch="http://www.bohemiancoding.com/sketch/ns">
    <!-- Generator: Sketch 3.3.3 (12072) - http://www.bohemiancoding.com/sketch -->
    <title>£</title>
    <desc>Created with Sketch.</desc>
    <defs></defs>
    <g id="Page-1" stroke="none" stroke-width="1" fill="none" fill-rule="evenodd" sketch:type="MSPage">
        <g id="Artboard-3-Copy" sketch:type="MSArtboardGroup" transform="translate(-991.000000, -1321.000000)" fill="#000000">
            <g id="Arithmetic-Copy" sketch:type="MSLayerGroup" transform="translate(0.000000, 2.000000)">
                <g id="background-elements" sketch:type="MSShapeGroup">
                    <g id="Type" transform="translate(245.000000, 1066.000000)">
                        <path d="M759.157,306.211 L773.043,306.211 C774.746,309.879 775.925,314.726 777.235,320.359 C773.043,318.918 769.244,318.525 767.148,318.525 C758.633,318.525 750.118,324.027 750.118,335.817 C750.118,343.415 754.179,348.786 763.087,348.786 C770.292,348.786 774.746,344.07 778.152,337.127 C784.44,340.271 798.85,349.441 808.937,349.441 C816.273,349.441 824.526,344.725 826.753,319.442 L824.264,319.311 C822.954,328.874 819.679,331.101 813.391,331.101 C809.068,331.101 791.907,325.206 782.606,321.538 L787.846,306.08 L810.771,306.211 L811.557,302.543 L789.025,302.281 L794.92,279.487 C798.981,263.243 802.911,257.479 810.64,257.479 C816.535,257.479 818.893,261.933 814.57,268.614 L809.854,268.614 C808.413,271.103 807.496,273.723 807.496,276.212 C807.627,280.797 810.247,284.858 817.452,284.858 C827.277,284.858 830.683,277.915 830.683,271.234 C830.683,261.016 822.692,254.859 806.579,254.859 C781.951,254.859 767.148,267.566 767.148,283.81 C767.148,290.098 769.375,296.517 771.602,302.543 L760.074,302.543 L759.157,306.211 Z M763.087,332.149 C767.148,332.149 770.816,333.721 774.353,335.686 C771.733,343.415 766.755,345.642 763.087,345.642 C756.144,345.642 754.834,341.188 754.834,338.961 C754.834,335.031 757.323,332.149 763.087,332.149 L763.087,332.149 Z" id="£"></path>
                    </g>
                </g>
            </g>
        </g>
    </g>
</svg>