<?xml version="1.0" encoding="UTF-8" standalone="no"?>
<svg width="284px" height="83px" viewBox="0 0 284 83" version="1.1" xmlns="http://www.w3.org/2000/svg" xmlns:xlink="http://www.w3.org/1999/xlink" xmlns:sketch="http://www.bohemiancoding.com/sketch/ns">
    <!-- Generator: Sketch 3.3.3 (12072) - http://www.bohemiancoding.com/sketch -->
    <title>Splash</title>
    <desc>Created with Sketch.</desc>
    <defs></defs>
    <g id="Page-1" stroke="none" stroke-width="1" fill="none" fill-rule="evenodd" sketch:type="MSPage">
        <g id="Artboard-3-Copy" sketch:type="MSArtboardGroup" transform="translate(-339.000000, -1398.000000)" fill="#000000">
            <g id="Arithmetic-Copy" sketch:type="MSLayerGroup" transform="translate(0.000000, 2.000000)">
                <g id="background-elements" sketch:type="MSShapeGroup">
                    <g id="Type" transform="translate(245.000000, 1066.000000)">
                        <path d="M121.812,392.148 C140.18,392.148 147.806,383.456 147.806,372.878 C147.806,364.842 140.426,360.988 133.292,358.528 C128.946,356.97 125.42,356.15 125.42,354.346 C125.42,352.952 126.732,351.886 129.93,351.886 C134.604,351.886 140.508,354.92 144.362,359.348 C144.854,359.84 152.07,355.576 152.07,348.852 C152.07,346.474 151.168,344.342 149.364,342.538 C145.838,339.012 139.442,336.798 130.094,336.798 C112.382,336.798 105.74,346.474 105.74,355.986 C105.74,365.088 112.792,368.532 118.86,370.746 C122.714,372.058 125.584,372.878 125.584,374.6 C125.584,376.24 124.272,377.06 121.484,377.06 C116.154,377.06 109.102,373.534 105.33,369.844 C104.838,369.352 98.524,373.616 98.524,379.356 C98.524,381.898 99.508,384.276 101.558,386.326 C105.084,389.852 111.644,392.148 121.812,392.148 L121.812,392.148 Z M154.53,406.744 L156.498,406.744 C161.418,406.744 163.878,404.448 165.354,397.478 L167.896,385.752 C170.602,390.098 174.948,391.984 180.278,391.984 C192.906,391.984 200.696,379.192 200.696,365.826 C200.696,355.33 194.382,348.77 185.362,348.77 C178.884,348.77 174.128,352.706 171.914,358.036 C171.012,351.886 166.42,349.426 161.746,349.426 C158.63,349.426 156.17,350.328 156.088,350.738 L146.166,397.478 C144.608,404.612 149.364,406.744 154.53,406.744 L154.53,406.744 Z M177.244,363.53 C180.77,363.53 182.328,365.908 182.328,369.106 C182.328,373.698 180.114,377.552 176.096,377.552 C171.914,377.552 170.192,374.436 171.34,369.106 L172.078,365.826 C173.472,364.35 175.358,363.53 177.244,363.53 L177.244,363.53 Z M214.964,392.066 C223.492,392.066 225.296,387.556 225.132,387.392 C222.59,386.244 221.77,384.194 222.918,379.028 L230.79,341.882 C232.348,334.748 227.592,332.616 222.426,332.616 L220.458,332.616 C215.538,332.616 213.078,334.912 211.602,341.882 L203.894,378.208 C202.336,385.67 204.304,392.066 214.964,392.066 L214.964,392.066 Z M270.15,392.066 C278.268,392.066 280.072,387.556 279.908,387.392 C277.366,386.244 276.546,384.194 277.694,379.028 L283.516,351.722 C283.68,350.984 280.728,349.426 277.038,349.426 C271.134,349.426 267.198,351.394 264.574,355.904 C262.278,350.984 257.194,348.77 252.356,348.77 C239.318,348.77 230.544,362.054 230.544,375.83 C230.544,385.506 236.202,391.984 245.058,391.984 C251.454,391.984 256.456,388.458 259.08,383.62 C259.654,388.622 263.016,392.066 270.15,392.066 L270.15,392.066 Z M253.586,377.224 C250.634,377.224 248.912,375.092 248.912,372.304 C248.912,367.384 251.782,363.202 256.21,363.202 C258.834,363.202 260.146,364.596 261.13,366.564 L260.228,370.992 C259.326,375.256 256.702,377.224 253.586,377.224 L253.586,377.224 Z M302.868,391.82 C315.578,391.82 321.892,386.08 321.892,378.044 C321.892,370.992 316.152,367.958 309.428,365.17 C307.05,364.186 305.246,363.448 305.246,362.546 C305.246,361.726 306.066,361.152 307.542,361.152 C311.806,361.152 316.152,364.268 319.186,367.548 C319.514,367.876 325.008,365.416 325.008,359.676 C325.008,357.544 324.188,355.904 322.958,354.674 C319.432,351.148 313.282,349.016 305.984,349.016 C293.602,349.016 287.698,355.576 287.698,363.202 C287.698,371.074 293.52,373.862 299.096,376.322 C300.818,377.06 301.966,377.716 301.966,378.454 C301.966,379.438 301.474,379.766 300.08,379.766 C296.062,379.766 290.486,376.814 287.206,373.698 C286.796,373.288 282.122,375.83 282.122,380.668 C282.122,382.882 283.188,384.85 284.828,386.49 C287.862,389.524 293.93,391.82 302.868,391.82 L302.868,391.82 Z M361.99,392.066 C371.42,392.066 373.47,385.916 373.224,385.834 C371.174,385.26 370.108,384.112 370.108,381.652 C370.108,380.012 370.928,376.814 371.994,372.96 C373.552,367.466 374.29,364.268 374.29,361.398 C374.29,353.772 369.944,348.77 362.728,348.77 C356.742,348.77 351.822,352.132 348.788,356.806 L351.986,341.882 C353.544,334.748 348.788,332.616 343.622,332.616 L341.654,332.616 C336.734,332.616 334.274,334.912 332.798,341.882 L324.27,382.144 C322.794,389.278 327.468,391.41 332.634,391.41 L334.602,391.41 C339.522,391.41 341.982,389.114 343.458,382.144 L346.984,365.662 C348.132,364.596 349.034,364.104 350.674,364.104 C352.888,364.104 354.036,365.416 354.036,367.548 C354.036,368.614 353.544,370.828 352.642,374.108 C351.248,379.028 350.838,380.914 350.838,383.374 C350.838,388.54 353.954,392.066 361.99,392.066 L361.99,392.066 Z" id="Splash"></path>
                    </g>
                </g>
            </g>
        </g>
    </g>
</svg>