<?xml version="1.0" encoding="utf-8"?>
<!-- Generator: Adobe Illustrator 18.1.1, SVG Export Plug-In . SVG Version: 6.00 Build 0)  -->
<svg version="1.1" id="Layer_1" xmlns="http://www.w3.org/2000/svg" xmlns:xlink="http://www.w3.org/1999/xlink" x="0px" y="0px"
	 viewBox="0 0 45 24" enable-background="new 0 0 45 24" xml:space="preserve">
<g>
	<defs>
		<rect id="SVGID_1_" x="1.3" y="0.2" width="41.9" height="23.7"/>
	</defs>
	<clipPath id="SVGID_2_">
		<use xlink:href="#SVGID_1_"  overflow="visible"/>
	</clipPath>
	<path clip-path="url(#SVGID_2_)" fill="#989798" d="M43.2,11.9C43.2,11.9,43.2,11.9,43.2,11.9C43.2,11.8,43.2,11.8,43.2,11.9
		c0-0.1,0-0.1,0-0.1c0,0,0,0,0,0v0c-0.1-0.3-0.2-0.6-0.4-0.9c-1.3-1.6-2.9-3-4.5-4.3c-3.5-2.8-7.5-5.1-11.8-6
		C23.8,0,21.2,0,18.7,0.5c-2.3,0.4-4.6,1.3-6.6,2.3c-3.3,1.7-6.3,4-8.9,6.6c-0.5,0.5-1,1-1.4,1.5c-0.6,0.7-0.6,1.5,0,2.2
		c1.3,1.6,2.9,3,4.5,4.3c3.5,2.8,7.5,5.1,11.8,6c2.5,0.5,5.1,0.6,7.6,0.1c2.3-0.4,4.6-1.3,6.6-2.3c3.3-1.7,6.3-4,8.9-6.6
		c0.5-0.5,1-1,1.4-1.5c0.2-0.2,0.4-0.5,0.4-0.9v0c0,0,0,0,0,0c0,0,0,0,0,0c0,0,0,0,0,0c0,0,0,0,0,0C43.2,12,43.2,12,43.2,11.9
		C43.2,12,43.2,11.9,43.2,11.9 M22.3,20c-4.4,0-8.1-3.6-8.1-8.1s3.6-8.1,8.1-8.1s8.1,3.6,8.1,8.1S26.7,20,22.3,20"/>
	<path clip-path="url(#SVGID_2_)" fill="#989798" d="M24.9,12c0,3.6-5.3,3.6-5.3,0C19.6,8.4,24.9,8.4,24.9,12"/>
</g>
</svg>
