<?xml version="1.0" encoding="utf-8"?>
<!-- Generator: Adobe Illustrator 18.1.1, SVG Export Plug-In . SVG Version: 6.00 Build 0)  -->
<svg version="1.1" id="Layer_1" xmlns="http://www.w3.org/2000/svg" xmlns:xlink="http://www.w3.org/1999/xlink" x="0px" y="0px"
	 viewBox="0 0 32 32" enable-background="new 0 0 32 32" xml:space="preserve">
<g>
	<defs>
		<rect id="SVGID_1_" width="32" height="32"/>
	</defs>
	<clipPath id="SVGID_2_">
		<use xlink:href="#SVGID_1_"  overflow="visible"/>
	</clipPath>
	<path clip-path="url(#SVGID_2_)" fill="#989798" d="M32,2.3C32,1,31,0,29.7,0H2.3C1,0,0,1,0,2.3v27.4C0,31,1,32,2.3,32h27.4
		c1.3,0,2.3-1,2.3-2.3V2.3z M25.7,24.2H7.1c-0.5,0-0.7-0.5-0.4-0.9l5.4-7.7c0.3-0.4,0.8-0.5,1.2-0.1l1.1,1.1
		c0.4,0.4,0.9,0.3,1.2-0.1l2.6-3.2c0.3-0.4,0.8-0.4,1.1,0l6.8,10C26.4,23.7,26.3,24.2,25.7,24.2 M24.4,14.8c-1.2,0-2.2-1-2.2-2.2
		c0-1.2,1-2.2,2.2-2.2c1.2,0,2.2,1,2.2,2.2C26.7,13.8,25.7,14.8,24.4,14.8"/>
</g>
</svg>
