<?xml version="1.0" encoding="utf-8"?>
<!-- Generator: Adobe Illustrator 18.1.1, SVG Export Plug-In . SVG Version: 6.00 Build 0)  -->
<svg version="1.1" id="Layer_1" xmlns="http://www.w3.org/2000/svg" xmlns:xlink="http://www.w3.org/1999/xlink" x="0px" y="0px"
	 viewBox="0 0 32 32" enable-background="new 0 0 32 32" xml:space="preserve">
<g>
	<defs>
		<rect id="SVGID_1_" x="1" y="1" width="30" height="30"/>
	</defs>
	<clipPath id="SVGID_2_">
		<use xlink:href="#SVGID_1_"  overflow="visible"/>
	</clipPath>
	<path clip-path="url(#SVGID_2_)" fill="#989798" d="M24.4,31c-1.7,0-3.4-0.6-4.6-1.9L2.9,12.2C1.7,11,1,9.3,1,7.6
		c0-1.8,0.7-3.4,1.9-4.6c2.6-2.6,6.7-2.6,9.3,0c0.6,0.6,0.6,1.7,0,2.3c-0.6,0.6-1.7,0.6-2.3,0C8.6,4,6.5,4,5.2,5.2
		c-0.6,0.6-1,1.4-1,2.3c0,0.9,0.3,1.7,1,2.3l16.9,16.9c1.3,1.3,3.4,1.3,4.6,0c0.6-0.6,1-1.4,1-2.3c0-0.9-0.3-1.7-1-2.3L14.6,10
		c-0.2-0.2-0.5-0.2-0.6-0.2c-0.1,0-0.4,0-0.6,0.2c-0.3,0.3-0.3,0.8,0,1.2l8.3,8.3c0.6,0.6,0.6,1.7,0,2.3c-0.6,0.6-1.7,0.6-2.3,0
		l-8.3-8.3c-1.6-1.6-1.6-4.2,0-5.8c0.8-0.8,1.8-1.2,2.9-1.2s2.1,0.4,2.9,1.2l12.2,12.2c2.6,2.6,2.6,6.7,0,9.3
		C27.8,30.4,26.1,31,24.4,31"/>
</g>
</svg>
