<?xml version="1.0" encoding="utf-8"?>
<!-- Generator: Adobe Illustrator 18.1.1, SVG Export Plug-In . SVG Version: 6.00 Build 0)  -->
<svg version="1.1" id="Layer_1" xmlns="http://www.w3.org/2000/svg" xmlns:xlink="http://www.w3.org/1999/xlink" x="0px" y="0px"
	 viewBox="0 0 32 32" enable-background="new 0 0 32 32" xml:space="preserve">
<g>
	<defs>
		<rect id="SVGID_1_" x="0.3" y="1.6" width="31.3" height="28.7"/>
	</defs>
	<clipPath id="SVGID_2_">
		<use xlink:href="#SVGID_1_"  overflow="visible"/>
	</clipPath>
	<path clip-path="url(#SVGID_2_)" fill="#989798" d="M30.8,17.3H19.9c-0.5,0-0.9,0.4-0.9,0.9c0,0.2,0.1,0.5,0.3,0.6l7.6,7.6l0,0
		c0.2,0.2,0.4,0.3,0.6,0.3c0.3,0,0.6-0.2,0.7-0.4c1.9-2.2,3.1-5,3.3-8c0,0,0-0.1,0-0.2C31.7,17.6,31.3,17.3,30.8,17.3"/>
	<path clip-path="url(#SVGID_2_)" fill="#989798" d="M16.9,15.4H29h0c0.5,0,0.9-0.4,0.9-0.9c-0.4-6.9-6-12.5-12.9-12.9l0,0
		c-0.5,0-0.9,0.4-0.9,0.9v12.1C16.1,15.1,16.4,15.4,16.9,15.4"/>
	<path clip-path="url(#SVGID_2_)" fill="#989798" d="M23.3,25.7L23.3,25.7C23.3,25.7,23.3,25.7,23.3,25.7l-8.9-8.9v0
		c-0.1-0.2-0.2-0.4-0.2-0.6h0V3.6c0-0.5-0.4-0.9-0.9-0.9l0,0c-7.2,0.4-13,6.4-13,13.8c0,7.6,6.2,13.8,13.8,13.8
		c3.5,0,6.7-1.3,9.1-3.4v0c0.2-0.2,0.3-0.4,0.3-0.7C23.5,26.1,23.5,25.8,23.3,25.7"/>
</g>
</svg>
