<?xml version="1.0" encoding="utf-8"?>
<!-- Generator: Adobe Illustrator 19.0.0, SVG Export Plug-In . SVG Version: 6.00 Build 0)  -->
<svg version="1.1" id="Layer_1" xmlns="http://www.w3.org/2000/svg" xmlns:xlink="http://www.w3.org/1999/xlink" x="0px" y="0px"
	 viewBox="0 0 102.5 108.5" enable-background="new 0 0 102.5 108.5" xml:space="preserve">
<path id="XMLID_68_" fill="#231F20" d="M428.1,354.5c0,1.7,1.3,3.1,3,3.1c1.7,0,3-1.4,3-3.1v-12.2h16.4v12.2c0,1.7,1.3,3.1,3,3.1
	c1.7,0,3-1.4,3-3.1v-30c0-1.7-1.3-3.1-3-3.1c-1.7,0-3,1.4-3,3.1v12h-16.4v-12c0-1.7-1.3-3.1-3-3.1c-1.7,0-3,1.4-3,3.1V354.5z"/>
<path id="XMLID_60_" fill="#231F20" d="M407.8,289.7l-12,13.5v86h81.1V382h5l4.7-5h-9.6v-2.1h12v-85.2H407.8z M412.6,294.7h71.5
	v75.2h-7.2V304h-64.3V294.7z M407.8,297.6v6.4h-5.9L407.8,297.6z M412.6,309.1h59.5v60.8h-59.5V309.1z M400.6,309.1h7.2v65.1
	l-7.2,7.7V309.1z M413.8,374.9h58.3v2.1h-60.3L413.8,374.9z M407.2,382h64.9v2.2h-67L407.2,382z"/>
<path id="XMLID_52_" fill="#231F20" d="M543.3,282.9v-85.2h-12v-2.1h9.6l-4.7-5h-5v-7.2h-81.1v86l12,13.5H543.3z M467,268.5h64.3
	v-65.9h7.2v75.2H467V268.5z M456.3,268.5h5.9v6.4L456.3,268.5z M467,202.7h59.5v60.8H467V202.7z M455,190.7l7.2,7.7v65.1H455V190.7z
	 M466.2,195.6h60.3v2.1h-58.3L466.2,195.6z M459.5,188.3h67v2.2h-64.9L459.5,188.3z"/>
<path id="XMLID_44_" fill="#231F20" d="M-177,118.3v85.2h12v2.1h-9.6l4.7,5h5v7.2H-84v-86l-12-13.5H-177z M-100.7,132.6H-165v65.9
	h-7.2v-75.2h71.5V132.6z M-90.1,132.6h-5.9v-6.4L-90.1,132.6z M-100.7,198.5h-59.5v-60.8h59.5V198.5z M-88.8,210.5l-7.2-7.7v-65.1
	h7.2V210.5z M-99.9,205.6h-60.3v-2.1h58.3L-99.9,205.6z M-93.3,212.9h-67v-2.2h64.9L-93.3,212.9z"/>
<path id="XMLID_36_" fill="#231F20" d="M543.3,282.9v-85.2h-12v-2.1h9.6l-4.7-5h-5v-7.2h-81.1v86l12,13.5H543.3z M467,268.5h64.3
	v-65.9h7.2v75.2H467V268.5z M456.3,268.5h5.9v6.4L456.3,268.5z M467,202.7h59.5v60.8H467V202.7z M455,190.7l7.2,7.7v65.1H455V190.7z
	 M466.2,195.6h60.3v2.1h-58.3L466.2,195.6z M459.5,188.3h67v2.2h-64.9L459.5,188.3z"/>
<path id="XMLID_28_" fill="#CCCCCC" d="M4.7,4.5v85.2h12v2.1H7.1l4.7,5h5v7.2h81.1V18l-12-13.5H4.7z M81,18.8H16.7v65.9H9.5V9.5H81
	V18.8z M91.7,18.8h-5.9v-6.4L91.7,18.8z M81,84.7H21.5V23.8H81V84.7z M93,96.7l-7.2-7.7V23.8H93V96.7z M81.8,91.8H21.5v-2.1h58.3
	L81.8,91.8z M88.5,99h-67v-2.2h64.9L88.5,99z"/>
<path id="XMLID_20_" fill="#231F20" d="M508.7,233.1l-12,13.5v86h81.1v-7.2h5l4.7-5h-9.6v-2.1h12v-85.2H508.7z M513.5,238.1H585
	v75.2h-7.2v-65.9h-64.3V238.1z M508.7,241.1v6.4h-5.9L508.7,241.1z M513.5,252.5H573v60.8h-59.5V252.5z M501.5,252.5h7.2v65.1
	l-7.2,7.7V252.5z M514.7,318.3H573v2.1h-60.3L514.7,318.3z M508.1,325.5H573v2.2h-67L508.1,325.5z"/>
<path id="XMLID_12_" fill="#231F20" d="M237.3,217.8v-85.2h-12v-2.1h9.6l-4.7-5h-5v-7.2h-81.1v86l12,13.5H237.3z M161,203.5h64.3
	v-65.9h7.2v75.2H161V203.5z M150.3,203.5h5.9v6.4L150.3,203.5z M161,137.6h59.5v60.8H161V137.6z M149,125.7l7.2,7.7v65.1H149V125.7z
	 M160.2,130.5h60.3v2.1h-58.3L160.2,130.5z M153.5,123.3h67v2.2h-64.9L153.5,123.3z"/>
<path id="XMLID_4_" fill="#231F20" d="M496.7,348.9v85.2h12v2.1h-9.6l4.7,5h5v7.2h81.1v-86l-12-13.5H496.7z M573,363.2h-64.3v65.9
	h-7.2v-75.2H573V363.2z M583.7,363.2h-5.9v-6.4L583.7,363.2z M573,429.1h-59.5v-60.8H573V429.1z M585,441.1l-7.2-7.7v-65.1h7.2
	V441.1z M573.8,436.2h-60.3v-2.1h58.3L573.8,436.2z M580.5,443.4h-67v-2.2h64.9L580.5,443.4z"/>
<g id="XMLID_166_">
	<defs>
		<rect id="XMLID_105_" x="297.5" y="-34.1" width="188.9" height="139.2"/>
	</defs>
	<clipPath id="XMLID_167_">
		<use xlink:href="#XMLID_105_"  overflow="visible"/>
	</clipPath>
	<g id="XMLID_168_" clip-path="url(#XMLID_167_)">
		<defs>
			<rect id="XMLID_106_" x="297.5" y="-34.1" width="188.9" height="139.2"/>
		</defs>
		<clipPath id="XMLID_169_">
			<use xlink:href="#XMLID_106_"  overflow="visible"/>
		</clipPath>
		<g id="XMLID_170_" opacity="0.2" clip-path="url(#XMLID_169_)">
			<g id="XMLID_171_">
				<defs>
					<rect id="XMLID_107_" x="291.1" y="-39.1" width="201.8" height="144.6"/>
				</defs>
				<clipPath id="XMLID_172_">
					<use xlink:href="#XMLID_107_"  overflow="visible"/>
				</clipPath>
				<path id="XMLID_164_" clip-path="url(#XMLID_172_)" fill="#231F20" d="M343.7,55.8c0,0.9,0.7,1.6,1.6,1.6c0.9,0,1.6-0.7,1.6-1.6
					v-6.4h8.6v6.4c0,0.9,0.7,1.6,1.6,1.6c0.9,0,1.6-0.7,1.6-1.6V40c0-0.9-0.7-1.6-1.6-1.6c-0.9,0-1.6,0.7-1.6,1.6v6.3h-8.6V40
					c0-0.9-0.7-1.6-1.6-1.6c-0.9,0-1.6,0.7-1.6,1.6V55.8z"/>
				<path id="XMLID_229_" clip-path="url(#XMLID_172_)" fill="#231F20" d="M333.1,21.8l-6.3,7.1V74h42.6v-3.8h2.6l2.4-2.6h-5v-1.1
					h6.3V21.8H333.1z M335.6,24.4h37.5v39.5h-3.8V29.3h-33.8V24.4z M333.1,25.9v3.4H330L333.1,25.9z M335.6,31.9h31.3v32h-31.3V31.9
					z M329.3,31.9h3.8v34.2l-3.8,4.1V31.9z M336.2,66.5h30.6v1.1h-31.7L336.2,66.5z M332.7,70.3h34.1v1.2h-35.2L332.7,70.3z"/>
				<path id="XMLID_221_" clip-path="url(#XMLID_172_)" fill="#231F20" d="M404.2,18.2v-44.7h-6.3v-1.1h5l-2.4-2.6h-2.6v-3.8h-42.6
					v45.2l6.3,7.1H404.2z M364.1,10.6h33.8v-34.6h3.8v39.5h-37.5V10.6z M358.5,10.6h3.1V14L358.5,10.6z M364.1-23.9h31.3V8h-31.3
					V-23.9z M357.8-30.2l3.8,4.1V8h-3.8V-30.2z M363.7-27.7h31.7v1.1h-30.6L363.7-27.7z M360.2-31.5h35.2v1.2h-34.1L360.2-31.5z"/>
				<path id="XMLID_213_" clip-path="url(#XMLID_172_)" fill="#231F20" d="M297.5-34.1v44.7h6.3v1.1h-5l2.4,2.6h2.6v3.8h42.6V-27
					l-6.3-7.1H297.5z M337.6-26.6h-33.8V8h-3.8v-39.5h37.5V-26.6z M343.2-26.6h-3.1v-3.4L343.2-26.6z M337.6,8h-31.3v-32h31.3V8z
					 M343.9,14.3l-3.8-4.1v-34.2h3.8V14.3z M338,11.8h-31.7v-1.1H337L338,11.8z M341.5,15.6h-35.2v-1.2h34.1L341.5,15.6z"/>
				<path id="XMLID_205_" clip-path="url(#XMLID_172_)" fill="#231F20" d="M404.2,18.2v-44.7h-6.3v-1.1h5l-2.4-2.6h-2.6v-3.8h-42.6
					v45.2l6.3,7.1H404.2z M364.1,10.6h33.8v-34.6h3.8v39.5h-37.5V10.6z M358.5,10.6h3.1V14L358.5,10.6z M364.1-23.9h31.3V8h-31.3
					V-23.9z M357.8-30.2l3.8,4.1V8h-3.8V-30.2z M363.7-27.7h31.7v1.1h-30.6L363.7-27.7z M360.2-31.5h35.2v1.2h-34.1L360.2-31.5z"/>
				<path id="XMLID_197_" clip-path="url(#XMLID_172_)" fill="#231F20" d="M297.5-34.1v44.7h6.3v1.1h-5l2.4,2.6h2.6v3.8h42.6V-27
					l-6.3-7.1H297.5z M337.6-26.6h-33.8V8h-3.8v-39.5h37.5V-26.6z M343.2-26.6h-3.1v-3.4L343.2-26.6z M337.6,8h-31.3v-32h31.3V8z
					 M343.9,14.3l-3.8-4.1v-34.2h3.8V14.3z M338,11.8h-31.7v-1.1H337L338,11.8z M341.5,15.6h-35.2v-1.2h34.1L341.5,15.6z"/>
				<path id="XMLID_189_" clip-path="url(#XMLID_172_)" fill="#231F20" d="M386-8l-6.3,7.1v45.2h42.6v-3.8h2.6l2.4-2.6h-5v-1.1h6.3
					V-8H386z M388.6-5.3h37.5v39.5h-3.8V-0.4h-33.8V-5.3z M386-3.8v3.4H383L386-3.8z M388.6,2.2h31.3v32h-31.3V2.2z M382.3,2.2h3.8
					v34.2l-3.8,4.1V2.2z M389.2,36.8h30.6v1.1h-31.7L389.2,36.8z M385.7,40.5h34.1v1.2h-35.2L385.7,40.5z"/>
				<path id="XMLID_181_" clip-path="url(#XMLID_172_)" fill="#231F20" d="M486.4,105.1V60.4h-6.3v-1.1h5l-2.4-2.6h-2.6v-3.8h-42.6
					V98l6.3,7.1H486.4z M446.3,97.6h33.8V63h3.8v39.5h-37.5V97.6z M440.8,97.6h3.1v3.4L440.8,97.6z M446.3,63h31.3v32h-31.3V63z
					 M440.1,56.7l3.8,4.1V95h-3.8V56.7z M445.9,59.3h31.7v1.1H447L445.9,59.3z M442.4,55.5h35.2v1.2h-34.1L442.4,55.5z"/>
				<path id="XMLID_173_" clip-path="url(#XMLID_172_)" fill="#231F20" d="M379.8,52.8v44.7h6.3v1.1h-5l2.4,2.6h2.6v3.8h42.6V60
					l-6.3-7.1H379.8z M419.8,60.4H386V95h-3.8V55.5h37.5V60.4z M425.4,60.4h-3.1V57L425.4,60.4z M419.8,95h-31.3V63h31.3V95z
					 M426.1,101.3l-3.8-4.1V63h3.8V101.3z M420.2,98.7h-31.7v-1.1h30.6L420.2,98.7z M423.7,102.5h-35.2v-1.2h34.1L423.7,102.5z"/>
			</g>
		</g>
	</g>
</g>
</svg>
