<?xml version="1.0" encoding="utf-8"?>
<!-- Generator: Adobe Illustrator 18.1.1, SVG Export Plug-In . SVG Version: 6.00 Build 0)  -->
<svg version="1.1" id="Layer_1" xmlns="http://www.w3.org/2000/svg" xmlns:xlink="http://www.w3.org/1999/xlink" x="0px" y="0px"
	 viewBox="0 0 200 200" enable-background="new 0 0 200 200" xml:space="preserve">
<circle fill="#2AABE1" cx="100" cy="100" r="94.9"/>
<g>
	<defs>
		<rect id="SVGID_1_" x="41.4" y="62.9" width="117.3" height="74.2"/>
	</defs>
	<clipPath id="SVGID_2_">
		<use xlink:href="#SVGID_1_"  overflow="visible"/>
	</clipPath>
	<path clip-path="url(#SVGID_2_)" fill="#FFFFFF" d="M114.6,92.6c0.2-2.9,0.4-5.8,0.8-8.6c0.7-4.3,8.8-12.8,7.3-2.8
		c-0.5,3.6-3.1,6.4-5.5,8.8C116.4,90.9,115.5,91.7,114.6,92.6 M157.2,129.2c-10.5-10.6-22.2-19.5-35.1-26.7c5.8-7,13.3-12,14.7-21.9
		c1.3-8.7-6.4-17.4-15.5-16.2c-5.5,0.7-9.6,2.7-12.7,5.7c-0.1-0.8-0.2-1.6-0.3-2.4c-0.7-7-14.7-6.1-14,0.9c0.7,6.7,1.5,13.4,2.4,20
		c-0.5,0.1-0.9,0.4-1.5,0.7c-3.8,2.7-7.7,4.9-11.8,6.7c-1.4-9.6-2.7-19.2-4.1-28.8c-0.9-6.6-14.7-5.6-13.7,1.9
		c1.5,10.4,2.9,20.7,4.4,31.1c-3.2,0.7-6.5,1.1-9.9,1.2c-1.6-10.7-3.2-21.4-4.8-32.2c-1-7-15-5.1-13.9,1.8
		c2.8,18.7,5.6,37.4,8.4,56.1c1,7,15,5.1,13.9-1.8c-0.5-3.4-1-6.8-1.5-10.2c3.3-0.3,6.6-0.7,9.8-1.4c0.6,4.5,1.3,9,1.9,13.5
		c0.9,6.6,14.7,5.6,13.7-1.9c-0.7-5.3-1.5-10.6-2.2-15.9c4.5-2,8.9-4.4,13.1-7.4c0,0,0.1-0.1,0.1-0.1c1.5,9.6,3.2,19.2,5.1,28.7
		c1.4,6.8,15.1,6,14-0.9c-0.9-5.9-1.8-11.9-2.4-17.9c11,6.5,21.1,14.1,30.2,23.3C150.1,139.9,162.9,134.9,157.2,129.2"/>
</g>
<g>
	<defs>
		<rect id="SVGID_3_" x="-188" y="36.3" width="106.6" height="127.4"/>
	</defs>
	<clipPath id="SVGID_4_">
		<use xlink:href="#SVGID_3_"  overflow="visible"/>
	</clipPath>
	<path clip-path="url(#SVGID_4_)" fill="#232428" d="M-140.8,133.2h-28.7c1.5-0.4,3.3-0.1,4.7-0.1c3.3,0,6.6,0,9.8,0
		c3.3,0,6.5,0,9.8,0c1.1,0,2.1,0,3.2,0C-141.6,133.1-141,133.1-140.8,133.2"/>
	<path clip-path="url(#SVGID_4_)" fill="#232428" d="M-140.8,155c-0.2,0-0.5,0-0.7,0.1c0,0-0.1,0-0.1,0c-0.6,0-1.1,0-1.7,0
		c-0.5,0-1.1,0-1.6,0c-3,0-6,0-9,0h-4.9c-1.9,0-3.8,0-5.7,0c-1.4,0-3.1,0.2-4.6,0c0,0-0.1,0-0.1,0c0,0-0.1,0-0.1,0h1
		C-159.3,155.1-149.9,155-140.8,155"/>
	<path clip-path="url(#SVGID_4_)" fill="#232428" d="M-160.9,124.5h-0.7c-2,0-3.8,0-5.3,0h23.4
		C-149.6,124.5-155.9,124.5-160.9,124.5"/>
	<path clip-path="url(#SVGID_4_)" fill="#232428" d="M-159.9,124.5h-7.1c1.5,0,3.3,0,5.3,0h0.7
		C-160.6,124.5-160.3,124.5-159.9,124.5"/>
	<path clip-path="url(#SVGID_4_)" fill="#232428" d="M-158.7,155.1c-1.9,0-3.8,0-5.7,0c-1.4,0-3.1,0.2-4.6,0c0,0-0.1,0-0.1,0
		c0,0-0.1,0-0.1,0h1c0.2,0,0.5,0,0.7,0C-166.5,155.1-163.3,155.1-158.7,155.1"/>
	<path clip-path="url(#SVGID_4_)" fill="#232428" d="M-140.8,133.2h-28.7c1.5-0.4,3.3-0.1,4.7-0.1c3.3,0,6.6,0,9.8,0
		c3.3,0,6.5,0,9.8,0c1.1,0,2.1,0,3.2,0C-141.6,133.1-141,133.1-140.8,133.2"/>
	<path clip-path="url(#SVGID_4_)" fill="#FFFFFF" d="M-172.6,147.3c0.7-1.9,2.4-2.2,4.2-2.2h77.9c0.5,0,1,0,1.5,0.1
		c3.7,0.8,3.1,6.5-0.7,6.5h-79.8C-171.7,151.7-173.4,149.4-172.6,147.3"/>
	<path clip-path="url(#SVGID_4_)" fill="#FFFFFF" d="M-172.6,138.5c0.7-1.9,2.4-2.2,4.2-2.2h77.9c0.5,0,1,0,1.5,0.1
		c3.7,0.8,3.1,6.5-0.7,6.5h-79.8C-171.7,142.9-173.4,140.6-172.6,138.5"/>
	<path clip-path="url(#SVGID_4_)" fill="#FFFFFF" d="M-116.2,81.1c0.1-2.3,0.3-4.6,0.7-6.8c0.5-3.4,6.9-10.1,5.8-2.2
		c-0.4,2.8-2.5,5-4.4,7C-114.8,79.7-115.5,80.4-116.2,81.1 M-89.9,44.8v58.4c-6.3-5.4-13.1-10.2-20.4-14.3
		c4.6-5.5,10.5-9.5,11.6-17.3c1-6.9-5.1-13.7-12.3-12.8c-4.3,0.6-7.6,2.2-10.1,4.5c-0.1-0.6-0.1-1.3-0.2-1.9
		c-0.6-5.5-11.6-4.8-11.1,0.7c0.5,5.3,1.2,10.6,1.9,15.8c-0.4,0.1-0.7,0.3-1.2,0.6c-3,2.1-6.1,3.9-9.3,5.3
		c-1.1-7.6-2.1-15.2-3.2-22.7c-0.7-5.2-11.7-4.4-10.8,1.5c1.2,8.2,2.3,16.4,3.5,24.6c-2.6,0.5-5.2,0.8-7.8,0.9
		c-1.3-8.5-2.5-17-3.8-25.4c-0.8-5.5-11.8-4-11,1.4c2.2,14.8,4.4,29.5,6.6,44.3c0.8,5.5,11.8,4,11-1.4c-0.4-2.7-0.8-5.4-1.2-8.1
		c2.6-0.2,5.2-0.6,7.7-1.1c0.5,3.6,1,7.1,1.5,10.7c0.7,5.2,11.7,4.4,10.8-1.5c-0.6-4.2-1.2-8.4-1.8-12.5c3.6-1.5,7.1-3.5,10.4-5.8
		c0,0,0.1-0.1,0.1-0.1c1.2,7.6,2.5,15.2,4,22.7c1.1,5.4,11.9,4.8,11.1-0.7c-0.7-4.7-1.4-9.4-1.9-14.2c8.7,5.1,16.7,11.2,23.9,18.4
		c0.5,0.5,1.2,0.9,1.9,1.1v8.6H-167c1.5,0,3.3,0,5.3,0c-3.3-0.1-6.7-0.2-9.9,0.1c-2.8,0.3-5.5,1.4-7.9,3.1V44.8H-89.9z M-81.4,125.7
		V40.4c0-0.1,0-0.2,0-0.3c0-0.1,0-0.2,0-0.3c-0.1-0.5-0.2-0.9-0.4-1.3c-0.2-0.3-0.4-0.6-0.6-0.8c-0.2-0.2-0.3-0.3-0.5-0.5
		c-0.1-0.1-0.3-0.2-0.5-0.3c-0.5-0.3-1-0.4-1.5-0.5c-0.2,0-0.4-0.1-0.6-0.1h-87.3h-9.4c-0.3,0-0.6,0-0.9,0c-1.7,0.1-3.4,0.6-4.2,2
		c0,0.1-0.1,0.2-0.1,0.2c-0.1,0.1-0.1,0.3-0.2,0.4c-0.1,0.2-0.2,0.5-0.2,0.8c0,0.1,0,0.3-0.1,0.4c0,0.2,0,0.3,0,0.5c0,0,0,0,0,0.1
		c0,0.3,0,0.5,0,0.7v97.6c0,0.7,0.1,1.4,0.2,2.1c-0.8,5.7,0.9,11.7,4.8,16.1c2.2,2.5,5,4.3,8.1,5.5c2,0.7,3.8,0.9,5.8,0.9
		c3.9,0,74.3,0,85.7,0c3.3,0,1.1-4.3,0.1-5.5c-1.6-1.9-3.8-3-6.3-3.1c-0.4,0-29.4,0-52.1,0c0,0-0.1,0-0.1,0c-0.6,0-1.1,0-1.7,0
		h-15.4c-1.9,0-3.8,0-5.7,0c-1.4,0-3.1,0.2-4.6,0c0,0-0.1,0-0.1,0c0,0-0.1,0-0.1,0h1c-8.6-0.6-13.3-11.3-7.5-18.2
		c1.8-2.1,4.4-3.7,7.2-3.7h-1c1.5-0.4,3.3-0.1,4.7-0.1c3.3,0,6.6,0,9.8,0c3.3,0,6.5,0,9.8,0c1.1,0,2.1,0,3.2,0
		c0.3,0,0.9-0.1,1.1,0.1h50.4c4.1,0,7.8-2.3,8.9-6.5c0.1-0.3,0.1-0.6,0.1-0.8C-81.4,125.9-81.4,125.8-81.4,125.7"/>
</g>
<g>
	<defs>
		<rect id="SVGID_5_" x="-182.4" y="203" width="112.9" height="122.5"/>
	</defs>
	<clipPath id="SVGID_6_">
		<use xlink:href="#SVGID_5_"  overflow="visible"/>
	</clipPath>
	<path clip-path="url(#SVGID_6_)" fill="#FFFFFF" d="M-139.3,218.8c2.8,10.5,5.7,21.1,9,32.7c-3,3-6,6-9,9c-3-8.3-6.1-16.4-9.1-24.1
		c-0.8-2-3.1-3.4-5.9-3.4c-2,0-3.7,0.7-4.6,2c-0.7,1-0.8,2.2-0.3,3.4c3.9,10.1,7.8,20.4,11.5,30.6c-5.6,5.8-11.3,11.9-17.2,18.4
		c-4.4-9.8-6.7-22.5-6.1-34.6c0.7-14.1,4.9-25.1,12.4-32.7c4.2-4.2,9.4-6.3,15.9-6.3c1.5,0,3.1,0.1,4.7,0.3
		C-139.1,215.3-139.7,217.1-139.3,218.8 M-143.7,280.2c3.4,9.7,6.6,19.5,9.6,29c-1.1,0-2.1-0.1-3.1-0.2c-8.9-0.8-16.2-4.9-22-12.2
		C-154.5,291.6-149.4,286.1-143.7,280.2 M-127,263c3.1,10.7,6,20.6,8.9,30.1c0.5,1.8,1.9,2.8,3.8,2.8c1.9,0,4.1-1.2,5.3-2.9
		c1-1.4,1.4-2.9,0.9-4.4c-3.4-11.1-6.8-22.6-10.1-34.3c8.7-8.5,17.9-17,27.2-25.4c6.9,14.2,7.8,30.4,2.6,45.6
		c-5.6,16.4-19.2,29.4-34.8,33.4c-3.8-12-7.9-24.3-12.2-36.5C-132.6,268.7-129.8,265.8-127,263 M-69.8,207.2
		c-0.8-2.1-3.5-3.7-6.1-3.7c-1.3,0-2.4,0.4-3.3,1.1c-3,2.5-6.1,5.2-9.6,8.2c-2.4-3.1-5.1-6-7.9-8.5c-1-0.9-2.3-1.4-3.8-1.4
		c-2.5,0-4.8,1.3-5.6,3.2c-0.3,0.7-0.7,2.5,1.4,4.4c3,2.8,5.8,5.8,8.2,9.1c-8.5,7.6-16.9,15.3-25,23.1c-2.7-9.6-5.1-18.3-7.3-26.7
		c3,0.9,5.9,2,8.2,2.9c0.7,0.3,1.4,0.4,2.2,0.4c2.9,0,5.7-1.9,6.2-4.2c0.1-0.6,0.3-2.9-2.9-4.1c-8.3-3.2-18-6.7-27.8-6.7
		c-5.7,0-10.8,1.1-15.7,3.5c-14.4,7-20.1,22.2-22.4,33.8c-5.6,29,4.2,63.9,33.9,74.4c5,1.8,10.4,2.6,15.8,2.5l0.2,0.6
		c0.3,0.9,0.5,1.8,0.8,2.7c0.7,2.5,3.4,3.6,5.8,3.6c1.9,0,3.6-0.7,4.5-1.9c0.7-1,0.9-2.2,0.5-3.4c-0.3-1-0.6-1.9-0.9-2.9l-0.1-0.2
		c15.6-4.1,30.3-15.6,38.6-30.5c11-19.6,10.5-44.3-1.1-64.9c4.3-3.8,8.2-7.1,11.8-10.2C-69.7,210.3-69.2,208.8-69.8,207.2"/>
</g>
</svg>
