<?xml version="1.0" encoding="utf-8"?>
<!-- Generator: Adobe Illustrator 18.1.1, SVG Export Plug-In . SVG Version: 6.00 Build 0)  -->
<svg version="1.1" id="Layer_2" xmlns="http://www.w3.org/2000/svg" xmlns:xlink="http://www.w3.org/1999/xlink" x="0px" y="0px"
	 viewBox="0 0 69.7 80.2" enable-background="new 0 0 69.7 80.2" xml:space="preserve">
<g>
	<defs>
		<rect id="SVGID_1_" x="6.1" y="6.3" width="57.5" height="67.6"/>
	</defs>
	<clipPath id="SVGID_2_">
		<use xlink:href="#SVGID_1_"  overflow="visible"/>
	</clipPath>
	<g clip-path="url(#SVGID_2_)">
		<defs>
			<rect id="SVGID_3_" x="6.1" y="6.3" width="57.5" height="67.6"/>
		</defs>
		<clipPath id="SVGID_4_">
			<use xlink:href="#SVGID_3_"  overflow="visible"/>
		</clipPath>
		<g clip-path="url(#SVGID_4_)">
			<g>
				<defs>
					<rect id="SVGID_5_" x="-0.6" y="1.2" width="70.9" height="73.1"/>
				</defs>
				<clipPath id="SVGID_6_">
					<use xlink:href="#SVGID_5_"  overflow="visible"/>
				</clipPath>
				<path clip-path="url(#SVGID_6_)" fill="#FFCF31" d="M11.9,24.4c0.1-2.8,0.2-5.5,0.3-8.3c0.1-1.4,0.1-2.8,0.2-4.2
					c0.1-1.9,0.4-1.5,2.2-1.5c6.1,0,12.1,0,18.2,0c5.6,0,11.2,0,16.8,0c2.4,0,5.1-0.3,7.5,0.1c2,0.4,0.4,8.2,0.3,9.6
					c-0.4,5.5-0.4,11-0.2,16.4c0.1,2.7,0.4,5.5,0.7,8.2c0.1,1.4,0.3,2.7,0.5,4.1c0.2,1.2,1,2.7-0.4,2.8C46.4,52.7,35,51,23.4,51
					c-4,0-8.5,1-11.9,3.3C11.5,44.3,11.6,34.3,11.9,24.4 M61.8,70c-11.5-0.1-23.1-0.3-34.6-0.4C22.6,69.5,17,70.2,13,67.6
					c-4.9-3.2-0.6-10,3.2-11.7c4.9-2.1,11-0.8,16.1-0.5c6,0.4,12,0.5,18,0.3c3.1-0.1,9.1,0.7,11.6-1.8c3.1-3.1,0.9-8.8,0.5-12.7
					c-0.5-5.5-0.6-11-0.5-16.4c0.1-2.7,0.3-5.5,0.5-8.2c0.2-2.5,0.9-5.1,0.1-7.5c-1.1-3.2-6.4-2.7-8.8-2.7c-6.1,0-12.1,0-18.2,0
					c-5.6,0-11.2,0-16.8,0C16,6.5,9.1,5.3,8,9.2C6.8,13.7,7.3,19,7.1,23.6c-0.2,6-0.3,12-0.4,18c-0.1,6-0.1,12,0,18
					c0,0.2,0,0.4,0.1,0.5c-0.3,0.7-0.5,1.5-0.6,2.4c-1.3,9.2,8.5,10.7,15.5,10.8c11.5,0.1,23.1,0.3,34.6,0.4c1.4,0,2.8,0,4.2,0.1
					C63,73.9,65,70,61.8,70"/>
				<path clip-path="url(#SVGID_6_)" fill="#FFCF31" d="M58.4,62.7c2.5-0.4,2.1-5.3-0.3-5c-13.9,2-28.1,0.1-42-0.9
					c-2.4-0.2-2.2,4.8,0.3,5C30.2,62.8,44.5,64.8,58.4,62.7"/>
				<path clip-path="url(#SVGID_6_)" fill="#FFCF31" d="M16.1,67.9c14.1,1.2,28.1,1.5,42.2,1.2c2.6-0.1,3.8-4.1,0.5-4.1
					c-13.7,0.3-27.4-0.1-41.1-1.2C15.4,63.7,13,67.7,16.1,67.9"/>
				<path clip-path="url(#SVGID_6_)" fill="#FFCF31" d="M29.7,43.1c0-3.2-0.1-6.5-0.1-9.7c3.7,0.1,7.3,0.2,11,0.4
					c0.1,3.4,0.3,6.7,0.7,10.1c0.3,2.9,4.6,0.6,4.4-1.7c-0.8-7.5-1-15.1-0.6-22.6c0.2-3.1-4.2-1.8-4.4,0.7c-0.2,3.3-0.3,6.5-0.2,9.8
					c-3.6-0.1-7.3-0.2-10.9-0.4c0-3.3,0.1-6.6,0.1-10c0.1-2.4-4.8-3-4.9-0.3c-0.2,7.8-0.2,15.7-0.1,23.5
					C24.9,45.2,29.8,45.8,29.7,43.1"/>
			</g>
		</g>
	</g>
</g>
</svg>
