<?xml version="1.0" encoding="utf-8"?>
<!-- Generator: Adobe Illustrator 19.0.0, SVG Export Plug-In . SVG Version: 6.00 Build 0)  -->
<svg version="1.1" id="Layer_1" xmlns="http://www.w3.org/2000/svg" xmlns:xlink="http://www.w3.org/1999/xlink" x="0px" y="0px"
	 viewBox="0 0 273 164.3" enable-background="new 0 0 273 164.3" xml:space="preserve">
<path id="XMLID_6_" fill="#231F20" d="M158.7,82.1c-0.4,0.2-0.8,0.4-1.2,0.5c1,2.4,2,4.8,2.9,7.1c0.5-0.2,1-0.4,1.4-0.6
	C160.8,86.8,159.8,84.4,158.7,82.1 M200,40.2c-0.4-0.1-0.7-0.3-1.1-0.4c-3.4,1.9-6.1,4.5-6.7,8.5c-0.8,5.4-1.6,10.9-1.8,16.4
	c-0.1,6.2,0.3,12.5,0.8,18.8c0.3,3,3.1,4.3,5.5,2.6c1.1-0.8,2-2.5,2.2-3.9c0.7-3.8,0.9-7.6,1.6-11.4c0.2-1.2,1-2.8,1.9-3.3
	c4.3-2.2,8.5-3.4,12.9,0.5c3,2.7,4.3,6.1,2.6,9.9c-0.6,1.2-1.2,2.5-1.6,3.8c-1.3,4.4,1.5,9.1,5.3,8.3c1.6-0.3,3.7-2.2,4-3.7
	c1.5-7,2.4-14,3.5-21.1c0.5-3.1,1.6-6.4,1-9.3c-0.6-2.9-0.7-5.4,0-8.2c0.3-1,0.3-2.5-0.3-3.3c-0.8-1.2-2.2-2-3.5-2.8
	c-0.1-0.1-1.3,1.2-1.7,2.1c-1,2.4-1.9,4.8-2.7,7.3c-1.5,5-4.2,6.7-9.5,6c-2.7-0.4-5.5-0.5-8.3-0.6c-3.4-0.1-6.2-4.1-5.4-7.3
	C199.6,46.1,199.7,43.1,200,40.2 M145.1,70.1v-6.2c0.3-0.7,0.7-1.4,0.9-2.1c2.9-14.5,10.2-26.2,21.6-35.6c7.4-6,16.1-9.5,24.7-13.2
	c8.4-3.5,17.2-3,26-1.2c4.5,0.9,9.4,1,13.6,2.7c6,2.5,11.8,5.8,17.4,9.2c4.3,2.7,8.4,5.7,10.9,10.7c3,6.1,3.8,12.3,3.6,18.9
	c0,1.2,0.7,2.4,1.1,3.6v18.5c-0.7,1.2-1.4,2.4-2,3.7c-1.6,3.6-2.9,7.3-4.8,10.8c-6,11.5-16.4,18.2-27.9,23
	c-5.4,2.3-11.5,3.2-17.3,4.3c-13.7,2.6-27.1,1.5-39.5-4.9c-6.1-3.1-12.2-6.9-16.7-11.9c-7.2-7.9-11.3-17.6-10.9-28.7
	C145.8,71.3,145.3,70.7,145.1,70.1"/>
<path id="XMLID_3_" fill="#231F20" d="M122.4,93.5c-0.9-4.5-1-9.3-2.9-13.4c-2.4-5.1-5.5-10.2-9.6-14c-4.4-4.1-10-7-15.4-9.9
	c-6.5-3.5-14.1-2.4-21.1-3.7c-1.5-0.3-3.1-1.1-4.6-0.9c-8.2,1.1-15.7,4.2-22.7,8.3c-1.8,1-3.1,2.8-4.5,4.3c-2.7,2.8-6.3,5.2-8,8.5
	c-3,5.8-5.4,12.1-7.2,18.5c-1.2,4.2-2.7,8.7-0.8,13.4c1,2.6,1,5.6,1.4,8.4c0.8,5.4,3.4,9.9,7.6,13.3c1.2,1,2.4,2,3.8,2.8
	c4.1,2.4,8,5.4,12.3,7c4.8,1.7,10,2.2,15,3.2c0.9,0.2,2.1,0.4,2.9,0.1c4.2-1.6,8.5-0.4,12.7,0.1c6,0.7,11.5-0.7,16-4.1
	c7.1-5.2,14.4-10.5,18.4-18.9C119.3,109.2,122.6,101.9,122.4,93.5 M69.4,37H73c0.8,0.3,1.7,0.8,2.6,0.8c2.1,0,4.2-0.5,6.2-0.2
	c7.9,1.4,15.2,4.4,22,8.7c10,6.2,18.3,14.3,24.9,23.9c1.7,2.5,2.8,5.4,3.9,8.2c1.4,3.8,2.5,7.7,3.7,11.5v6c-1.3,7-2,14.2-4.8,20.9
	c-1.8,4.2-3,8.7-5.4,12.5c-5.1,8.2-12.4,14-21.6,17.5c-2.4,0.9-4.8,1.9-7.1,2.9c-5.2,2.4-10.3,5.5-16.4,4.7
	c-0.8-0.1-1.7,0.4-2.5,0.6h-7.2c-1.9-0.3-3.9-0.6-5.8-1c-9.2-1.9-17.7-5.5-25.5-10.7c-2.1-1.4-4.5-2.6-6.2-4.4
	c-3.4-3.8-5.9-8.4-9.5-11.8c-6.4-6-9.5-13.9-12.8-21.5c-3.5-7.9-2.6-16.6,0.2-24.8c2.9-8.7,7.4-16.4,13.8-23
	c5.5-5.7,11.8-10.5,19.1-13.5c6.6-2.7,13.6-4.4,20.5-6.5C66.3,37.4,67.9,37.2,69.4,37"/>
<path id="XMLID_2_" fill="#231F20" d="M64.8,90.4c6,0.9,11.8,0.9,17.5-0.6c1.5-0.4,2.4-1.3,2.2-3.5c-0.3-3.4,0.2-6.8,0.7-10.2
	c0.3-2.2,5.6-5,7.9-4.4c6.4,1.7,10.4,8,9.9,14.7c-0.4,4.5,0.1,9.1,0.1,13.7c0,4.3-0.2,8.7-0.3,13c0,1.7-0.2,3.4,0,5
	c0.5,3.1-1.4,4.5-3.8,5.5c-1.8,0.8-3.7,1.3-5.5,2.2c-3,1.4-4.8,0.9-6.7-2c-1.3-1.9-3.1-3.7-3.7-5.8c-0.5-1.6,0.3-3.6,0.7-5.4
	c0.7-3.5,0.4-4.3-3-5.2c-4-1-7.5-4.1-12.2-3.1c-1.8,0.4-2.4,0.8-2.1,2.6c0.6,3.1,0.8,6.2,1.5,9.2c0.7,2.8-2.5,5.1-6.6,4.7
	c-3.1-0.3-6.2-1.4-9.3-2.2c-0.3-0.1-0.6-0.2-0.8-0.3c-7.4-1.3-8.7-2.8-7.9-10.2c0.6-6.1,2-12.2,2.4-18.4c0.3-5.4,1.9-10.7,0.6-16.2
	c-0.7-3.2,0.7-6.9,3.4-8.8c2.6-1.7,6-1.3,8.9,0.7c0.8,0.6,1.8,0.9,2.7,1.5c4.2,2.6,4.7,6.3,3.7,11C64.2,81.8,64.8,86.1,64.8,90.4"/>
</svg>
