<?xml version="1.0" encoding="utf-8"?>
<!-- Generator: Adobe Illustrator 19.0.0, SVG Export Plug-In . SVG Version: 6.00 Build 0)  -->
<svg version="1.1" id="Layer_1" xmlns="http://www.w3.org/2000/svg" xmlns:xlink="http://www.w3.org/1999/xlink" x="0px" y="0px"
	 viewBox="0 0 400 560" enable-background="new 0 0 400 560" xml:space="preserve">
<g id="XMLID_223_">
	<defs>
		<rect id="XMLID_1_" x="15.6" y="6.1" width="368.8" height="547.8"/>
	</defs>
	<clipPath id="XMLID_239_">
		<use xlink:href="#XMLID_1_"  overflow="visible"/>
	</clipPath>
	<path id="XMLID_221_" clip-path="url(#XMLID_239_)" fill="#231F20" d="M53.8,84.6H30.6c1.2-0.3,2.6-0.1,3.8-0.1c2.7,0,5.3,0,8,0
		c2.6,0,5.3,0,7.9,0c0.9,0,1.7,0,2.6,0C53.2,84.6,53.7,84.5,53.8,84.6"/>
	<path id="XMLID_220_" clip-path="url(#XMLID_239_)" fill="#231F20" d="M53.8,102.3c-0.2,0-0.4,0-0.5,0c0,0-0.1,0-0.1,0
		c-0.5,0-0.9,0-1.4,0c-0.4,0-0.9,0-1.3,0c-2.4,0-4.9,0-7.3,0h-4c-1.5,0-3.1,0-4.6,0c-1.2,0-2.5,0.2-3.7,0c0,0,0,0-0.1,0
		c0,0-0.1,0-0.1,0h0.8C38.8,102.3,46.5,102.3,53.8,102.3"/>
	<path id="XMLID_219_" clip-path="url(#XMLID_239_)" fill="#231F20" d="M37.5,77.6h-0.6c-1.6,0-3.1,0-4.3,0h19
		C46.7,77.6,41.6,77.6,37.5,77.6"/>
	<path id="XMLID_218_" clip-path="url(#XMLID_239_)" fill="#231F20" d="M38.3,77.6h-5.7c1.2,0,2.7,0,4.3,0h0.6
		C37.8,77.6,38,77.6,38.3,77.6"/>
	<path id="XMLID_217_" clip-path="url(#XMLID_239_)" fill="#231F20" d="M39.3,102.4c-1.5,0-3.1,0-4.6,0c-1.2,0-2.5,0.2-3.7,0
		c0,0,0,0-0.1,0c0,0-0.1,0-0.1,0h0.8c0.2,0,0.4,0,0.6,0C33,102.4,35.6,102.4,39.3,102.4"/>
	<path id="XMLID_216_" clip-path="url(#XMLID_239_)" fill="#231F20" d="M53.8,84.6H30.6c1.2-0.3,2.6-0.1,3.8-0.1c2.7,0,5.3,0,8,0
		c2.6,0,5.3,0,7.9,0c0.9,0,1.7,0,2.6,0C53.2,84.6,53.7,84.5,53.8,84.6"/>
	<path id="XMLID_215_" clip-path="url(#XMLID_239_)" fill="#231F20" d="M28,96.1c0.6-1.6,2-1.8,3.4-1.8h63.2c0.4,0,0.8,0,1.2,0.1
		c3,0.6,2.5,5.2-0.5,5.2H30.5C28.7,99.6,27.4,97.8,28,96.1"/>
	<path id="XMLID_214_" clip-path="url(#XMLID_239_)" fill="#231F20" d="M28,89c0.6-1.6,2-1.8,3.4-1.8h63.2c0.4,0,0.8,0,1.2,0.1
		c3,0.6,2.5,5.2-0.5,5.2H30.5C28.7,92.5,27.4,90.7,28,89"/>
	<path id="XMLID_454_" clip-path="url(#XMLID_239_)" fill="#231F20" d="M32.6,77.6c1.2,0,2.7,0,4.3,0c-2.7,0-5.4-0.2-8,0.1
		c-2.3,0.2-4.5,1.1-6.4,2.5V13h72.6v64.6H32.6z M102,9.2c0-0.1,0-0.2,0-0.3c-0.1-0.4-0.2-0.7-0.3-1.1c-0.1-0.3-0.3-0.5-0.5-0.7
		c-0.1-0.1-0.3-0.3-0.4-0.4c-0.1-0.1-0.2-0.2-0.4-0.2c-0.4-0.2-0.8-0.3-1.2-0.4c-0.2,0-0.3,0-0.5,0H27.9h-7.6c-0.2,0-0.5,0-0.7,0
		c-1.4,0.1-2.7,0.5-3.4,1.6C16,7.8,16,7.9,16,7.9c-0.1,0.1-0.1,0.2-0.2,0.3c-0.1,0.2-0.1,0.4-0.2,0.6c0,0.1,0,0.2,0,0.4
		c0,0.1,0,0.3,0,0.4c0,0,0,0,0,0c0,0.2,0,0.4,0,0.6v79.1c0,0.6,0,1.2,0.2,1.7c-0.7,4.6,0.7,9.5,3.9,13c1.8,2,4,3.5,6.6,4.4
		c1.6,0.6,3,0.7,4.7,0.7c3.1,0,60.2,0,69.5,0c2.7,0,0.9-3.5,0-4.5c-1.3-1.5-3.1-2.4-5.1-2.5c-0.3,0-23.9,0-42.2,0c0,0-0.1,0-0.1,0
		c-0.5,0-0.9,0-1.4,0H39.3c-1.5,0-3.1,0-4.6,0c-1.2,0-2.5,0.2-3.7,0c0,0,0,0-0.1,0c0,0-0.1,0-0.1,0h0.8c-7-0.5-10.8-9.1-6.1-14.7
		c1.4-1.7,3.6-3,5.8-3h-0.8c1.2-0.3,2.6-0.1,3.8-0.1c2.7,0,5.3,0,8,0c2.6,0,5.3,0,7.9,0c0.9,0,1.7,0,2.6,0c0.3,0,0.7-0.1,0.9,0.1
		h40.9c3.3,0,6.4-1.9,7.2-5.2c0.1-0.2,0.1-0.5,0.1-0.6c0-0.1,0-0.1,0-0.2V9.4C102,9.3,102,9.3,102,9.2"/>
	<path id="XMLID_211_" clip-path="url(#XMLID_239_)" fill="#231F20" d="M42.4,31.3c0-2.4,1.9-4.3,4.3-4.3c2.4,0,4.3,1.9,4.3,4.3
		v11.6h15.9V31.3c0-2.4,1.9-4.3,4.3-4.3c2.4,0,4.3,1.9,4.3,4.3v31.3c0,2.4-1.9,4.3-4.3,4.3c-2.4,0-4.3-1.9-4.3-4.3V50.9H51v11.8
		c0,2.4-1.9,4.3-4.3,4.3c-2.4,0-4.3-1.9-4.3-4.3V31.3z"/>
	<path id="XMLID_210_" clip-path="url(#XMLID_239_)" fill="#2EAAE1" d="M148,141.9h-23.2c1.2,0.3,2.6,0.1,3.8,0.1c2.7,0,5.3,0,8,0
		c2.6,0,5.3,0,7.9,0c0.9,0,1.7,0,2.6,0C147.3,142,147.8,142.1,148,141.9"/>
	<path id="XMLID_209_" clip-path="url(#XMLID_239_)" fill="#2EAAE1" d="M148,124.2c-0.2,0-0.4,0-0.5,0c0,0-0.1,0-0.1,0
		c-0.5,0-0.9,0-1.4,0c-0.4,0-0.9,0-1.3,0c-2.4,0-4.9,0-7.3,0h-4c-1.5,0-3.1,0-4.6,0c-1.2,0-2.5-0.2-3.7,0c0,0,0,0-0.1,0
		c0,0-0.1,0-0.1,0h0.8C133,124.2,140.6,124.2,148,124.2"/>
	<path id="XMLID_208_" clip-path="url(#XMLID_239_)" fill="#2EAAE1" d="M145.7,149h-19c1.2,0,2.7,0,4.3,0h0.6
		C135.7,149,140.8,149,145.7,149"/>
	<path id="XMLID_207_" clip-path="url(#XMLID_239_)" fill="#2EAAE1" d="M132.5,149h-5.7c1.2,0,2.7,0,4.3,0h0.6
		C131.9,149,132.2,149,132.5,149"/>
	<path id="XMLID_206_" clip-path="url(#XMLID_239_)" fill="#2EAAE1" d="M133.4,124.2c-1.5,0-3.1,0-4.6,0c-1.2,0-2.5-0.2-3.7,0
		c0,0,0,0-0.1,0c0,0-0.1,0-0.1,0h0.8c0.2,0,0.4,0,0.6,0C127.2,124.2,129.7,124.2,133.4,124.2"/>
	<path id="XMLID_205_" clip-path="url(#XMLID_239_)" fill="#2EAAE1" d="M148,141.9h-23.2c1.2,0.3,2.6,0.1,3.8,0.1c2.7,0,5.3,0,8,0
		c2.6,0,5.3,0,7.9,0c0.9,0,1.7,0,2.6,0C147.3,142,147.8,142.1,148,141.9"/>
	<path id="XMLID_204_" clip-path="url(#XMLID_239_)" fill="#2EAAE1" d="M122.2,130.5c0.6,1.6,2,1.8,3.4,1.8h63.2
		c0.4,0,0.8,0,1.2-0.1c3-0.6,2.5-5.2-0.5-5.2h-64.7C122.9,127,121.6,128.8,122.2,130.5"/>
	<path id="XMLID_203_" clip-path="url(#XMLID_239_)" fill="#2EAAE1" d="M122.2,137.6c0.6,1.6,2,1.8,3.4,1.8h63.2
		c0.4,0,0.8,0,1.2-0.1c3-0.6,2.5-5.2-0.5-5.2h-64.7C122.9,134.1,121.6,135.9,122.2,137.6"/>
	<path id="XMLID_442_" clip-path="url(#XMLID_239_)" fill="#2EAAE1" d="M189.2,149v64.6h-72.6v-67.2c1.9,1.4,4.1,2.3,6.4,2.5
		c2.6,0.2,5.3,0.1,8,0.1c-1.6,0-3.1,0-4.3,0H189.2z M196.1,217.1V148c0-0.1,0-0.1,0-0.2c0-0.2,0-0.4-0.1-0.6
		c-0.9-3.4-3.9-5.2-7.2-5.2H148c-0.2,0.1-0.6,0.1-0.9,0.1c-0.9,0-1.7,0-2.6,0c-2.6,0-5.3,0-7.9,0c-2.7,0-5.3,0-8,0
		c-1.2,0-2.7,0.2-3.8-0.1h0.8c-2.3,0-4.4-1.3-5.8-3c-4.7-5.6-0.9-14.2,6.1-14.7h-0.8c0,0,0.1,0,0.1,0c0,0,0.1,0,0.1,0
		c1.2-0.2,2.5,0,3.7,0c1.5,0,3.1,0,4.6,0h12.5c0.5,0,0.9,0,1.4,0c0,0,0.1,0,0.1,0c18.3,0,41.9,0,42.2,0c2-0.1,3.8-1,5.1-2.5
		c0.8-1,2.6-4.5,0-4.5c-9.3,0-66.4,0-69.5,0c-1.7,0-3.1,0.1-4.7,0.7c-2.5,0.9-4.8,2.4-6.6,4.4c-3.2,3.6-4.6,8.4-3.9,13
		c-0.1,0.5-0.2,1.1-0.2,1.7v79.1c0,0.2,0,0.4,0,0.6c0,0,0,0,0,0c0,0.1,0,0.3,0,0.4c0,0.1,0,0.2,0,0.4c0,0.2,0.1,0.4,0.2,0.6
		c0,0.1,0.1,0.2,0.2,0.3c0,0.1,0.1,0.1,0.1,0.2c0.7,1.1,2,1.5,3.4,1.6c0.2,0,0.5,0,0.7,0h7.6h70.7c0.2,0,0.3,0,0.5,0
		c0.4-0.1,0.9-0.2,1.2-0.4c0.1-0.1,0.2-0.2,0.4-0.2c0.2-0.1,0.3-0.2,0.4-0.4c0.2-0.2,0.4-0.4,0.5-0.7c0.2-0.3,0.3-0.7,0.3-1.1
		c0-0.1,0-0.2,0-0.3C196.1,217.3,196.1,217.2,196.1,217.1"/>
	<path id="XMLID_200_" clip-path="url(#XMLID_239_)" fill="#2EAAE1" d="M136.5,163.9c0-2.4,1.9-4.3,4.3-4.3s4.3,1.9,4.3,4.3v11.8
		h15.9v-11.8c0-2.4,1.9-4.3,4.3-4.3s4.3,1.9,4.3,4.3v31.3c0,2.4-1.9,4.3-4.3,4.3s-4.3-1.9-4.3-4.3v-11.6h-15.9v11.6
		c0,2.4-1.9,4.3-4.3,4.3s-4.3-1.9-4.3-4.3V163.9z"/>
	<path id="XMLID_199_" clip-path="url(#XMLID_239_)" fill="#FFCE31" d="M63.8,195.8H87c-1.2-0.3-2.6-0.1-3.8-0.1c-2.7,0-5.3,0-8,0
		c-2.6,0-5.3,0-7.9,0c-0.9,0-1.7,0-2.6,0C64.4,195.7,64,195.7,63.8,195.8"/>
	<path id="XMLID_198_" clip-path="url(#XMLID_239_)" fill="#FFCE31" d="M63.8,213.5c0.2,0,0.4,0,0.5,0c0,0,0.1,0,0.1,0
		c0.5,0,0.9,0,1.4,0c0.4,0,0.9,0,1.3,0c2.4,0,4.9,0,7.3,0h4c1.5,0,3.1,0,4.6,0c1.2,0,2.5,0.2,3.7,0c0,0,0,0,0.1,0c0,0,0.1,0,0.1,0
		H86C78.8,213.5,71.1,213.5,63.8,213.5"/>
	<path id="XMLID_197_" clip-path="url(#XMLID_239_)" fill="#FFCE31" d="M66,188.8h19c-1.2,0-2.7,0-4.3,0h-0.6
		C76,188.7,70.9,188.7,66,188.8"/>
	<path id="XMLID_196_" clip-path="url(#XMLID_239_)" fill="#FFCE31" d="M79.3,188.8H85c-1.2,0-2.7,0-4.3,0h-0.6
		C79.8,188.8,79.6,188.8,79.3,188.8"/>
	<path id="XMLID_195_" clip-path="url(#XMLID_239_)" fill="#FFCE31" d="M78.3,213.5c1.5,0,3.1,0,4.6,0c1.2,0,2.5,0.2,3.7,0
		c0,0,0,0,0.1,0c0,0,0.1,0,0.1,0H86c-0.2,0-0.4,0-0.6,0C84.6,213.5,82,213.5,78.3,213.5"/>
	<path id="XMLID_194_" clip-path="url(#XMLID_239_)" fill="#FFCE31" d="M63.8,195.8H87c-1.2-0.3-2.6-0.1-3.8-0.1c-2.7,0-5.3,0-8,0
		c-2.6,0-5.3,0-7.9,0c-0.9,0-1.7,0-2.6,0C64.4,195.7,64,195.7,63.8,195.8"/>
	<path id="XMLID_193_" clip-path="url(#XMLID_239_)" fill="#FFCE31" d="M89.6,207.2c-0.6-1.6-2-1.8-3.4-1.8H23c-0.4,0-0.8,0-1.2,0.1
		c-3,0.6-2.5,5.2,0.5,5.2h64.7C88.9,210.7,90.2,208.9,89.6,207.2"/>
	<path id="XMLID_192_" clip-path="url(#XMLID_239_)" fill="#FFCE31" d="M89.6,200.1c-0.6-1.6-2-1.8-3.4-1.8H23c-0.4,0-0.8,0-1.2,0.1
		c-3,0.6-2.5,5.2,0.5,5.2h64.7C88.9,203.6,90.2,201.8,89.6,200.1"/>
	<path id="XMLID_430_" clip-path="url(#XMLID_239_)" fill="#FFCE31" d="M22.5,188.8v-64.6h72.6v67.2c-1.9-1.4-4.1-2.3-6.4-2.5
		c-2.6-0.2-5.3-0.1-8-0.1c1.6,0,3.1,0,4.3,0H22.5z M15.6,120.6v69.1c0,0.1,0,0.1,0,0.2c0,0.2,0,0.4,0.1,0.6c0.9,3.4,3.9,5.2,7.2,5.2
		h40.9c0.2-0.1,0.6-0.1,0.9-0.1c0.9,0,1.7,0,2.6,0c2.6,0,5.3,0,7.9,0c2.7,0,5.3,0,8,0c1.2,0,2.7-0.2,3.8,0.1h-0.8
		c2.3,0,4.4,1.3,5.8,3c4.7,5.6,0.9,14.2-6.1,14.7h0.8c0,0-0.1,0-0.1,0c0,0-0.1,0-0.1,0c-1.2,0.2-2.5,0-3.7,0c-1.5,0-3.1,0-4.6,0
		H65.8c-0.5,0-0.9,0-1.4,0c0,0-0.1,0-0.1,0c-18.3,0-41.9,0-42.2,0c-2,0.1-3.8,1-5.1,2.5c-0.8,1-2.6,4.5,0,4.5c9.3,0,66.4,0,69.5,0
		c1.7,0,3.1-0.1,4.7-0.7c2.5-0.9,4.8-2.4,6.6-4.4c3.2-3.6,4.6-8.4,3.9-13c0.1-0.5,0.2-1.1,0.2-1.7v-79.1c0-0.2,0-0.4,0-0.6
		c0,0,0,0,0,0c0-0.1,0-0.3,0-0.4c0-0.1,0-0.2,0-0.4c0-0.2-0.1-0.4-0.2-0.6c0-0.1-0.1-0.2-0.2-0.3c0-0.1-0.1-0.1-0.1-0.2
		c-0.7-1.1-2-1.5-3.4-1.6c-0.2,0-0.5,0-0.7,0h-7.6H19c-0.2,0-0.3,0-0.5,0c-0.4,0.1-0.9,0.2-1.2,0.4c-0.1,0.1-0.2,0.2-0.4,0.2
		c-0.2,0.1-0.3,0.2-0.4,0.4c-0.2,0.2-0.4,0.4-0.5,0.7c-0.2,0.3-0.3,0.7-0.3,1.1c0,0.1,0,0.2,0,0.3C15.6,120.4,15.6,120.5,15.6,120.6
		"/>
	<path id="XMLID_189_" clip-path="url(#XMLID_239_)" fill="#FFCE31" d="M75.2,173.8c0,2.4-1.9,4.3-4.3,4.3c-2.4,0-4.3-1.9-4.3-4.3
		V162H50.7v11.8c0,2.4-1.9,4.3-4.3,4.3s-4.3-1.9-4.3-4.3v-31.3c0-2.4,1.9-4.3,4.3-4.3s4.3,1.9,4.3,4.3V154h15.9v-11.6
		c0-2.4,1.9-4.3,4.3-4.3c2.4,0,4.3,1.9,4.3,4.3V173.8z"/>
	<path id="XMLID_188_" clip-path="url(#XMLID_239_)" fill="#FFCE31" d="M157.9,30.8h23.2c-1.2,0.3-2.6,0.1-3.8,0.1c-2.7,0-5.3,0-8,0
		c-2.6,0-5.3,0-7.9,0c-0.9,0-1.7,0-2.6,0C158.6,30.9,158.1,30.9,157.9,30.8"/>
	<path id="XMLID_187_" clip-path="url(#XMLID_239_)" fill="#FFCE31" d="M157.9,13.1c0.2,0,0.4,0,0.5,0c0,0,0.1,0,0.1,0
		c0.5,0,0.9,0,1.4,0c0.4,0,0.9,0,1.3,0c2.4,0,4.9,0,7.3,0h4c1.5,0,3.1,0,4.6,0c1.2,0,2.5-0.2,3.7,0c0,0,0,0,0.1,0c0,0,0.1,0,0.1,0
		h-0.8C172.9,13.1,165.3,13.1,157.9,13.1"/>
	<path id="XMLID_186_" clip-path="url(#XMLID_239_)" fill="#FFCE31" d="M174.2,37.8h0.6c1.6,0,3.1,0,4.3,0h-19
		C165.1,37.8,170.1,37.8,174.2,37.8"/>
	<path id="XMLID_185_" clip-path="url(#XMLID_239_)" fill="#FFCE31" d="M173.4,37.8h5.7c-1.2,0-2.7,0-4.3,0h-0.6
		C174,37.8,173.7,37.8,173.4,37.8"/>
	<path id="XMLID_184_" clip-path="url(#XMLID_239_)" fill="#FFCE31" d="M172.4,13.1c1.5,0,3.1,0,4.6,0c1.2,0,2.5-0.2,3.7,0
		c0,0,0,0,0.1,0c0,0,0.1,0,0.1,0h-0.8c-0.2,0-0.4,0-0.6,0C178.7,13.1,176.1,13.1,172.4,13.1"/>
	<path id="XMLID_183_" clip-path="url(#XMLID_239_)" fill="#FFCE31" d="M157.9,30.8h23.2c-1.2,0.3-2.6,0.1-3.8,0.1c-2.7,0-5.3,0-8,0
		c-2.6,0-5.3,0-7.9,0c-0.9,0-1.7,0-2.6,0C158.6,30.9,158.1,30.9,157.9,30.8"/>
	<path id="XMLID_182_" clip-path="url(#XMLID_239_)" fill="#FFCE31" d="M183.7,19.4c-0.6,1.6-2,1.8-3.4,1.8h-63.2
		c-0.4,0-0.8,0-1.2-0.1c-3-0.6-2.5-5.2,0.5-5.2h64.7C183,15.8,184.3,17.7,183.7,19.4"/>
	<path id="XMLID_181_" clip-path="url(#XMLID_239_)" fill="#FFCE31" d="M183.7,26.5c-0.6,1.6-2,1.8-3.4,1.8h-63.2
		c-0.4,0-0.8,0-1.2-0.1c-3-0.6-2.5-5.2,0.5-5.2h64.7C183,23,184.3,24.8,183.7,26.5"/>
	<path id="XMLID_418_" clip-path="url(#XMLID_239_)" fill="#FFCE31" d="M179.2,37.8c-1.2,0-2.7,0-4.3,0c2.7,0,5.4,0.2,8-0.1
		c2.3-0.2,4.5-1.1,6.4-2.5v67.2h-72.6V37.8H179.2z M109.7,106.3c0,0.1,0,0.2,0,0.3c0.1,0.4,0.2,0.7,0.3,1.1c0.1,0.3,0.3,0.5,0.5,0.7
		c0.1,0.1,0.3,0.3,0.4,0.4c0.1,0.1,0.2,0.2,0.4,0.2c0.4,0.2,0.8,0.3,1.2,0.4c0.2,0,0.3,0,0.5,0h70.7h7.6c0.2,0,0.5,0,0.7,0
		c1.4-0.1,2.7-0.5,3.4-1.6c0-0.1,0.1-0.1,0.1-0.2c0.1-0.1,0.1-0.2,0.2-0.3c0.1-0.2,0.1-0.4,0.2-0.6c0-0.1,0-0.2,0-0.4
		c0-0.1,0-0.3,0-0.4c0,0,0,0,0,0c0-0.2,0-0.4,0-0.6V26c0-0.6,0-1.2-0.2-1.7c0.7-4.6-0.7-9.5-3.9-13c-1.8-2-4-3.5-6.6-4.4
		c-1.6-0.6-3-0.7-4.7-0.7c-3.1,0-60.2,0-69.5,0c-2.7,0-0.9,3.5,0,4.5c1.3,1.5,3.1,2.4,5.1,2.5c0.3,0,23.9,0,42.2,0c0,0,0.1,0,0.1,0
		c0.5,0,0.9,0,1.4,0h12.5c1.5,0,3.1,0,4.6,0c1.2,0,2.5-0.2,3.7,0c0,0,0,0,0.1,0c0,0,0.1,0,0.1,0h-0.8c7,0.5,10.8,9.1,6.1,14.7
		c-1.4,1.7-3.6,3-5.8,3h0.8c-1.2,0.3-2.6,0.1-3.8,0.1c-2.7,0-5.3,0-8,0c-2.6,0-5.3,0-7.9,0c-0.9,0-1.7,0-2.6,0
		c-0.3,0-0.7,0.1-0.9-0.1h-40.9c-3.3,0-6.4,1.9-7.2,5.2c-0.1,0.2-0.1,0.5-0.1,0.6c0,0.1,0,0.1,0,0.2V106
		C109.7,106.1,109.7,106.2,109.7,106.3"/>
	<path id="XMLID_178_" clip-path="url(#XMLID_239_)" fill="#FFCE31" d="M169.4,84.1c0,2.4-1.9,4.3-4.3,4.3c-2.4,0-4.3-1.9-4.3-4.3
		V72.6h-15.9v11.6c0,2.4-1.9,4.3-4.3,4.3s-4.3-1.9-4.3-4.3V52.8c0-2.4,1.9-4.3,4.3-4.3s4.3,1.9,4.3,4.3v11.8h15.9V52.8
		c0-2.4,1.9-4.3,4.3-4.3c2.4,0,4.3,1.9,4.3,4.3V84.1z"/>
	<path id="XMLID_177_" clip-path="url(#XMLID_239_)" fill="#2EAAE1" d="M242.1,84.6h-23.2c1.2-0.3,2.6-0.1,3.8-0.1c2.7,0,5.3,0,8,0
		c2.6,0,5.3,0,7.9,0c0.9,0,1.7,0,2.6,0C241.4,84.6,241.9,84.5,242.1,84.6"/>
	<path id="XMLID_176_" clip-path="url(#XMLID_239_)" fill="#2EAAE1" d="M242.1,102.3c-0.2,0-0.4,0-0.5,0c0,0-0.1,0-0.1,0
		c-0.5,0-0.9,0-1.4,0c-0.4,0-0.9,0-1.3,0c-2.4,0-4.9,0-7.3,0h-4c-1.5,0-3.1,0-4.6,0c-1.2,0-2.5,0.2-3.7,0c0,0,0,0-0.1,0
		c0,0-0.1,0-0.1,0h0.8C227.1,102.3,234.7,102.3,242.1,102.3"/>
	<path id="XMLID_175_" clip-path="url(#XMLID_239_)" fill="#2EAAE1" d="M225.8,77.6h-0.6c-1.6,0-3.1,0-4.3,0h19
		C234.9,77.6,229.9,77.6,225.8,77.6"/>
	<path id="XMLID_174_" clip-path="url(#XMLID_239_)" fill="#2EAAE1" d="M226.6,77.6h-5.7c1.2,0,2.7,0,4.3,0h0.6
		C226,77.6,226.3,77.6,226.6,77.6"/>
	<path id="XMLID_173_" clip-path="url(#XMLID_239_)" fill="#2EAAE1" d="M227.6,102.4c-1.5,0-3.1,0-4.6,0c-1.2,0-2.5,0.2-3.7,0
		c0,0,0,0-0.1,0c0,0-0.1,0-0.1,0h0.8c0.2,0,0.4,0,0.6,0C221.3,102.4,223.9,102.4,227.6,102.4"/>
	<path id="XMLID_172_" clip-path="url(#XMLID_239_)" fill="#2EAAE1" d="M242.1,84.6h-23.2c1.2-0.3,2.6-0.1,3.8-0.1c2.7,0,5.3,0,8,0
		c2.6,0,5.3,0,7.9,0c0.9,0,1.7,0,2.6,0C241.4,84.6,241.9,84.5,242.1,84.6"/>
	<path id="XMLID_171_" clip-path="url(#XMLID_239_)" fill="#2EAAE1" d="M216.3,96.1c0.6-1.6,2-1.8,3.4-1.8h63.2c0.4,0,0.8,0,1.2,0.1
		c3,0.6,2.5,5.2-0.5,5.2h-64.7C217,99.6,215.7,97.8,216.3,96.1"/>
	<path id="XMLID_170_" clip-path="url(#XMLID_239_)" fill="#2EAAE1" d="M216.3,89c0.6-1.6,2-1.8,3.4-1.8h63.2c0.4,0,0.8,0,1.2,0.1
		c3,0.6,2.5,5.2-0.5,5.2h-64.7C217,92.5,215.7,90.7,216.3,89"/>
	<path id="XMLID_406_" clip-path="url(#XMLID_239_)" fill="#2EAAE1" d="M220.8,77.6c1.2,0,2.7,0,4.3,0c-2.7,0-5.4-0.2-8,0.1
		c-2.3,0.2-4.5,1.1-6.4,2.5V13h72.6v64.6H220.8z M290.3,9.2c0-0.1,0-0.2,0-0.3c-0.1-0.4-0.2-0.7-0.3-1.1c-0.1-0.3-0.3-0.5-0.5-0.7
		c-0.1-0.1-0.3-0.3-0.4-0.4c-0.1-0.1-0.2-0.2-0.4-0.2c-0.4-0.2-0.8-0.3-1.2-0.4c-0.2,0-0.3,0-0.5,0h-70.7h-7.6c-0.2,0-0.5,0-0.7,0
		c-1.4,0.1-2.7,0.5-3.4,1.6c0,0.1-0.1,0.1-0.1,0.2c-0.1,0.1-0.1,0.2-0.2,0.3c-0.1,0.2-0.1,0.4-0.2,0.6c0,0.1,0,0.2,0,0.4
		c0,0.1,0,0.3,0,0.4c0,0,0,0,0,0c0,0.2,0,0.4,0,0.6v79.1c0,0.6,0,1.2,0.2,1.7c-0.7,4.6,0.7,9.5,3.9,13c1.8,2,4,3.5,6.6,4.4
		c1.6,0.6,3,0.7,4.7,0.7c3.1,0,60.2,0,69.5,0c2.7,0,0.9-3.5,0-4.5c-1.3-1.5-3.1-2.4-5.1-2.5c-0.3,0-23.9,0-42.2,0c0,0-0.1,0-0.1,0
		c-0.5,0-0.9,0-1.4,0h-12.5c-1.5,0-3.1,0-4.6,0c-1.2,0-2.5,0.2-3.7,0c0,0,0,0-0.1,0c0,0-0.1,0-0.1,0h0.8c-7-0.5-10.8-9.1-6.1-14.7
		c1.4-1.7,3.6-3,5.8-3h-0.8c1.2-0.3,2.6-0.1,3.8-0.1c2.7,0,5.3,0,8,0c2.6,0,5.3,0,7.9,0c0.9,0,1.7,0,2.6,0c0.3,0,0.7-0.1,0.9,0.1
		h40.9c3.3,0,6.4-1.9,7.2-5.2c0.1-0.2,0.1-0.5,0.1-0.6c0-0.1,0-0.1,0-0.2V9.4C290.3,9.3,290.3,9.3,290.3,9.2"/>
	<path id="XMLID_167_" clip-path="url(#XMLID_239_)" fill="#2EAAE1" d="M230.6,31.3c0-2.4,1.9-4.3,4.3-4.3c2.4,0,4.3,1.9,4.3,4.3
		v11.6h15.9V31.3c0-2.4,1.9-4.3,4.3-4.3s4.3,1.9,4.3,4.3v31.3c0,2.4-1.9,4.3-4.3,4.3s-4.3-1.9-4.3-4.3V50.9h-15.9v11.8
		c0,2.4-1.9,4.3-4.3,4.3c-2.4,0-4.3-1.9-4.3-4.3V31.3z"/>
	<path id="XMLID_166_" clip-path="url(#XMLID_239_)" fill="#231F20" d="M336.2,141.9H313c1.2,0.3,2.6,0.1,3.8,0.1c2.7,0,5.3,0,8,0
		c2.6,0,5.3,0,7.9,0c0.9,0,1.7,0,2.6,0C335.6,142,336,142.1,336.2,141.9"/>
	<path id="XMLID_165_" clip-path="url(#XMLID_239_)" fill="#231F20" d="M336.2,124.2c-0.2,0-0.4,0-0.5,0c0,0-0.1,0-0.1,0
		c-0.5,0-0.9,0-1.4,0c-0.4,0-0.9,0-1.3,0c-2.4,0-4.9,0-7.3,0h-4c-1.5,0-3.1,0-4.6,0c-1.2,0-2.5-0.2-3.7,0c0,0,0,0-0.1,0
		c0,0-0.1,0-0.1,0h0.8C321.2,124.2,328.9,124.2,336.2,124.2"/>
	<path id="XMLID_164_" clip-path="url(#XMLID_239_)" fill="#231F20" d="M334,149h-19c1.2,0,2.7,0,4.3,0h0.6
		C324,149,329.1,149,334,149"/>
	<path id="XMLID_163_" clip-path="url(#XMLID_239_)" fill="#231F20" d="M320.7,149H315c1.2,0,2.7,0,4.3,0h0.6
		C320.2,149,320.4,149,320.7,149"/>
	<path id="XMLID_162_" clip-path="url(#XMLID_239_)" fill="#231F20" d="M321.7,124.2c-1.5,0-3.1,0-4.6,0c-1.2,0-2.5-0.2-3.7,0
		c0,0,0,0-0.1,0c0,0-0.1,0-0.1,0h0.8c0.2,0,0.4,0,0.6,0C315.4,124.2,318,124.2,321.7,124.2"/>
	<path id="XMLID_161_" clip-path="url(#XMLID_239_)" fill="#231F20" d="M336.2,141.9H313c1.2,0.3,2.6,0.1,3.8,0.1c2.7,0,5.3,0,8,0
		c2.6,0,5.3,0,7.9,0c0.9,0,1.7,0,2.6,0C335.6,142,336,142.1,336.2,141.9"/>
	<path id="XMLID_160_" clip-path="url(#XMLID_239_)" fill="#231F20" d="M310.4,130.5c0.6,1.6,2,1.8,3.4,1.8H377c0.4,0,0.8,0,1.2-0.1
		c3-0.6,2.5-5.2-0.5-5.2h-64.7C311.1,127,309.8,128.8,310.4,130.5"/>
	<path id="XMLID_159_" clip-path="url(#XMLID_239_)" fill="#231F20" d="M310.4,137.6c0.6,1.6,2,1.8,3.4,1.8H377c0.4,0,0.8,0,1.2-0.1
		c3-0.6,2.5-5.2-0.5-5.2h-64.7C311.1,134.1,309.8,135.9,310.4,137.6"/>
	<path id="XMLID_394_" clip-path="url(#XMLID_239_)" fill="#231F20" d="M377.5,149v64.6h-72.6v-67.2c1.9,1.4,4.1,2.3,6.4,2.5
		c2.6,0.2,5.3,0.1,8,0.1c-1.6,0-3.1,0-4.3,0H377.5z M384.4,217.1V148c0-0.1,0-0.1,0-0.2c0-0.2,0-0.4-0.1-0.6
		c-0.9-3.4-3.9-5.2-7.2-5.2h-40.9c-0.2,0.1-0.6,0.1-0.9,0.1c-0.9,0-1.7,0-2.6,0c-2.6,0-5.3,0-7.9,0c-2.7,0-5.3,0-8,0
		c-1.2,0-2.7,0.2-3.8-0.1h0.8c-2.3,0-4.4-1.3-5.8-3c-4.7-5.6-0.9-14.2,6.1-14.7h-0.8c0,0,0.1,0,0.1,0c0,0,0.1,0,0.1,0
		c1.2-0.2,2.5,0,3.7,0c1.5,0,3.1,0,4.6,0h12.5c0.5,0,0.9,0,1.4,0c0,0,0.1,0,0.1,0c18.3,0,41.9,0,42.2,0c2-0.1,3.8-1,5.1-2.5
		c0.8-1,2.6-4.5,0-4.5c-9.3,0-66.4,0-69.5,0c-1.7,0-3.1,0.1-4.7,0.7c-2.5,0.9-4.8,2.4-6.6,4.4c-3.2,3.6-4.6,8.4-3.9,13
		c-0.1,0.5-0.2,1.1-0.2,1.7v79.1c0,0.2,0,0.4,0,0.6c0,0,0,0,0,0c0,0.1,0,0.3,0,0.4c0,0.1,0,0.2,0,0.4c0,0.2,0.1,0.4,0.2,0.6
		c0,0.1,0.1,0.2,0.2,0.3c0,0.1,0.1,0.1,0.1,0.2c0.7,1.1,2,1.5,3.4,1.6c0.2,0,0.5,0,0.7,0h7.6H381c0.2,0,0.3,0,0.5,0
		c0.4-0.1,0.9-0.2,1.2-0.4c0.1-0.1,0.2-0.2,0.4-0.2c0.2-0.1,0.3-0.2,0.4-0.4c0.2-0.2,0.4-0.4,0.5-0.7c0.2-0.3,0.3-0.7,0.3-1.1
		c0-0.1,0-0.2,0-0.3C384.4,217.3,384.4,217.2,384.4,217.1"/>
	<path id="XMLID_156_" clip-path="url(#XMLID_239_)" fill="#231F20" d="M324.8,163.9c0-2.4,1.9-4.3,4.3-4.3c2.4,0,4.3,1.9,4.3,4.3
		v11.8h15.9v-11.8c0-2.4,1.9-4.3,4.3-4.3c2.4,0,4.3,1.9,4.3,4.3v31.3c0,2.4-1.9,4.3-4.3,4.3c-2.4,0-4.3-1.9-4.3-4.3v-11.6h-15.9
		v11.6c0,2.4-1.9,4.3-4.3,4.3c-2.4,0-4.3-1.9-4.3-4.3V163.9z"/>
	<path id="XMLID_155_" clip-path="url(#XMLID_239_)" fill="#6F6E6F" d="M252,195.8h23.2c-1.2-0.3-2.6-0.1-3.8-0.1c-2.7,0-5.3,0-8,0
		c-2.6,0-5.3,0-7.9,0c-0.9,0-1.7,0-2.6,0C252.7,195.7,252.2,195.7,252,195.8"/>
	<path id="XMLID_154_" clip-path="url(#XMLID_239_)" fill="#6F6E6F" d="M252,213.5c0.2,0,0.4,0,0.5,0c0,0,0.1,0,0.1,0
		c0.5,0,0.9,0,1.4,0c0.4,0,0.9,0,1.3,0c2.4,0,4.9,0,7.3,0h4c1.5,0,3.1,0,4.6,0c1.2,0,2.5,0.2,3.7,0c0,0,0,0,0.1,0c0,0,0.1,0,0.1,0
		h-0.8C267,213.5,259.4,213.5,252,213.5"/>
	<path id="XMLID_153_" clip-path="url(#XMLID_239_)" fill="#6F6E6F" d="M254.3,188.8h19c-1.2,0-2.7,0-4.3,0h-0.6
		C264.3,188.7,259.2,188.7,254.3,188.8"/>
	<path id="XMLID_152_" clip-path="url(#XMLID_239_)" fill="#6F6E6F" d="M267.5,188.8h5.7c-1.2,0-2.7,0-4.3,0h-0.6
		C268.1,188.8,267.8,188.8,267.5,188.8"/>
	<path id="XMLID_151_" clip-path="url(#XMLID_239_)" fill="#6F6E6F" d="M266.6,213.5c1.5,0,3.1,0,4.6,0c1.2,0,2.5,0.2,3.7,0
		c0,0,0,0,0.1,0c0,0,0.1,0,0.1,0h-0.8c-0.2,0-0.4,0-0.6,0C272.8,213.5,270.3,213.5,266.6,213.5"/>
	<path id="XMLID_150_" clip-path="url(#XMLID_239_)" fill="#6F6E6F" d="M252,195.8h23.2c-1.2-0.3-2.6-0.1-3.8-0.1c-2.7,0-5.3,0-8,0
		c-2.6,0-5.3,0-7.9,0c-0.9,0-1.7,0-2.6,0C252.7,195.7,252.2,195.7,252,195.8"/>
	<path id="XMLID_149_" clip-path="url(#XMLID_239_)" fill="#6F6E6F" d="M277.8,207.2c-0.6-1.6-2-1.8-3.4-1.8h-63.2
		c-0.4,0-0.8,0-1.2,0.1c-3,0.6-2.5,5.2,0.5,5.2h64.7C277.1,210.7,278.4,208.9,277.8,207.2"/>
	<path id="XMLID_148_" clip-path="url(#XMLID_239_)" fill="#6F6E6F" d="M277.8,200.1c-0.6-1.6-2-1.8-3.4-1.8h-63.2
		c-0.4,0-0.8,0-1.2,0.1c-3,0.6-2.5,5.2,0.5,5.2h64.7C277.1,203.6,278.4,201.8,277.8,200.1"/>
	<path id="XMLID_382_" clip-path="url(#XMLID_239_)" fill="#6F6E6F" d="M210.8,188.8v-64.6h72.6v67.2c-1.9-1.4-4.1-2.3-6.4-2.5
		c-2.6-0.2-5.3-0.1-8-0.1c1.6,0,3.1,0,4.3,0H210.8z M203.9,120.6v69.1c0,0.1,0,0.1,0,0.2c0,0.2,0,0.4,0.1,0.6
		c0.9,3.4,3.9,5.2,7.2,5.2H252c0.2-0.1,0.6-0.1,0.9-0.1c0.9,0,1.7,0,2.6,0c2.6,0,5.3,0,7.9,0c2.7,0,5.3,0,8,0c1.2,0,2.7-0.2,3.8,0.1
		h-0.8c2.3,0,4.4,1.3,5.8,3c4.7,5.6,0.9,14.2-6.1,14.7h0.8c0,0-0.1,0-0.1,0c0,0-0.1,0-0.1,0c-1.2,0.2-2.5,0-3.7,0
		c-1.5,0-3.1,0-4.6,0h-12.5c-0.5,0-0.9,0-1.4,0c0,0-0.1,0-0.1,0c-18.3,0-41.9,0-42.2,0c-2,0.1-3.8,1-5.1,2.5c-0.8,1-2.6,4.5,0,4.5
		c9.3,0,66.4,0,69.5,0c1.7,0,3.1-0.1,4.7-0.7c2.5-0.9,4.8-2.4,6.6-4.4c3.2-3.6,4.6-8.4,3.9-13c0.1-0.5,0.2-1.1,0.2-1.7v-79.1
		c0-0.2,0-0.4,0-0.6c0,0,0,0,0,0c0-0.1,0-0.3,0-0.4c0-0.1,0-0.2,0-0.4c0-0.2-0.1-0.4-0.2-0.6c0-0.1-0.1-0.2-0.2-0.3
		c0-0.1-0.1-0.1-0.1-0.2c-0.7-1.1-2-1.5-3.4-1.6c-0.2,0-0.5,0-0.7,0H278h-70.7c-0.2,0-0.3,0-0.5,0c-0.4,0.1-0.9,0.2-1.2,0.4
		c-0.1,0.1-0.2,0.2-0.4,0.2c-0.2,0.1-0.3,0.2-0.4,0.4c-0.2,0.2-0.4,0.4-0.5,0.7c-0.2,0.3-0.3,0.7-0.3,1.1c0,0.1,0,0.2,0,0.3
		C203.9,120.4,203.9,120.5,203.9,120.6"/>
	<path id="XMLID_145_" clip-path="url(#XMLID_239_)" fill="#6F6E6F" d="M263.5,173.8c0,2.4-1.9,4.3-4.3,4.3c-2.4,0-4.3-1.9-4.3-4.3
		V162h-15.9v11.8c0,2.4-1.9,4.3-4.3,4.3c-2.4,0-4.3-1.9-4.3-4.3v-31.3c0-2.4,1.9-4.3,4.3-4.3c2.4,0,4.3,1.9,4.3,4.3V154h15.9v-11.6
		c0-2.4,1.9-4.3,4.3-4.3c2.4,0,4.3,1.9,4.3,4.3V173.8z"/>
	<path id="XMLID_144_" clip-path="url(#XMLID_239_)" fill="#6F6E6F" d="M346.2,30.8h23.2c-1.2,0.3-2.6,0.1-3.8,0.1c-2.7,0-5.3,0-8,0
		c-2.6,0-5.3,0-7.9,0c-0.9,0-1.7,0-2.6,0C346.8,30.9,346.3,30.9,346.2,30.8"/>
	<path id="XMLID_143_" clip-path="url(#XMLID_239_)" fill="#6F6E6F" d="M346.2,13.1c0.2,0,0.4,0,0.5,0c0,0,0.1,0,0.1,0
		c0.5,0,0.9,0,1.4,0c0.4,0,0.9,0,1.3,0c2.4,0,4.9,0,7.3,0h4c1.5,0,3.1,0,4.6,0c1.2,0,2.5-0.2,3.7,0c0,0,0,0,0.1,0c0,0,0.1,0,0.1,0
		h-0.8C361.2,13.1,353.5,13.1,346.2,13.1"/>
	<path id="XMLID_142_" clip-path="url(#XMLID_239_)" fill="#6F6E6F" d="M362.5,37.8h0.6c1.6,0,3.1,0,4.3,0h-19
		C353.3,37.8,358.4,37.8,362.5,37.8"/>
	<path id="XMLID_141_" clip-path="url(#XMLID_239_)" fill="#6F6E6F" d="M361.7,37.8h5.7c-1.2,0-2.7,0-4.3,0h-0.6
		C362.2,37.8,362,37.8,361.7,37.8"/>
	<path id="XMLID_140_" clip-path="url(#XMLID_239_)" fill="#6F6E6F" d="M360.7,13.1c1.5,0,3.1,0,4.6,0c1.2,0,2.5-0.2,3.7,0
		c0,0,0,0,0.1,0c0,0,0.1,0,0.1,0h-0.8c-0.2,0-0.4,0-0.6,0C367,13.1,364.4,13.1,360.7,13.1"/>
	<path id="XMLID_139_" clip-path="url(#XMLID_239_)" fill="#6F6E6F" d="M346.2,30.8h23.2c-1.2,0.3-2.6,0.1-3.8,0.1c-2.7,0-5.3,0-8,0
		c-2.6,0-5.3,0-7.9,0c-0.9,0-1.7,0-2.6,0C346.8,30.9,346.3,30.9,346.2,30.8"/>
	<path id="XMLID_138_" clip-path="url(#XMLID_239_)" fill="#6F6E6F" d="M372,19.4c-0.6,1.6-2,1.8-3.4,1.8h-63.2
		c-0.4,0-0.8,0-1.2-0.1c-3-0.6-2.5-5.2,0.5-5.2h64.7C371.3,15.8,372.6,17.7,372,19.4"/>
	<path id="XMLID_137_" clip-path="url(#XMLID_239_)" fill="#6F6E6F" d="M372,26.5c-0.6,1.6-2,1.8-3.4,1.8h-63.2
		c-0.4,0-0.8,0-1.2-0.1c-3-0.6-2.5-5.2,0.5-5.2h64.7C371.3,23,372.6,24.8,372,26.5"/>
	<path id="XMLID_370_" clip-path="url(#XMLID_239_)" fill="#6F6E6F" d="M367.4,37.8c-1.2,0-2.7,0-4.3,0c2.7,0,5.4,0.2,8-0.1
		c2.3-0.2,4.5-1.1,6.4-2.5v67.2h-72.6V37.8H367.4z M298,106.3c0,0.1,0,0.2,0,0.3c0.1,0.4,0.2,0.7,0.3,1.1c0.1,0.3,0.3,0.5,0.5,0.7
		c0.1,0.1,0.3,0.3,0.4,0.4c0.1,0.1,0.2,0.2,0.4,0.2c0.4,0.2,0.8,0.3,1.2,0.4c0.2,0,0.3,0,0.5,0h70.7h7.6c0.2,0,0.5,0,0.7,0
		c1.4-0.1,2.7-0.5,3.4-1.6c0-0.1,0.1-0.1,0.1-0.2c0.1-0.1,0.1-0.2,0.2-0.3c0.1-0.2,0.1-0.4,0.2-0.6c0-0.1,0-0.2,0-0.4
		c0-0.1,0-0.3,0-0.4c0,0,0,0,0,0c0-0.2,0-0.4,0-0.6V26c0-0.6,0-1.2-0.2-1.7c0.7-4.6-0.7-9.5-3.9-13c-1.8-2-4-3.5-6.6-4.4
		c-1.6-0.6-3.1-0.7-4.7-0.7c-3.1,0-60.2,0-69.5,0c-2.7,0-0.9,3.5,0,4.5c1.3,1.5,3.1,2.4,5.1,2.5c0.3,0,23.9,0,42.2,0
		c0,0,0.1,0,0.1,0c0.5,0,0.9,0,1.4,0h12.5c1.5,0,3.1,0,4.6,0c1.2,0,2.5-0.2,3.7,0c0,0,0,0,0.1,0c0,0,0.1,0,0.1,0h-0.8
		c7,0.5,10.8,9.1,6.1,14.7c-1.4,1.7-3.6,3-5.8,3h0.8c-1.2,0.3-2.6,0.1-3.8,0.1c-2.7,0-5.3,0-8,0c-2.6,0-5.3,0-7.9,0
		c-0.9,0-1.7,0-2.6,0c-0.3,0-0.7,0.1-0.9-0.1h-40.9c-3.3,0-6.4,1.9-7.2,5.2c-0.1,0.2-0.1,0.5-0.1,0.6c0,0.1,0,0.1,0,0.2V106
		C298,106.1,298,106.2,298,106.3"/>
	<path id="XMLID_134_" clip-path="url(#XMLID_239_)" fill="#6F6E6F" d="M357.6,84.1c0,2.4-1.9,4.3-4.3,4.3s-4.3-1.9-4.3-4.3V72.6
		h-15.9v11.6c0,2.4-1.9,4.3-4.3,4.3s-4.3-1.9-4.3-4.3V52.8c0-2.4,1.9-4.3,4.3-4.3s4.3,1.9,4.3,4.3v11.8H349V52.8
		c0-2.4,1.9-4.3,4.3-4.3s4.3,1.9,4.3,4.3V84.1z"/>
	<path id="XMLID_133_" clip-path="url(#XMLID_239_)" fill="#2EAAE1" d="M53.8,306.9H30.6c1.2-0.3,2.6-0.1,3.8-0.1c2.7,0,5.3,0,8,0
		c2.6,0,5.3,0,7.9,0c0.9,0,1.7,0,2.6,0C53.2,306.9,53.7,306.8,53.8,306.9"/>
	<path id="XMLID_132_" clip-path="url(#XMLID_239_)" fill="#2EAAE1" d="M53.8,324.6c-0.2,0-0.4,0-0.5,0c0,0-0.1,0-0.1,0
		c-0.5,0-0.9,0-1.4,0c-0.4,0-0.9,0-1.3,0c-2.4,0-4.9,0-7.3,0h-4c-1.5,0-3.1,0-4.6,0c-1.2,0-2.5,0.2-3.7,0c0,0,0,0-0.1,0
		c0,0-0.1,0-0.1,0h0.8C38.8,324.6,46.5,324.6,53.8,324.6"/>
	<path id="XMLID_131_" clip-path="url(#XMLID_239_)" fill="#2EAAE1" d="M37.5,299.9h-0.6c-1.6,0-3.1,0-4.3,0h19
		C46.7,299.9,41.6,299.9,37.5,299.9"/>
	<path id="XMLID_130_" clip-path="url(#XMLID_239_)" fill="#2EAAE1" d="M38.3,299.9h-5.7c1.2,0,2.7,0,4.3,0h0.6
		C37.8,299.9,38,299.9,38.3,299.9"/>
	<path id="XMLID_129_" clip-path="url(#XMLID_239_)" fill="#2EAAE1" d="M39.3,324.7c-1.5,0-3.1,0-4.6,0c-1.2,0-2.5,0.2-3.7,0
		c0,0,0,0-0.1,0c0,0-0.1,0-0.1,0h0.8c0.2,0,0.4,0,0.6,0C33,324.7,35.6,324.7,39.3,324.7"/>
	<path id="XMLID_128_" clip-path="url(#XMLID_239_)" fill="#2EAAE1" d="M53.8,306.9H30.6c1.2-0.3,2.6-0.1,3.8-0.1c2.7,0,5.3,0,8,0
		c2.6,0,5.3,0,7.9,0c0.9,0,1.7,0,2.6,0C53.2,306.9,53.7,306.8,53.8,306.9"/>
	<path id="XMLID_127_" clip-path="url(#XMLID_239_)" fill="#2EAAE1" d="M28,318.4c0.6-1.6,2-1.8,3.4-1.8h63.2c0.4,0,0.8,0,1.2,0.1
		c3,0.6,2.5,5.2-0.5,5.2H30.5C28.7,321.9,27.4,320.1,28,318.4"/>
	<path id="XMLID_126_" clip-path="url(#XMLID_239_)" fill="#2EAAE1" d="M28,311.2c0.6-1.6,2-1.8,3.4-1.8h63.2c0.4,0,0.8,0,1.2,0.1
		c3,0.6,2.5,5.2-0.5,5.2H30.5C28.7,314.8,27.4,313,28,311.2"/>
	<path id="XMLID_358_" clip-path="url(#XMLID_239_)" fill="#2EAAE1" d="M32.6,299.9c1.2,0,2.7,0,4.3,0c-2.7,0-5.4-0.2-8,0.1
		c-2.3,0.2-4.5,1.1-6.4,2.5v-67.2h72.6v64.6H32.6z M102,231.5c0-0.1,0-0.2,0-0.3c-0.1-0.4-0.2-0.7-0.3-1.1c-0.1-0.3-0.3-0.5-0.5-0.7
		c-0.1-0.1-0.3-0.3-0.4-0.4c-0.1-0.1-0.2-0.2-0.4-0.2c-0.4-0.2-0.8-0.3-1.2-0.4c-0.2,0-0.3,0-0.5,0H27.9h-7.6c-0.2,0-0.5,0-0.7,0
		c-1.4,0.1-2.7,0.5-3.4,1.6c0,0.1-0.1,0.1-0.1,0.2c-0.1,0.1-0.1,0.2-0.2,0.3c-0.1,0.2-0.1,0.4-0.2,0.6c0,0.1,0,0.2,0,0.4
		c0,0.1,0,0.3,0,0.4c0,0,0,0,0,0c0,0.2,0,0.4,0,0.6v79.1c0,0.6,0,1.2,0.2,1.7c-0.7,4.6,0.7,9.5,3.9,13c1.8,2,4,3.5,6.6,4.4
		c1.6,0.6,3,0.7,4.7,0.7c3.1,0,60.2,0,69.5,0c2.7,0,0.9-3.5,0-4.5c-1.3-1.5-3.1-2.4-5.1-2.5c-0.3,0-23.9,0-42.2,0c0,0-0.1,0-0.1,0
		c-0.5,0-0.9,0-1.4,0H39.3c-1.5,0-3.1,0-4.6,0c-1.2,0-2.5,0.2-3.7,0c0,0,0,0-0.1,0c0,0-0.1,0-0.1,0h0.8c-7-0.5-10.8-9.1-6.1-14.7
		c1.4-1.7,3.6-3,5.8-3h-0.8c1.2-0.3,2.6-0.1,3.8-0.1c2.7,0,5.3,0,8,0c2.6,0,5.3,0,7.9,0c0.9,0,1.7,0,2.6,0c0.3,0,0.7-0.1,0.9,0.1
		h40.9c3.3,0,6.4-1.9,7.2-5.2c0.1-0.2,0.1-0.5,0.1-0.6c0-0.1,0-0.1,0-0.2v-69.1C102,231.6,102,231.5,102,231.5"/>
	<path id="XMLID_123_" clip-path="url(#XMLID_239_)" fill="#2EAAE1" d="M42.4,253.6c0-2.4,1.9-4.3,4.3-4.3c2.4,0,4.3,1.9,4.3,4.3
		v11.6h15.9v-11.6c0-2.4,1.9-4.3,4.3-4.3c2.4,0,4.3,1.9,4.3,4.3v31.3c0,2.4-1.9,4.3-4.3,4.3c-2.4,0-4.3-1.9-4.3-4.3v-11.8H51v11.8
		c0,2.4-1.9,4.3-4.3,4.3c-2.4,0-4.3-1.9-4.3-4.3V253.6z"/>
	<path id="XMLID_122_" clip-path="url(#XMLID_239_)" fill="#231F20" d="M148,364.2h-23.2c1.2,0.3,2.6,0.1,3.8,0.1c2.7,0,5.3,0,8,0
		c2.6,0,5.3,0,7.9,0c0.9,0,1.7,0,2.6,0C147.3,364.3,147.8,364.3,148,364.2"/>
	<path id="XMLID_121_" clip-path="url(#XMLID_239_)" fill="#231F20" d="M148,346.5c-0.2,0-0.4,0-0.5,0c0,0-0.1,0-0.1,0
		c-0.5,0-0.9,0-1.4,0c-0.4,0-0.9,0-1.3,0c-2.4,0-4.9,0-7.3,0h-4c-1.5,0-3.1,0-4.6,0c-1.2,0-2.5-0.2-3.7,0c0,0,0,0-0.1,0
		c0,0-0.1,0-0.1,0h0.8C133,346.5,140.6,346.5,148,346.5"/>
	<path id="XMLID_120_" clip-path="url(#XMLID_239_)" fill="#231F20" d="M145.7,371.2h-19c1.2,0,2.7,0,4.3,0h0.6
		C135.7,371.3,140.8,371.3,145.7,371.2"/>
	<path id="XMLID_119_" clip-path="url(#XMLID_239_)" fill="#231F20" d="M132.5,371.2h-5.7c1.2,0,2.7,0,4.3,0h0.6
		C131.9,371.2,132.2,371.2,132.5,371.2"/>
	<path id="XMLID_118_" clip-path="url(#XMLID_239_)" fill="#231F20" d="M133.4,346.5c-1.5,0-3.1,0-4.6,0c-1.2,0-2.5-0.2-3.7,0
		c0,0,0,0-0.1,0c0,0-0.1,0-0.1,0h0.8c0.2,0,0.4,0,0.6,0C127.2,346.5,129.7,346.5,133.4,346.5"/>
	<path id="XMLID_117_" clip-path="url(#XMLID_239_)" fill="#231F20" d="M148,364.2h-23.2c1.2,0.3,2.6,0.1,3.8,0.1c2.7,0,5.3,0,8,0
		c2.6,0,5.3,0,7.9,0c0.9,0,1.7,0,2.6,0C147.3,364.3,147.8,364.3,148,364.2"/>
	<path id="XMLID_116_" clip-path="url(#XMLID_239_)" fill="#231F20" d="M122.2,352.8c0.6,1.6,2,1.8,3.4,1.8h63.2
		c0.4,0,0.8,0,1.2-0.1c3-0.6,2.5-5.2-0.5-5.2h-64.7C122.9,349.3,121.6,351.1,122.2,352.8"/>
	<path id="XMLID_115_" clip-path="url(#XMLID_239_)" fill="#231F20" d="M122.2,359.9c0.6,1.6,2,1.8,3.4,1.8h63.2
		c0.4,0,0.8,0,1.2-0.1c3-0.6,2.5-5.2-0.5-5.2h-64.7C122.9,356.4,121.6,358.2,122.2,359.9"/>
	<path id="XMLID_346_" clip-path="url(#XMLID_239_)" fill="#231F20" d="M189.2,371.2v64.6h-72.6v-67.2c1.9,1.4,4.1,2.3,6.4,2.5
		c2.6,0.2,5.3,0.1,8,0.1c-1.6,0-3.1,0-4.3,0H189.2z M196.1,439.4v-69.1c0-0.1,0-0.1,0-0.2c0-0.2,0-0.4-0.1-0.6
		c-0.9-3.4-3.9-5.2-7.2-5.2H148c-0.2,0.1-0.6,0.1-0.9,0.1c-0.9,0-1.7,0-2.6,0c-2.6,0-5.3,0-7.9,0c-2.7,0-5.3,0-8,0
		c-1.2,0-2.7,0.2-3.8-0.1h0.8c-2.3,0-4.4-1.3-5.8-3c-4.7-5.6-0.9-14.2,6.1-14.7h-0.8c0,0,0.1,0,0.1,0c0,0,0.1,0,0.1,0
		c1.2-0.2,2.5,0,3.7,0c1.5,0,3.1,0,4.6,0h12.5c0.5,0,0.9,0,1.4,0c0,0,0.1,0,0.1,0c18.3,0,41.9,0,42.2,0c2-0.1,3.8-1,5.1-2.5
		c0.8-1,2.6-4.5,0-4.5c-9.3,0-66.4,0-69.5,0c-1.7,0-3.1,0.1-4.7,0.7c-2.5,0.9-4.8,2.4-6.6,4.4c-3.2,3.6-4.6,8.4-3.9,13
		c-0.1,0.5-0.2,1.1-0.2,1.7v79.1c0,0.2,0,0.4,0,0.6c0,0,0,0,0,0c0,0.1,0,0.3,0,0.4c0,0.1,0,0.2,0,0.4c0,0.2,0.1,0.4,0.2,0.6
		c0,0.1,0.1,0.2,0.2,0.3c0,0.1,0.1,0.1,0.1,0.2c0.7,1.1,2,1.5,3.4,1.6c0.2,0,0.5,0,0.7,0h7.6h70.7c0.2,0,0.3,0,0.5,0
		c0.4-0.1,0.9-0.2,1.2-0.4c0.1-0.1,0.2-0.2,0.4-0.2c0.2-0.1,0.3-0.2,0.4-0.4c0.2-0.2,0.4-0.4,0.5-0.7c0.2-0.3,0.3-0.7,0.3-1.1
		c0-0.1,0-0.2,0-0.3C196.1,439.6,196.1,439.5,196.1,439.4"/>
	<path id="XMLID_112_" clip-path="url(#XMLID_239_)" fill="#231F20" d="M136.5,386.2c0-2.4,1.9-4.3,4.3-4.3s4.3,1.9,4.3,4.3V398
		h15.9v-11.8c0-2.4,1.9-4.3,4.3-4.3s4.3,1.9,4.3,4.3v31.3c0,2.4-1.9,4.3-4.3,4.3s-4.3-1.9-4.3-4.3V406h-15.9v11.6
		c0,2.4-1.9,4.3-4.3,4.3s-4.3-1.9-4.3-4.3V386.2z"/>
	<path id="XMLID_111_" clip-path="url(#XMLID_239_)" fill="#6F6E6F" d="M63.8,418.1H87c-1.2-0.3-2.6-0.1-3.8-0.1c-2.7,0-5.3,0-8,0
		c-2.6,0-5.3,0-7.9,0c-0.9,0-1.7,0-2.6,0C64.4,418,64,417.9,63.8,418.1"/>
	<path id="XMLID_110_" clip-path="url(#XMLID_239_)" fill="#6F6E6F" d="M63.8,435.8c0.2,0,0.4,0,0.5,0c0,0,0.1,0,0.1,0
		c0.5,0,0.9,0,1.4,0c0.4,0,0.9,0,1.3,0c2.4,0,4.9,0,7.3,0h4c1.5,0,3.1,0,4.6,0c1.2,0,2.5,0.2,3.7,0c0,0,0,0,0.1,0c0,0,0.1,0,0.1,0
		H86C78.8,435.8,71.1,435.8,63.8,435.8"/>
	<path id="XMLID_109_" clip-path="url(#XMLID_239_)" fill="#6F6E6F" d="M66,411h19c-1.2,0-2.7,0-4.3,0h-0.6C76,411,70.9,411,66,411"
		/>
	<path id="XMLID_108_" clip-path="url(#XMLID_239_)" fill="#6F6E6F" d="M79.3,411H85c-1.2,0-2.7,0-4.3,0h-0.6
		C79.8,411,79.6,411,79.3,411"/>
	<path id="XMLID_107_" clip-path="url(#XMLID_239_)" fill="#6F6E6F" d="M78.3,435.8c1.5,0,3.1,0,4.6,0c1.2,0,2.5,0.2,3.7,0
		c0,0,0,0,0.1,0c0,0,0.1,0,0.1,0H86c-0.2,0-0.4,0-0.6,0C84.6,435.8,82,435.8,78.3,435.8"/>
	<path id="XMLID_106_" clip-path="url(#XMLID_239_)" fill="#6F6E6F" d="M63.8,418.1H87c-1.2-0.3-2.6-0.1-3.8-0.1c-2.7,0-5.3,0-8,0
		c-2.6,0-5.3,0-7.9,0c-0.9,0-1.7,0-2.6,0C64.4,418,64,417.9,63.8,418.1"/>
	<path id="XMLID_105_" clip-path="url(#XMLID_239_)" fill="#6F6E6F" d="M89.6,429.5c-0.6-1.6-2-1.8-3.4-1.8H23c-0.4,0-0.8,0-1.2,0.1
		c-3,0.6-2.5,5.2,0.5,5.2h64.7C88.9,433,90.2,431.2,89.6,429.5"/>
	<path id="XMLID_104_" clip-path="url(#XMLID_239_)" fill="#6F6E6F" d="M89.6,422.4c-0.6-1.6-2-1.8-3.4-1.8H23c-0.4,0-0.8,0-1.2,0.1
		c-3,0.6-2.5,5.2,0.5,5.2h64.7C88.9,425.9,90.2,424.1,89.6,422.4"/>
	<path id="XMLID_334_" clip-path="url(#XMLID_239_)" fill="#6F6E6F" d="M22.5,411v-64.6h72.6v67.2c-1.9-1.4-4.1-2.3-6.4-2.5
		c-2.6-0.2-5.3-0.1-8-0.1c1.6,0,3.1,0,4.3,0H22.5z M15.6,342.9V412c0,0.1,0,0.1,0,0.2c0,0.2,0,0.4,0.1,0.6c0.9,3.4,3.9,5.2,7.2,5.2
		h40.9c0.2-0.1,0.6-0.1,0.9-0.1c0.9,0,1.7,0,2.6,0c2.6,0,5.3,0,7.9,0c2.7,0,5.3,0,8,0c1.2,0,2.7-0.2,3.8,0.1h-0.8
		c2.3,0,4.4,1.3,5.8,3c4.7,5.6,0.9,14.2-6.1,14.7h0.8c0,0-0.1,0-0.1,0c0,0-0.1,0-0.1,0c-1.2,0.2-2.5,0-3.7,0c-1.5,0-3.1,0-4.6,0
		H65.8c-0.5,0-0.9,0-1.4,0c0,0-0.1,0-0.1,0c-18.3,0-41.9,0-42.2,0c-2,0.1-3.8,1-5.1,2.5c-0.8,1-2.6,4.5,0,4.5c9.3,0,66.4,0,69.5,0
		c1.7,0,3.1-0.1,4.7-0.7c2.5-0.9,4.8-2.4,6.6-4.4c3.2-3.6,4.6-8.4,3.9-13c0.1-0.5,0.2-1.1,0.2-1.7v-79.1c0-0.2,0-0.4,0-0.6
		c0,0,0,0,0,0c0-0.1,0-0.3,0-0.4c0-0.1,0-0.2,0-0.4c0-0.2-0.1-0.4-0.2-0.6c0-0.1-0.1-0.2-0.2-0.3c0-0.1-0.1-0.1-0.1-0.2
		c-0.7-1.1-2-1.5-3.4-1.6c-0.2,0-0.5,0-0.7,0h-7.6H19c-0.2,0-0.3,0-0.5,0c-0.4,0.1-0.9,0.2-1.2,0.4c-0.1,0.1-0.2,0.2-0.4,0.2
		c-0.2,0.1-0.3,0.2-0.4,0.4c-0.2,0.2-0.4,0.4-0.5,0.7c-0.2,0.3-0.3,0.7-0.3,1.1c0,0.1,0,0.2,0,0.3C15.6,342.7,15.6,342.8,15.6,342.9
		"/>
	<path id="XMLID_101_" clip-path="url(#XMLID_239_)" fill="#6F6E6F" d="M75.2,396.1c0,2.4-1.9,4.3-4.3,4.3c-2.4,0-4.3-1.9-4.3-4.3
		v-11.8H50.7v11.8c0,2.4-1.9,4.3-4.3,4.3s-4.3-1.9-4.3-4.3v-31.3c0-2.4,1.9-4.3,4.3-4.3s4.3,1.9,4.3,4.3v11.6h15.9v-11.6
		c0-2.4,1.9-4.3,4.3-4.3c2.4,0,4.3,1.9,4.3,4.3V396.1z"/>
	<path id="XMLID_100_" clip-path="url(#XMLID_239_)" fill="#6F6E6F" d="M157.9,253.1h23.2c-1.2,0.3-2.6,0.1-3.8,0.1
		c-2.7,0-5.3,0-8,0c-2.6,0-5.3,0-7.9,0c-0.9,0-1.7,0-2.6,0C158.6,253.1,158.1,253.2,157.9,253.1"/>
	<path id="XMLID_99_" clip-path="url(#XMLID_239_)" fill="#6F6E6F" d="M157.9,235.4c0.2,0,0.4,0,0.5,0c0,0,0.1,0,0.1,0
		c0.5,0,0.9,0,1.4,0c0.4,0,0.9,0,1.3,0c2.4,0,4.9,0,7.3,0h4c1.5,0,3.1,0,4.6,0c1.2,0,2.5-0.2,3.7,0c0,0,0,0,0.1,0c0,0,0.1,0,0.1,0
		h-0.8C172.9,235.4,165.3,235.4,157.9,235.4"/>
	<path id="XMLID_98_" clip-path="url(#XMLID_239_)" fill="#6F6E6F" d="M174.2,260.1h0.6c1.6,0,3.1,0,4.3,0h-19
		C165.1,260.1,170.1,260.1,174.2,260.1"/>
	<path id="XMLID_97_" clip-path="url(#XMLID_239_)" fill="#6F6E6F" d="M173.4,260.1h5.7c-1.2,0-2.7,0-4.3,0h-0.6
		C174,260.1,173.7,260.1,173.4,260.1"/>
	<path id="XMLID_96_" clip-path="url(#XMLID_239_)" fill="#6F6E6F" d="M172.4,235.3c1.5,0,3.1,0,4.6,0c1.2,0,2.5-0.2,3.7,0
		c0,0,0,0,0.1,0c0,0,0.1,0,0.1,0h-0.8c-0.2,0-0.4,0-0.6,0C178.7,235.3,176.1,235.3,172.4,235.3"/>
	<path id="XMLID_95_" clip-path="url(#XMLID_239_)" fill="#6F6E6F" d="M157.9,253.1h23.2c-1.2,0.3-2.6,0.1-3.8,0.1c-2.7,0-5.3,0-8,0
		c-2.6,0-5.3,0-7.9,0c-0.9,0-1.7,0-2.6,0C158.6,253.1,158.1,253.2,157.9,253.1"/>
	<path id="XMLID_94_" clip-path="url(#XMLID_239_)" fill="#6F6E6F" d="M183.7,241.6c-0.6,1.6-2,1.8-3.4,1.8h-63.2
		c-0.4,0-0.8,0-1.2-0.1c-3-0.6-2.5-5.2,0.5-5.2h64.7C183,238.1,184.3,239.9,183.7,241.6"/>
	<path id="XMLID_93_" clip-path="url(#XMLID_239_)" fill="#6F6E6F" d="M183.7,248.8c-0.6,1.6-2,1.8-3.4,1.8h-63.2
		c-0.4,0-0.8,0-1.2-0.1c-3-0.6-2.5-5.2,0.5-5.2h64.7C183,245.2,184.3,247,183.7,248.8"/>
	<path id="XMLID_322_" clip-path="url(#XMLID_239_)" fill="#6F6E6F" d="M179.2,260.1c-1.2,0-2.7,0-4.3,0c2.7,0,5.4,0.2,8-0.1
		c2.3-0.2,4.5-1.1,6.4-2.5v67.2h-72.6v-64.6H179.2z M109.7,328.5c0,0.1,0,0.2,0,0.3c0.1,0.4,0.2,0.7,0.3,1.1
		c0.1,0.3,0.3,0.5,0.5,0.7c0.1,0.1,0.3,0.3,0.4,0.4c0.1,0.1,0.2,0.2,0.4,0.2c0.4,0.2,0.8,0.3,1.2,0.4c0.2,0,0.3,0,0.5,0h70.7h7.6
		c0.2,0,0.5,0,0.7,0c1.4-0.1,2.7-0.5,3.4-1.6c0-0.1,0.1-0.1,0.1-0.2c0.1-0.1,0.1-0.2,0.2-0.3c0.1-0.2,0.1-0.4,0.2-0.6
		c0-0.1,0-0.2,0-0.4c0-0.1,0-0.3,0-0.4c0,0,0,0,0,0c0-0.2,0-0.4,0-0.6v-79.1c0-0.6,0-1.2-0.2-1.7c0.7-4.6-0.7-9.5-3.9-13
		c-1.8-2-4-3.5-6.6-4.4c-1.6-0.6-3-0.7-4.7-0.7c-3.1,0-60.2,0-69.5,0c-2.7,0-0.9,3.5,0,4.5c1.3,1.5,3.1,2.4,5.1,2.5
		c0.3,0,23.9,0,42.2,0c0,0,0.1,0,0.1,0c0.5,0,0.9,0,1.4,0h12.5c1.5,0,3.1,0,4.6,0c1.2,0,2.5-0.2,3.7,0c0,0,0,0,0.1,0
		c0,0,0.1,0,0.1,0h-0.8c7,0.5,10.8,9.1,6.1,14.7c-1.4,1.7-3.6,3-5.8,3h0.8c-1.2,0.3-2.6,0.1-3.8,0.1c-2.7,0-5.3,0-8,0
		c-2.6,0-5.3,0-7.9,0c-0.9,0-1.7,0-2.6,0c-0.3,0-0.7,0.1-0.9-0.1h-40.9c-3.3,0-6.4,1.9-7.2,5.2c-0.1,0.2-0.1,0.5-0.1,0.6
		c0,0.1,0,0.1,0,0.2v69.1C109.7,328.4,109.7,328.5,109.7,328.5"/>
	<path id="XMLID_90_" clip-path="url(#XMLID_239_)" fill="#6F6E6F" d="M169.4,306.4c0,2.4-1.9,4.3-4.3,4.3c-2.4,0-4.3-1.9-4.3-4.3
		v-11.6h-15.9v11.6c0,2.4-1.9,4.3-4.3,4.3s-4.3-1.9-4.3-4.3v-31.3c0-2.4,1.9-4.3,4.3-4.3s4.3,1.9,4.3,4.3v11.8h15.9v-11.8
		c0-2.4,1.9-4.3,4.3-4.3c2.4,0,4.3,1.9,4.3,4.3V306.4z"/>
	<path id="XMLID_89_" clip-path="url(#XMLID_239_)" fill="#231F20" d="M242.1,306.9h-23.2c1.2-0.3,2.6-0.1,3.8-0.1c2.7,0,5.3,0,8,0
		c2.6,0,5.3,0,7.9,0c0.9,0,1.7,0,2.6,0C241.4,306.9,241.9,306.8,242.1,306.9"/>
	<path id="XMLID_88_" clip-path="url(#XMLID_239_)" fill="#231F20" d="M242.1,324.6c-0.2,0-0.4,0-0.5,0c0,0-0.1,0-0.1,0
		c-0.5,0-0.9,0-1.4,0c-0.4,0-0.9,0-1.3,0c-2.4,0-4.9,0-7.3,0h-4c-1.5,0-3.1,0-4.6,0c-1.2,0-2.5,0.2-3.7,0c0,0,0,0-0.1,0
		c0,0-0.1,0-0.1,0h0.8C227.1,324.6,234.7,324.6,242.1,324.6"/>
	<path id="XMLID_87_" clip-path="url(#XMLID_239_)" fill="#231F20" d="M225.8,299.9h-0.6c-1.6,0-3.1,0-4.3,0h19
		C234.9,299.9,229.9,299.9,225.8,299.9"/>
	<path id="XMLID_86_" clip-path="url(#XMLID_239_)" fill="#231F20" d="M226.6,299.9h-5.7c1.2,0,2.7,0,4.3,0h0.6
		C226,299.9,226.3,299.9,226.6,299.9"/>
	<path id="XMLID_85_" clip-path="url(#XMLID_239_)" fill="#231F20" d="M227.6,324.7c-1.5,0-3.1,0-4.6,0c-1.2,0-2.5,0.2-3.7,0
		c0,0,0,0-0.1,0c0,0-0.1,0-0.1,0h0.8c0.2,0,0.4,0,0.6,0C221.3,324.7,223.9,324.7,227.6,324.7"/>
	<path id="XMLID_84_" clip-path="url(#XMLID_239_)" fill="#231F20" d="M242.1,306.9h-23.2c1.2-0.3,2.6-0.1,3.8-0.1c2.7,0,5.3,0,8,0
		c2.6,0,5.3,0,7.9,0c0.9,0,1.7,0,2.6,0C241.4,306.9,241.9,306.8,242.1,306.9"/>
	<path id="XMLID_83_" clip-path="url(#XMLID_239_)" fill="#231F20" d="M216.3,318.4c0.6-1.6,2-1.8,3.4-1.8h63.2c0.4,0,0.8,0,1.2,0.1
		c3,0.6,2.5,5.2-0.5,5.2h-64.7C217,321.9,215.7,320.1,216.3,318.4"/>
	<path id="XMLID_82_" clip-path="url(#XMLID_239_)" fill="#231F20" d="M216.3,311.2c0.6-1.6,2-1.8,3.4-1.8h63.2c0.4,0,0.8,0,1.2,0.1
		c3,0.6,2.5,5.2-0.5,5.2h-64.7C217,314.8,215.7,313,216.3,311.2"/>
	<path id="XMLID_310_" clip-path="url(#XMLID_239_)" fill="#231F20" d="M220.8,299.9c1.2,0,2.7,0,4.3,0c-2.7,0-5.4-0.2-8,0.1
		c-2.3,0.2-4.5,1.1-6.4,2.5v-67.2h72.6v64.6H220.8z M290.3,231.5c0-0.1,0-0.2,0-0.3c-0.1-0.4-0.2-0.7-0.3-1.1
		c-0.1-0.3-0.3-0.5-0.5-0.7c-0.1-0.1-0.3-0.3-0.4-0.4c-0.1-0.1-0.2-0.2-0.4-0.2c-0.4-0.2-0.8-0.3-1.2-0.4c-0.2,0-0.3,0-0.5,0h-70.7
		h-7.6c-0.2,0-0.5,0-0.7,0c-1.4,0.1-2.7,0.5-3.4,1.6c0,0.1-0.1,0.1-0.1,0.2c-0.1,0.1-0.1,0.2-0.2,0.3c-0.1,0.2-0.1,0.4-0.2,0.6
		c0,0.1,0,0.2,0,0.4c0,0.1,0,0.3,0,0.4c0,0,0,0,0,0c0,0.2,0,0.4,0,0.6v79.1c0,0.6,0,1.2,0.2,1.7c-0.7,4.6,0.7,9.5,3.9,13
		c1.8,2,4,3.5,6.6,4.4c1.6,0.6,3,0.7,4.7,0.7c3.1,0,60.2,0,69.5,0c2.7,0,0.9-3.5,0-4.5c-1.3-1.5-3.1-2.4-5.1-2.5
		c-0.3,0-23.9,0-42.2,0c0,0-0.1,0-0.1,0c-0.5,0-0.9,0-1.4,0h-12.5c-1.5,0-3.1,0-4.6,0c-1.2,0-2.5,0.2-3.7,0c0,0,0,0-0.1,0
		c0,0-0.1,0-0.1,0h0.8c-7-0.5-10.8-9.1-6.1-14.7c1.4-1.7,3.6-3,5.8-3h-0.8c1.2-0.3,2.6-0.1,3.8-0.1c2.7,0,5.3,0,8,0
		c2.6,0,5.3,0,7.9,0c0.9,0,1.7,0,2.6,0c0.3,0,0.7-0.1,0.9,0.1h40.9c3.3,0,6.4-1.9,7.2-5.2c0.1-0.2,0.1-0.5,0.1-0.6
		c0-0.1,0-0.1,0-0.2v-69.1C290.3,231.6,290.3,231.5,290.3,231.5"/>
	<path id="XMLID_79_" clip-path="url(#XMLID_239_)" fill="#231F20" d="M230.6,253.6c0-2.4,1.9-4.3,4.3-4.3c2.4,0,4.3,1.9,4.3,4.3
		v11.6h15.9v-11.6c0-2.4,1.9-4.3,4.3-4.3s4.3,1.9,4.3,4.3v31.3c0,2.4-1.9,4.3-4.3,4.3s-4.3-1.9-4.3-4.3v-11.8h-15.9v11.8
		c0,2.4-1.9,4.3-4.3,4.3c-2.4,0-4.3-1.9-4.3-4.3V253.6z"/>
	<path id="XMLID_78_" clip-path="url(#XMLID_239_)" fill="#2EAAE1" d="M336.2,364.2H313c1.2,0.3,2.6,0.1,3.8,0.1c2.7,0,5.3,0,8,0
		c2.6,0,5.3,0,7.9,0c0.9,0,1.7,0,2.6,0C335.6,364.3,336,364.3,336.2,364.2"/>
	<path id="XMLID_77_" clip-path="url(#XMLID_239_)" fill="#2EAAE1" d="M336.2,346.5c-0.2,0-0.4,0-0.5,0c0,0-0.1,0-0.1,0
		c-0.5,0-0.9,0-1.4,0c-0.4,0-0.9,0-1.3,0c-2.4,0-4.9,0-7.3,0h-4c-1.5,0-3.1,0-4.6,0c-1.2,0-2.5-0.2-3.7,0c0,0,0,0-0.1,0
		c0,0-0.1,0-0.1,0h0.8C321.2,346.5,328.9,346.5,336.2,346.5"/>
	<path id="XMLID_76_" clip-path="url(#XMLID_239_)" fill="#2EAAE1" d="M334,371.2h-19c1.2,0,2.7,0,4.3,0h0.6
		C324,371.3,329.1,371.3,334,371.2"/>
	<path id="XMLID_75_" clip-path="url(#XMLID_239_)" fill="#2EAAE1" d="M320.7,371.2H315c1.2,0,2.7,0,4.3,0h0.6
		C320.2,371.2,320.4,371.2,320.7,371.2"/>
	<path id="XMLID_74_" clip-path="url(#XMLID_239_)" fill="#2EAAE1" d="M321.7,346.5c-1.5,0-3.1,0-4.6,0c-1.2,0-2.5-0.2-3.7,0
		c0,0,0,0-0.1,0c0,0-0.1,0-0.1,0h0.8c0.2,0,0.4,0,0.6,0C315.4,346.5,318,346.5,321.7,346.5"/>
	<path id="XMLID_73_" clip-path="url(#XMLID_239_)" fill="#2EAAE1" d="M336.2,364.2H313c1.2,0.3,2.6,0.1,3.8,0.1c2.7,0,5.3,0,8,0
		c2.6,0,5.3,0,7.9,0c0.9,0,1.7,0,2.6,0C335.6,364.3,336,364.3,336.2,364.2"/>
	<path id="XMLID_72_" clip-path="url(#XMLID_239_)" fill="#2EAAE1" d="M310.4,352.8c0.6,1.6,2,1.8,3.4,1.8H377c0.4,0,0.8,0,1.2-0.1
		c3-0.6,2.5-5.2-0.5-5.2h-64.7C311.1,349.3,309.8,351.1,310.4,352.8"/>
	<path id="XMLID_71_" clip-path="url(#XMLID_239_)" fill="#2EAAE1" d="M310.4,359.9c0.6,1.6,2,1.8,3.4,1.8H377c0.4,0,0.8,0,1.2-0.1
		c3-0.6,2.5-5.2-0.5-5.2h-64.7C311.1,356.4,309.8,358.2,310.4,359.9"/>
	<path id="XMLID_298_" clip-path="url(#XMLID_239_)" fill="#2EAAE1" d="M377.5,371.2v64.6h-72.6v-67.2c1.9,1.4,4.1,2.3,6.4,2.5
		c2.6,0.2,5.3,0.1,8,0.1c-1.6,0-3.1,0-4.3,0H377.5z M384.4,439.4v-69.1c0-0.1,0-0.1,0-0.2c0-0.2,0-0.4-0.1-0.6
		c-0.9-3.4-3.9-5.2-7.2-5.2h-40.9c-0.2,0.1-0.6,0.1-0.9,0.1c-0.9,0-1.7,0-2.6,0c-2.6,0-5.3,0-7.9,0c-2.7,0-5.3,0-8,0
		c-1.2,0-2.7,0.2-3.8-0.1h0.8c-2.3,0-4.4-1.3-5.8-3c-4.7-5.6-0.9-14.2,6.1-14.7h-0.8c0,0,0.1,0,0.1,0c0,0,0.1,0,0.1,0
		c1.2-0.2,2.5,0,3.7,0c1.5,0,3.1,0,4.6,0h12.5c0.5,0,0.9,0,1.4,0c0,0,0.1,0,0.1,0c18.3,0,41.9,0,42.2,0c2-0.1,3.8-1,5.1-2.5
		c0.8-1,2.6-4.5,0-4.5c-9.3,0-66.4,0-69.5,0c-1.7,0-3.1,0.1-4.7,0.7c-2.5,0.9-4.8,2.4-6.6,4.4c-3.2,3.6-4.6,8.4-3.9,13
		c-0.1,0.5-0.2,1.1-0.2,1.7v79.1c0,0.2,0,0.4,0,0.6c0,0,0,0,0,0c0,0.1,0,0.3,0,0.4c0,0.1,0,0.2,0,0.4c0,0.2,0.1,0.4,0.2,0.6
		c0,0.1,0.1,0.2,0.2,0.3c0,0.1,0.1,0.1,0.1,0.2c0.7,1.1,2,1.5,3.4,1.6c0.2,0,0.5,0,0.7,0h7.6H381c0.2,0,0.3,0,0.5,0
		c0.4-0.1,0.9-0.2,1.2-0.4c0.1-0.1,0.2-0.2,0.4-0.2c0.2-0.1,0.3-0.2,0.4-0.4c0.2-0.2,0.4-0.4,0.5-0.7c0.2-0.3,0.3-0.7,0.3-1.1
		c0-0.1,0-0.2,0-0.3C384.4,439.6,384.4,439.5,384.4,439.4"/>
	<path id="XMLID_68_" clip-path="url(#XMLID_239_)" fill="#2EAAE1" d="M324.8,386.2c0-2.4,1.9-4.3,4.3-4.3c2.4,0,4.3,1.9,4.3,4.3
		V398h15.9v-11.8c0-2.4,1.9-4.3,4.3-4.3c2.4,0,4.3,1.9,4.3,4.3v31.3c0,2.4-1.9,4.3-4.3,4.3c-2.4,0-4.3-1.9-4.3-4.3V406h-15.9v11.6
		c0,2.4-1.9,4.3-4.3,4.3c-2.4,0-4.3-1.9-4.3-4.3V386.2z"/>
	<path id="XMLID_67_" clip-path="url(#XMLID_239_)" fill="#FFCE31" d="M252,418.1h23.2c-1.2-0.3-2.6-0.1-3.8-0.1c-2.7,0-5.3,0-8,0
		c-2.6,0-5.3,0-7.9,0c-0.9,0-1.7,0-2.6,0C252.7,418,252.2,417.9,252,418.1"/>
	<path id="XMLID_66_" clip-path="url(#XMLID_239_)" fill="#FFCE31" d="M252,435.8c0.2,0,0.4,0,0.5,0c0,0,0.1,0,0.1,0
		c0.5,0,0.9,0,1.4,0c0.4,0,0.9,0,1.3,0c2.4,0,4.9,0,7.3,0h4c1.5,0,3.1,0,4.6,0c1.2,0,2.5,0.2,3.7,0c0,0,0,0,0.1,0c0,0,0.1,0,0.1,0
		h-0.8C267,435.8,259.4,435.8,252,435.8"/>
	<path id="XMLID_65_" clip-path="url(#XMLID_239_)" fill="#FFCE31" d="M254.3,411h19c-1.2,0-2.7,0-4.3,0h-0.6
		C264.3,411,259.2,411,254.3,411"/>
	<path id="XMLID_64_" clip-path="url(#XMLID_239_)" fill="#FFCE31" d="M267.5,411h5.7c-1.2,0-2.7,0-4.3,0h-0.6
		C268.1,411,267.8,411,267.5,411"/>
	<path id="XMLID_63_" clip-path="url(#XMLID_239_)" fill="#FFCE31" d="M266.6,435.8c1.5,0,3.1,0,4.6,0c1.2,0,2.5,0.2,3.7,0
		c0,0,0,0,0.1,0c0,0,0.1,0,0.1,0h-0.8c-0.2,0-0.4,0-0.6,0C272.8,435.8,270.3,435.8,266.6,435.8"/>
	<path id="XMLID_62_" clip-path="url(#XMLID_239_)" fill="#FFCE31" d="M252,418.1h23.2c-1.2-0.3-2.6-0.1-3.8-0.1c-2.7,0-5.3,0-8,0
		c-2.6,0-5.3,0-7.9,0c-0.9,0-1.7,0-2.6,0C252.7,418,252.2,417.9,252,418.1"/>
	<path id="XMLID_61_" clip-path="url(#XMLID_239_)" fill="#FFCE31" d="M277.8,429.5c-0.6-1.6-2-1.8-3.4-1.8h-63.2
		c-0.4,0-0.8,0-1.2,0.1c-3,0.6-2.5,5.2,0.5,5.2h64.7C277.1,433,278.4,431.2,277.8,429.5"/>
	<path id="XMLID_60_" clip-path="url(#XMLID_239_)" fill="#FFCE31" d="M277.8,422.4c-0.6-1.6-2-1.8-3.4-1.8h-63.2
		c-0.4,0-0.8,0-1.2,0.1c-3,0.6-2.5,5.2,0.5,5.2h64.7C277.1,425.9,278.4,424.1,277.8,422.4"/>
	<path id="XMLID_286_" clip-path="url(#XMLID_239_)" fill="#FFCE31" d="M210.8,411v-64.6h72.6v67.2c-1.9-1.4-4.1-2.3-6.4-2.5
		c-2.6-0.2-5.3-0.1-8-0.1c1.6,0,3.1,0,4.3,0H210.8z M203.9,342.9V412c0,0.1,0,0.1,0,0.2c0,0.2,0,0.4,0.1,0.6
		c0.9,3.4,3.9,5.2,7.2,5.2H252c0.2-0.1,0.6-0.1,0.9-0.1c0.9,0,1.7,0,2.6,0c2.6,0,5.3,0,7.9,0c2.7,0,5.3,0,8,0c1.2,0,2.7-0.2,3.8,0.1
		h-0.8c2.3,0,4.4,1.3,5.8,3c4.7,5.6,0.9,14.2-6.1,14.7h0.8c0,0-0.1,0-0.1,0c0,0-0.1,0-0.1,0c-1.2,0.2-2.5,0-3.7,0
		c-1.5,0-3.1,0-4.6,0h-12.5c-0.5,0-0.9,0-1.4,0c0,0-0.1,0-0.1,0c-18.3,0-41.9,0-42.2,0c-2,0.1-3.8,1-5.1,2.5c-0.8,1-2.6,4.5,0,4.5
		c9.3,0,66.4,0,69.5,0c1.7,0,3.1-0.1,4.7-0.7c2.5-0.9,4.8-2.4,6.6-4.4c3.2-3.6,4.6-8.4,3.9-13c0.1-0.5,0.2-1.1,0.2-1.7v-79.1
		c0-0.2,0-0.4,0-0.6c0,0,0,0,0,0c0-0.1,0-0.3,0-0.4c0-0.1,0-0.2,0-0.4c0-0.2-0.1-0.4-0.2-0.6c0-0.1-0.1-0.2-0.2-0.3
		c0-0.1-0.1-0.1-0.1-0.2c-0.7-1.1-2-1.5-3.4-1.6c-0.2,0-0.5,0-0.7,0H278h-70.7c-0.2,0-0.3,0-0.5,0c-0.4,0.1-0.9,0.2-1.2,0.4
		c-0.1,0.1-0.2,0.2-0.4,0.2c-0.2,0.1-0.3,0.2-0.4,0.4c-0.2,0.2-0.4,0.4-0.5,0.7c-0.2,0.3-0.3,0.7-0.3,1.1c0,0.1,0,0.2,0,0.3
		C203.9,342.7,203.9,342.8,203.9,342.9"/>
	<path id="XMLID_57_" clip-path="url(#XMLID_239_)" fill="#FFCE31" d="M263.5,396.1c0,2.4-1.9,4.3-4.3,4.3c-2.4,0-4.3-1.9-4.3-4.3
		v-11.8h-15.9v11.8c0,2.4-1.9,4.3-4.3,4.3c-2.4,0-4.3-1.9-4.3-4.3v-31.3c0-2.4,1.9-4.3,4.3-4.3c2.4,0,4.3,1.9,4.3,4.3v11.6h15.9
		v-11.6c0-2.4,1.9-4.3,4.3-4.3c2.4,0,4.3,1.9,4.3,4.3V396.1z"/>
	<path id="XMLID_56_" clip-path="url(#XMLID_239_)" fill="#FFCE31" d="M346.2,253.1h23.2c-1.2,0.3-2.6,0.1-3.8,0.1c-2.7,0-5.3,0-8,0
		c-2.6,0-5.3,0-7.9,0c-0.9,0-1.7,0-2.6,0C346.8,253.1,346.3,253.2,346.2,253.1"/>
	<path id="XMLID_55_" clip-path="url(#XMLID_239_)" fill="#FFCE31" d="M346.2,235.4c0.2,0,0.4,0,0.5,0c0,0,0.1,0,0.1,0
		c0.5,0,0.9,0,1.4,0c0.4,0,0.9,0,1.3,0c2.4,0,4.9,0,7.3,0h4c1.5,0,3.1,0,4.6,0c1.2,0,2.5-0.2,3.7,0c0,0,0,0,0.1,0c0,0,0.1,0,0.1,0
		h-0.8C361.2,235.4,353.5,235.4,346.2,235.4"/>
	<path id="XMLID_54_" clip-path="url(#XMLID_239_)" fill="#FFCE31" d="M362.5,260.1h0.6c1.6,0,3.1,0,4.3,0h-19
		C353.3,260.1,358.4,260.1,362.5,260.1"/>
	<path id="XMLID_53_" clip-path="url(#XMLID_239_)" fill="#FFCE31" d="M361.7,260.1h5.7c-1.2,0-2.7,0-4.3,0h-0.6
		C362.2,260.1,362,260.1,361.7,260.1"/>
	<path id="XMLID_52_" clip-path="url(#XMLID_239_)" fill="#FFCE31" d="M360.7,235.3c1.5,0,3.1,0,4.6,0c1.2,0,2.5-0.2,3.7,0
		c0,0,0,0,0.1,0c0,0,0.1,0,0.1,0h-0.8c-0.2,0-0.4,0-0.6,0C367,235.3,364.4,235.3,360.7,235.3"/>
	<path id="XMLID_51_" clip-path="url(#XMLID_239_)" fill="#FFCE31" d="M346.2,253.1h23.2c-1.2,0.3-2.6,0.1-3.8,0.1c-2.7,0-5.3,0-8,0
		c-2.6,0-5.3,0-7.9,0c-0.9,0-1.7,0-2.6,0C346.8,253.1,346.3,253.2,346.2,253.1"/>
	<path id="XMLID_50_" clip-path="url(#XMLID_239_)" fill="#FFCE31" d="M372,241.6c-0.6,1.6-2,1.8-3.4,1.8h-63.2
		c-0.4,0-0.8,0-1.2-0.1c-3-0.6-2.5-5.2,0.5-5.2h64.7C371.3,238.1,372.6,239.9,372,241.6"/>
	<path id="XMLID_49_" clip-path="url(#XMLID_239_)" fill="#FFCE31" d="M372,248.8c-0.6,1.6-2,1.8-3.4,1.8h-63.2
		c-0.4,0-0.8,0-1.2-0.1c-3-0.6-2.5-5.2,0.5-5.2h64.7C371.3,245.2,372.6,247,372,248.8"/>
	<path id="XMLID_274_" clip-path="url(#XMLID_239_)" fill="#FFCE31" d="M367.4,260.1c-1.2,0-2.7,0-4.3,0c2.7,0,5.4,0.2,8-0.1
		c2.3-0.2,4.5-1.1,6.4-2.5v67.2h-72.6v-64.6H367.4z M298,328.5c0,0.1,0,0.2,0,0.3c0.1,0.4,0.2,0.7,0.3,1.1c0.1,0.3,0.3,0.5,0.5,0.7
		c0.1,0.1,0.3,0.3,0.4,0.4c0.1,0.1,0.2,0.2,0.4,0.2c0.4,0.2,0.8,0.3,1.2,0.4c0.2,0,0.3,0,0.5,0h70.7h7.6c0.2,0,0.5,0,0.7,0
		c1.4-0.1,2.7-0.5,3.4-1.6c0-0.1,0.1-0.1,0.1-0.2c0.1-0.1,0.1-0.2,0.2-0.3c0.1-0.2,0.1-0.4,0.2-0.6c0-0.1,0-0.2,0-0.4
		c0-0.1,0-0.3,0-0.4c0,0,0,0,0,0c0-0.2,0-0.4,0-0.6v-79.1c0-0.6,0-1.2-0.2-1.7c0.7-4.6-0.7-9.5-3.9-13c-1.8-2-4-3.5-6.6-4.4
		c-1.6-0.6-3.1-0.7-4.7-0.7c-3.1,0-60.2,0-69.5,0c-2.7,0-0.9,3.5,0,4.5c1.3,1.5,3.1,2.4,5.1,2.5c0.3,0,23.9,0,42.2,0
		c0,0,0.1,0,0.1,0c0.5,0,0.9,0,1.4,0h12.5c1.5,0,3.1,0,4.6,0c1.2,0,2.5-0.2,3.7,0c0,0,0,0,0.1,0c0,0,0.1,0,0.1,0h-0.8
		c7,0.5,10.8,9.1,6.1,14.7c-1.4,1.7-3.6,3-5.8,3h0.8c-1.2,0.3-2.6,0.1-3.8,0.1c-2.7,0-5.3,0-8,0c-2.6,0-5.3,0-7.9,0
		c-0.9,0-1.7,0-2.6,0c-0.3,0-0.7,0.1-0.9-0.1h-40.9c-3.3,0-6.4,1.9-7.2,5.2c-0.1,0.2-0.1,0.5-0.1,0.6c0,0.1,0,0.1,0,0.2v69.1
		C298,328.4,298,328.5,298,328.5"/>
	<path id="XMLID_46_" clip-path="url(#XMLID_239_)" fill="#FFCE31" d="M357.6,306.4c0,2.4-1.9,4.3-4.3,4.3s-4.3-1.9-4.3-4.3v-11.6
		h-15.9v11.6c0,2.4-1.9,4.3-4.3,4.3s-4.3-1.9-4.3-4.3v-31.3c0-2.4,1.9-4.3,4.3-4.3s4.3,1.9,4.3,4.3v11.8H349v-11.8
		c0-2.4,1.9-4.3,4.3-4.3s4.3,1.9,4.3,4.3V306.4z"/>
	<path id="XMLID_45_" clip-path="url(#XMLID_239_)" fill="#231F20" d="M53.8,529.2H30.6c1.2-0.3,2.6-0.1,3.8-0.1c2.7,0,5.3,0,8,0
		c2.6,0,5.3,0,7.9,0c0.9,0,1.7,0,2.6,0C53.2,529.1,53.7,529.1,53.8,529.2"/>
	<path id="XMLID_44_" clip-path="url(#XMLID_239_)" fill="#231F20" d="M53.8,546.9c-0.2,0-0.4,0-0.5,0c0,0-0.1,0-0.1,0
		c-0.5,0-0.9,0-1.4,0c-0.4,0-0.9,0-1.3,0c-2.4,0-4.9,0-7.3,0h-4c-1.5,0-3.1,0-4.6,0c-1.2,0-2.5,0.2-3.7,0c0,0,0,0-0.1,0
		c0,0-0.1,0-0.1,0h0.8C38.8,546.9,46.5,546.9,53.8,546.9"/>
	<path id="XMLID_43_" clip-path="url(#XMLID_239_)" fill="#231F20" d="M37.5,522.2h-0.6c-1.6,0-3.1,0-4.3,0h19
		C46.7,522.2,41.6,522.2,37.5,522.2"/>
	<path id="XMLID_42_" clip-path="url(#XMLID_239_)" fill="#231F20" d="M38.3,522.2h-5.7c1.2,0,2.7,0,4.3,0h0.6
		C37.8,522.2,38,522.2,38.3,522.2"/>
	<path id="XMLID_41_" clip-path="url(#XMLID_239_)" fill="#231F20" d="M39.3,546.9c-1.5,0-3.1,0-4.6,0c-1.2,0-2.5,0.2-3.7,0
		c0,0,0,0-0.1,0c0,0-0.1,0-0.1,0h0.8c0.2,0,0.4,0,0.6,0C33,546.9,35.6,546.9,39.3,546.9"/>
	<path id="XMLID_40_" clip-path="url(#XMLID_239_)" fill="#231F20" d="M53.8,529.2H30.6c1.2-0.3,2.6-0.1,3.8-0.1c2.7,0,5.3,0,8,0
		c2.6,0,5.3,0,7.9,0c0.9,0,1.7,0,2.6,0C53.2,529.1,53.7,529.1,53.8,529.2"/>
	<path id="XMLID_39_" clip-path="url(#XMLID_239_)" fill="#231F20" d="M28,540.6c0.6-1.6,2-1.8,3.4-1.8h63.2c0.4,0,0.8,0,1.2,0.1
		c3,0.6,2.5,5.2-0.5,5.2H30.5C28.7,544.2,27.4,542.3,28,540.6"/>
	<path id="XMLID_38_" clip-path="url(#XMLID_239_)" fill="#231F20" d="M28,533.5c0.6-1.6,2-1.8,3.4-1.8h63.2c0.4,0,0.8,0,1.2,0.1
		c3,0.6,2.5,5.2-0.5,5.2H30.5C28.7,537,27.4,535.2,28,533.5"/>
	<path id="XMLID_262_" clip-path="url(#XMLID_239_)" fill="#231F20" d="M32.6,522.2c1.2,0,2.7,0,4.3,0c-2.7,0-5.4-0.2-8,0.1
		c-2.3,0.2-4.5,1.1-6.4,2.5v-67.2h72.6v64.6H32.6z M102,453.7c0-0.1,0-0.2,0-0.3c-0.1-0.4-0.2-0.7-0.3-1.1c-0.1-0.3-0.3-0.5-0.5-0.7
		c-0.1-0.1-0.3-0.3-0.4-0.4c-0.1-0.1-0.2-0.2-0.4-0.2c-0.4-0.2-0.8-0.3-1.2-0.4c-0.2,0-0.3,0-0.5,0H27.9h-7.6c-0.2,0-0.5,0-0.7,0
		c-1.4,0.1-2.7,0.5-3.4,1.6c0,0.1-0.1,0.1-0.1,0.2c-0.1,0.1-0.1,0.2-0.2,0.3c-0.1,0.2-0.1,0.4-0.2,0.6c0,0.1,0,0.2,0,0.4
		c0,0.1,0,0.3,0,0.4c0,0,0,0,0,0c0,0.2,0,0.4,0,0.6V534c0,0.6,0,1.2,0.2,1.7c-0.7,4.6,0.7,9.5,3.9,13c1.8,2,4,3.5,6.6,4.4
		c1.6,0.6,3,0.7,4.7,0.7c3.1,0,60.2,0,69.5,0c2.7,0,0.9-3.5,0-4.5c-1.3-1.5-3.1-2.4-5.1-2.5c-0.3,0-23.9,0-42.2,0c0,0-0.1,0-0.1,0
		c-0.5,0-0.9,0-1.4,0H39.3c-1.5,0-3.1,0-4.6,0c-1.2,0-2.5,0.2-3.7,0c0,0,0,0-0.1,0c0,0-0.1,0-0.1,0h0.8c-7-0.5-10.8-9.1-6.1-14.7
		c1.4-1.7,3.6-3,5.8-3h-0.8c1.2-0.3,2.6-0.1,3.8-0.1c2.7,0,5.3,0,8,0c2.6,0,5.3,0,7.9,0c0.9,0,1.7,0,2.6,0c0.3,0,0.7-0.1,0.9,0.1
		h40.9c3.3,0,6.4-1.9,7.2-5.2c0.1-0.2,0.1-0.5,0.1-0.6c0-0.1,0-0.1,0-0.2V454C102,453.9,102,453.8,102,453.7"/>
	<path id="XMLID_35_" clip-path="url(#XMLID_239_)" fill="#231F20" d="M42.4,475.9c0-2.4,1.9-4.3,4.3-4.3c2.4,0,4.3,1.9,4.3,4.3
		v11.6h15.9v-11.6c0-2.4,1.9-4.3,4.3-4.3c2.4,0,4.3,1.9,4.3,4.3v31.3c0,2.4-1.9,4.3-4.3,4.3c-2.4,0-4.3-1.9-4.3-4.3v-11.8H51v11.8
		c0,2.4-1.9,4.3-4.3,4.3c-2.4,0-4.3-1.9-4.3-4.3V475.9z"/>
	<path id="XMLID_34_" clip-path="url(#XMLID_239_)" fill="#FFCE31" d="M157.9,475.4h23.2c-1.2,0.3-2.6,0.1-3.8,0.1c-2.7,0-5.3,0-8,0
		c-2.6,0-5.3,0-7.9,0c-0.9,0-1.7,0-2.6,0C158.6,475.4,158.1,475.5,157.9,475.4"/>
	<path id="XMLID_33_" clip-path="url(#XMLID_239_)" fill="#FFCE31" d="M157.9,457.7c0.2,0,0.4,0,0.5,0c0,0,0.1,0,0.1,0
		c0.5,0,0.9,0,1.4,0c0.4,0,0.9,0,1.3,0c2.4,0,4.9,0,7.3,0h4c1.5,0,3.1,0,4.6,0c1.2,0,2.5-0.2,3.7,0c0,0,0,0,0.1,0c0,0,0.1,0,0.1,0
		h-0.8C172.9,457.7,165.3,457.7,157.9,457.7"/>
	<path id="XMLID_32_" clip-path="url(#XMLID_239_)" fill="#FFCE31" d="M174.2,482.4h0.6c1.6,0,3.1,0,4.3,0h-19
		C165.1,482.4,170.1,482.4,174.2,482.4"/>
	<path id="XMLID_31_" clip-path="url(#XMLID_239_)" fill="#FFCE31" d="M173.4,482.4h5.7c-1.2,0-2.7,0-4.3,0h-0.6
		C174,482.4,173.7,482.4,173.4,482.4"/>
	<path id="XMLID_30_" clip-path="url(#XMLID_239_)" fill="#FFCE31" d="M172.4,457.6c1.5,0,3.1,0,4.6,0c1.2,0,2.5-0.2,3.7,0
		c0,0,0,0,0.1,0c0,0,0.1,0,0.1,0h-0.8c-0.2,0-0.4,0-0.6,0C178.7,457.6,176.1,457.6,172.4,457.6"/>
	<path id="XMLID_29_" clip-path="url(#XMLID_239_)" fill="#FFCE31" d="M157.9,475.4h23.2c-1.2,0.3-2.6,0.1-3.8,0.1c-2.7,0-5.3,0-8,0
		c-2.6,0-5.3,0-7.9,0c-0.9,0-1.7,0-2.6,0C158.6,475.4,158.1,475.5,157.9,475.4"/>
	<path id="XMLID_28_" clip-path="url(#XMLID_239_)" fill="#FFCE31" d="M183.7,463.9c-0.6,1.6-2,1.8-3.4,1.8h-63.2
		c-0.4,0-0.8,0-1.2-0.1c-3-0.6-2.5-5.2,0.5-5.2h64.7C183,460.4,184.3,462.2,183.7,463.9"/>
	<path id="XMLID_27_" clip-path="url(#XMLID_239_)" fill="#FFCE31" d="M183.7,471c-0.6,1.6-2,1.8-3.4,1.8h-63.2
		c-0.4,0-0.8,0-1.2-0.1c-3-0.6-2.5-5.2,0.5-5.2h64.7C183,467.5,184.3,469.3,183.7,471"/>
	<path id="XMLID_250_" clip-path="url(#XMLID_239_)" fill="#FFCE31" d="M179.2,482.4c-1.2,0-2.7,0-4.3,0c2.7,0,5.4,0.2,8-0.1
		c2.3-0.2,4.5-1.1,6.4-2.5V547h-72.6v-64.6H179.2z M109.7,550.8c0,0.1,0,0.2,0,0.3c0.1,0.4,0.2,0.7,0.3,1.1c0.1,0.3,0.3,0.5,0.5,0.7
		c0.1,0.1,0.3,0.3,0.4,0.4c0.1,0.1,0.2,0.2,0.4,0.2c0.4,0.2,0.8,0.3,1.2,0.4c0.2,0,0.3,0,0.5,0h70.7h7.6c0.2,0,0.5,0,0.7,0
		c1.4-0.1,2.7-0.5,3.4-1.6c0-0.1,0.1-0.1,0.1-0.2c0.1-0.1,0.1-0.2,0.2-0.3c0.1-0.2,0.1-0.4,0.2-0.6c0-0.1,0-0.2,0-0.4
		c0-0.1,0-0.3,0-0.4c0,0,0,0,0,0c0-0.2,0-0.4,0-0.6v-79.1c0-0.6,0-1.2-0.2-1.7c0.7-4.6-0.7-9.5-3.9-13c-1.8-2-4-3.5-6.6-4.4
		c-1.6-0.6-3-0.7-4.7-0.7c-3.1,0-60.2,0-69.5,0c-2.7,0-0.9,3.5,0,4.5c1.3,1.5,3.1,2.4,5.1,2.5c0.3,0,23.9,0,42.2,0c0,0,0.1,0,0.1,0
		c0.5,0,0.9,0,1.4,0h12.5c1.5,0,3.1,0,4.6,0c1.2,0,2.5-0.2,3.7,0c0,0,0,0,0.1,0c0,0,0.1,0,0.1,0h-0.8c7,0.5,10.8,9.1,6.1,14.7
		c-1.4,1.7-3.6,3-5.8,3h0.8c-1.2,0.3-2.6,0.1-3.8,0.1c-2.7,0-5.3,0-8,0c-2.6,0-5.3,0-7.9,0c-0.9,0-1.7,0-2.6,0
		c-0.3,0-0.7,0.1-0.9-0.1h-40.9c-3.3,0-6.4,1.9-7.2,5.2c-0.1,0.2-0.1,0.5-0.1,0.6c0,0.1,0,0.1,0,0.2v69.1
		C109.7,550.7,109.7,550.7,109.7,550.8"/>
	<path id="XMLID_24_" clip-path="url(#XMLID_239_)" fill="#FFCE31" d="M169.4,528.7c0,2.4-1.9,4.3-4.3,4.3c-2.4,0-4.3-1.9-4.3-4.3
		v-11.6h-15.9v11.6c0,2.4-1.9,4.3-4.3,4.3s-4.3-1.9-4.3-4.3v-31.3c0-2.4,1.9-4.3,4.3-4.3s4.3,1.9,4.3,4.3v11.8h15.9v-11.8
		c0-2.4,1.9-4.3,4.3-4.3c2.4,0,4.3,1.9,4.3,4.3V528.7z"/>
	<path id="XMLID_23_" clip-path="url(#XMLID_239_)" fill="#2EAAE1" d="M242.1,529.2h-23.2c1.2-0.3,2.6-0.1,3.8-0.1c2.7,0,5.3,0,8,0
		c2.6,0,5.3,0,7.9,0c0.9,0,1.7,0,2.6,0C241.4,529.1,241.9,529.1,242.1,529.2"/>
	<path id="XMLID_22_" clip-path="url(#XMLID_239_)" fill="#2EAAE1" d="M242.1,546.9c-0.2,0-0.4,0-0.5,0c0,0-0.1,0-0.1,0
		c-0.5,0-0.9,0-1.4,0c-0.4,0-0.9,0-1.3,0c-2.4,0-4.9,0-7.3,0h-4c-1.5,0-3.1,0-4.6,0c-1.2,0-2.5,0.2-3.7,0c0,0,0,0-0.1,0
		c0,0-0.1,0-0.1,0h0.8C227.1,546.9,234.7,546.9,242.1,546.9"/>
	<path id="XMLID_21_" clip-path="url(#XMLID_239_)" fill="#2EAAE1" d="M225.8,522.2h-0.6c-1.6,0-3.1,0-4.3,0h19
		C234.9,522.2,229.9,522.2,225.8,522.2"/>
	<path id="XMLID_20_" clip-path="url(#XMLID_239_)" fill="#2EAAE1" d="M226.6,522.2h-5.7c1.2,0,2.7,0,4.3,0h0.6
		C226,522.2,226.3,522.2,226.6,522.2"/>
	<path id="XMLID_19_" clip-path="url(#XMLID_239_)" fill="#2EAAE1" d="M227.6,546.9c-1.5,0-3.1,0-4.6,0c-1.2,0-2.5,0.2-3.7,0
		c0,0,0,0-0.1,0c0,0-0.1,0-0.1,0h0.8c0.2,0,0.4,0,0.6,0C221.3,546.9,223.9,546.9,227.6,546.9"/>
	<path id="XMLID_18_" clip-path="url(#XMLID_239_)" fill="#2EAAE1" d="M242.1,529.2h-23.2c1.2-0.3,2.6-0.1,3.8-0.1c2.7,0,5.3,0,8,0
		c2.6,0,5.3,0,7.9,0c0.9,0,1.7,0,2.6,0C241.4,529.1,241.9,529.1,242.1,529.2"/>
	<path id="XMLID_17_" clip-path="url(#XMLID_239_)" fill="#2EAAE1" d="M216.3,540.6c0.6-1.6,2-1.8,3.4-1.8h63.2c0.4,0,0.8,0,1.2,0.1
		c3,0.6,2.5,5.2-0.5,5.2h-64.7C217,544.2,215.7,542.3,216.3,540.6"/>
	<path id="XMLID_16_" clip-path="url(#XMLID_239_)" fill="#2EAAE1" d="M216.3,533.5c0.6-1.6,2-1.8,3.4-1.8h63.2c0.4,0,0.8,0,1.2,0.1
		c3,0.6,2.5,5.2-0.5,5.2h-64.7C217,537,215.7,535.2,216.3,533.5"/>
	<path id="XMLID_238_" clip-path="url(#XMLID_239_)" fill="#2EAAE1" d="M220.8,522.2c1.2,0,2.7,0,4.3,0c-2.7,0-5.4-0.2-8,0.1
		c-2.3,0.2-4.5,1.1-6.4,2.5v-67.2h72.6v64.6H220.8z M290.3,453.7c0-0.1,0-0.2,0-0.3c-0.1-0.4-0.2-0.7-0.3-1.1
		c-0.1-0.3-0.3-0.5-0.5-0.7c-0.1-0.1-0.3-0.3-0.4-0.4c-0.1-0.1-0.2-0.2-0.4-0.2c-0.4-0.2-0.8-0.3-1.2-0.4c-0.2,0-0.3,0-0.5,0h-70.7
		h-7.6c-0.2,0-0.5,0-0.7,0c-1.4,0.1-2.7,0.5-3.4,1.6c0,0.1-0.1,0.1-0.1,0.2c-0.1,0.1-0.1,0.2-0.2,0.3c-0.1,0.2-0.1,0.4-0.2,0.6
		c0,0.1,0,0.2,0,0.4c0,0.1,0,0.3,0,0.4c0,0,0,0,0,0c0,0.2,0,0.4,0,0.6V534c0,0.6,0,1.2,0.2,1.7c-0.7,4.6,0.7,9.5,3.9,13
		c1.8,2,4,3.5,6.6,4.4c1.6,0.6,3,0.7,4.7,0.7c3.1,0,60.2,0,69.5,0c2.7,0,0.9-3.5,0-4.5c-1.3-1.5-3.1-2.4-5.1-2.5
		c-0.3,0-23.9,0-42.2,0c0,0-0.1,0-0.1,0c-0.5,0-0.9,0-1.4,0h-12.5c-1.5,0-3.1,0-4.6,0c-1.2,0-2.5,0.2-3.7,0c0,0,0,0-0.1,0
		c0,0-0.1,0-0.1,0h0.8c-7-0.5-10.8-9.1-6.1-14.7c1.4-1.7,3.6-3,5.8-3h-0.8c1.2-0.3,2.6-0.1,3.8-0.1c2.7,0,5.3,0,8,0
		c2.6,0,5.3,0,7.9,0c0.9,0,1.7,0,2.6,0c0.3,0,0.7-0.1,0.9,0.1h40.9c3.3,0,6.4-1.9,7.2-5.2c0.1-0.2,0.1-0.5,0.1-0.6
		c0-0.1,0-0.1,0-0.2V454C290.3,453.9,290.3,453.8,290.3,453.7"/>
	<path id="XMLID_13_" clip-path="url(#XMLID_239_)" fill="#2EAAE1" d="M230.6,475.9c0-2.4,1.9-4.3,4.3-4.3c2.4,0,4.3,1.9,4.3,4.3
		v11.6h15.9v-11.6c0-2.4,1.9-4.3,4.3-4.3s4.3,1.9,4.3,4.3v31.3c0,2.4-1.9,4.3-4.3,4.3s-4.3-1.9-4.3-4.3v-11.8h-15.9v11.8
		c0,2.4-1.9,4.3-4.3,4.3c-2.4,0-4.3-1.9-4.3-4.3V475.9z"/>
	<path id="XMLID_12_" clip-path="url(#XMLID_239_)" fill="#6F6E6F" d="M346.2,475.4h23.2c-1.2,0.3-2.6,0.1-3.8,0.1c-2.7,0-5.3,0-8,0
		c-2.6,0-5.3,0-7.9,0c-0.9,0-1.7,0-2.6,0C346.8,475.4,346.3,475.5,346.2,475.4"/>
	<path id="XMLID_11_" clip-path="url(#XMLID_239_)" fill="#6F6E6F" d="M346.2,457.7c0.2,0,0.4,0,0.5,0c0,0,0.1,0,0.1,0
		c0.5,0,0.9,0,1.4,0c0.4,0,0.9,0,1.3,0c2.4,0,4.9,0,7.3,0h4c1.5,0,3.1,0,4.6,0c1.2,0,2.5-0.2,3.7,0c0,0,0,0,0.1,0c0,0,0.1,0,0.1,0
		h-0.8C361.2,457.7,353.5,457.7,346.2,457.7"/>
	<path id="XMLID_10_" clip-path="url(#XMLID_239_)" fill="#6F6E6F" d="M362.5,482.4h0.6c1.6,0,3.1,0,4.3,0h-19
		C353.3,482.4,358.4,482.4,362.5,482.4"/>
	<path id="XMLID_9_" clip-path="url(#XMLID_239_)" fill="#6F6E6F" d="M361.7,482.4h5.7c-1.2,0-2.7,0-4.3,0h-0.6
		C362.2,482.4,362,482.4,361.7,482.4"/>
	<path id="XMLID_8_" clip-path="url(#XMLID_239_)" fill="#6F6E6F" d="M360.7,457.6c1.5,0,3.1,0,4.6,0c1.2,0,2.5-0.2,3.7,0
		c0,0,0,0,0.1,0c0,0,0.1,0,0.1,0h-0.8c-0.2,0-0.4,0-0.6,0C367,457.6,364.4,457.6,360.7,457.6"/>
	<path id="XMLID_7_" clip-path="url(#XMLID_239_)" fill="#6F6E6F" d="M346.2,475.4h23.2c-1.2,0.3-2.6,0.1-3.8,0.1c-2.7,0-5.3,0-8,0
		c-2.6,0-5.3,0-7.9,0c-0.9,0-1.7,0-2.6,0C346.8,475.4,346.3,475.5,346.2,475.4"/>
	<path id="XMLID_6_" clip-path="url(#XMLID_239_)" fill="#6F6E6F" d="M372,463.9c-0.6,1.6-2,1.8-3.4,1.8h-63.2c-0.4,0-0.8,0-1.2-0.1
		c-3-0.6-2.5-5.2,0.5-5.2h64.7C371.3,460.4,372.6,462.2,372,463.9"/>
	<path id="XMLID_5_" clip-path="url(#XMLID_239_)" fill="#6F6E6F" d="M372,471c-0.6,1.6-2,1.8-3.4,1.8h-63.2c-0.4,0-0.8,0-1.2-0.1
		c-3-0.6-2.5-5.2,0.5-5.2h64.7C371.3,467.5,372.6,469.3,372,471"/>
	<path id="XMLID_226_" clip-path="url(#XMLID_239_)" fill="#6F6E6F" d="M367.4,482.4c-1.2,0-2.7,0-4.3,0c2.7,0,5.4,0.2,8-0.1
		c2.3-0.2,4.5-1.1,6.4-2.5V547h-72.6v-64.6H367.4z M298,550.8c0,0.1,0,0.2,0,0.3c0.1,0.4,0.2,0.7,0.3,1.1c0.1,0.3,0.3,0.5,0.5,0.7
		c0.1,0.1,0.3,0.3,0.4,0.4c0.1,0.1,0.2,0.2,0.4,0.2c0.4,0.2,0.8,0.3,1.2,0.4c0.2,0,0.3,0,0.5,0h70.7h7.6c0.2,0,0.5,0,0.7,0
		c1.4-0.1,2.7-0.5,3.4-1.6c0-0.1,0.1-0.1,0.1-0.2c0.1-0.1,0.1-0.2,0.2-0.3c0.1-0.2,0.1-0.4,0.2-0.6c0-0.1,0-0.2,0-0.4
		c0-0.1,0-0.3,0-0.4c0,0,0,0,0,0c0-0.2,0-0.4,0-0.6v-79.1c0-0.6,0-1.2-0.2-1.7c0.7-4.6-0.7-9.5-3.9-13c-1.8-2-4-3.5-6.6-4.4
		c-1.6-0.6-3.1-0.7-4.7-0.7c-3.1,0-60.2,0-69.5,0c-2.7,0-0.9,3.5,0,4.5c1.3,1.5,3.1,2.4,5.1,2.5c0.3,0,23.9,0,42.2,0
		c0,0,0.1,0,0.1,0c0.5,0,0.9,0,1.4,0h12.5c1.5,0,3.1,0,4.6,0c1.2,0,2.5-0.2,3.7,0c0,0,0,0,0.1,0c0,0,0.1,0,0.1,0h-0.8
		c7,0.5,10.8,9.1,6.1,14.7c-1.4,1.7-3.6,3-5.8,3h0.8c-1.2,0.3-2.6,0.1-3.8,0.1c-2.7,0-5.3,0-8,0c-2.6,0-5.3,0-7.9,0
		c-0.9,0-1.7,0-2.6,0c-0.3,0-0.7,0.1-0.9-0.1h-40.9c-3.3,0-6.4,1.9-7.2,5.2c-0.1,0.2-0.1,0.5-0.1,0.6c0,0.1,0,0.1,0,0.2v69.1
		C298,550.7,298,550.7,298,550.8"/>
	<path id="XMLID_2_" clip-path="url(#XMLID_239_)" fill="#6F6E6F" d="M357.6,528.7c0,2.4-1.9,4.3-4.3,4.3s-4.3-1.9-4.3-4.3v-11.6
		h-15.9v11.6c0,2.4-1.9,4.3-4.3,4.3s-4.3-1.9-4.3-4.3v-31.3c0-2.4,1.9-4.3,4.3-4.3s4.3,1.9,4.3,4.3v11.8H349v-11.8
		c0-2.4,1.9-4.3,4.3-4.3s4.3,1.9,4.3,4.3V528.7z"/>
</g>
</svg>
