<?xml version="1.0" encoding="utf-8"?>
<!-- Generator: Adobe Illustrator 18.1.1, SVG Export Plug-In . SVG Version: 6.00 Build 0)  -->
<svg version="1.1" id="Layer_2" xmlns="http://www.w3.org/2000/svg" xmlns:xlink="http://www.w3.org/1999/xlink" x="0px" y="0px"
	 viewBox="0 0 69.7 80.2" enable-background="new 0 0 69.7 80.2" xml:space="preserve">
<g>
	<defs>
		<rect id="SVGID_1_" x="3.9" y="4.9" width="60.1" height="71.9"/>
	</defs>
	<clipPath id="SVGID_2_">
		<use xlink:href="#SVGID_1_"  overflow="visible"/>
	</clipPath>
	<g clip-path="url(#SVGID_2_)">
		<defs>
			<rect id="SVGID_3_" x="3.9" y="4.9" width="60.1" height="71.9"/>
		</defs>
		<clipPath id="SVGID_4_">
			<use xlink:href="#SVGID_3_"  overflow="visible"/>
		</clipPath>
		<g opacity="0.3" clip-path="url(#SVGID_4_)">
			<g>
				<defs>
					<rect id="SVGID_5_" x="0.9" y="2.6" width="66.1" height="74.4"/>
				</defs>
				<clipPath id="SVGID_6_">
					<use xlink:href="#SVGID_5_"  overflow="visible"/>
				</clipPath>
				<path clip-path="url(#SVGID_6_)" fill="#232428" d="M30.5,59.6H14.4c0.8-0.2,1.8-0.1,2.7-0.1c1.9,0,3.7,0,5.6,0
					c1.8,0,3.7,0,5.5,0c0.6,0,1.2,0,1.8,0C30.1,59.5,30.4,59.5,30.5,59.6"/>
				<path clip-path="url(#SVGID_6_)" fill="#232428" d="M30.5,71.9c-0.1,0-0.3,0-0.4,0c0,0,0,0-0.1,0c-0.3,0-0.6,0-1,0
					c-0.3,0-0.6,0-0.9,0c-1.7,0-3.4,0-5.1,0h-2.8c-1.1,0-2.1,0-3.2,0c-0.8,0-1.8,0.1-2.6,0c0,0,0,0-0.1,0c0,0-0.1,0-0.1,0h0.6
					C20.1,71.9,25.4,71.9,30.5,71.9"/>
				<path clip-path="url(#SVGID_6_)" fill="#232428" d="M19.2,54.7h-0.4c-1.1,0-2.2,0-3,0H29C25.6,54.7,22,54.7,19.2,54.7"/>
				<path clip-path="url(#SVGID_6_)" fill="#232428" d="M19.7,54.7h-4c0.9,0,1.9,0,3,0h0.4C19.4,54.7,19.6,54.7,19.7,54.7"/>
				<path clip-path="url(#SVGID_6_)" fill="#232428" d="M20.4,71.9c-1.1,0-2.1,0-3.2,0c-0.8,0-1.8,0.1-2.6,0c0,0,0,0-0.1,0
					c0,0-0.1,0-0.1,0h0.6c0.1,0,0.3,0,0.4,0C16.1,71.9,17.9,71.9,20.4,71.9"/>
				<path clip-path="url(#SVGID_6_)" fill="#232428" d="M30.5,59.6H14.4c0.8-0.2,1.8-0.1,2.7-0.1c1.9,0,3.7,0,5.6,0
					c1.8,0,3.7,0,5.5,0c0.6,0,1.2,0,1.8,0C30.1,59.5,30.4,59.5,30.5,59.6"/>
				<path clip-path="url(#SVGID_6_)" fill="#232428" d="M12.6,67.5c0.4-1.1,1.4-1.2,2.4-1.2h44c0.3,0,0.6,0,0.8,0
					c2.1,0.4,1.8,3.6-0.4,3.6h-45C13.1,70,12.2,68.7,12.6,67.5"/>
				<path clip-path="url(#SVGID_6_)" fill="#232428" d="M12.6,62.6c0.4-1.1,1.4-1.2,2.4-1.2h44c0.3,0,0.6,0,0.8,0
					c2.1,0.4,1.8,3.6-0.4,3.6h-45C13.1,65,12.2,63.8,12.6,62.6"/>
				<path clip-path="url(#SVGID_6_)" fill="#232428" d="M44.4,30.2c0.1-1.3,0.2-2.6,0.4-3.9c0.3-1.9,3.9-5.7,3.3-1.3
					c-0.2,1.6-1.4,2.8-2.5,3.9C45.2,29.4,44.8,29.8,44.4,30.2 M59.3,9.7v32.9c-3.6-3.1-7.4-5.8-11.5-8.1c2.6-3.1,5.9-5.4,6.6-9.8
					c0.6-3.9-2.9-7.7-6.9-7.2c-2.4,0.3-4.3,1.2-5.7,2.5c0-0.4-0.1-0.7-0.1-1.1c-0.3-3.1-6.6-2.7-6.2,0.4c0.3,3,0.7,6,1.1,8.9
					c-0.2,0.1-0.4,0.2-0.7,0.3c-1.7,1.2-3.4,2.2-5.3,3c-0.6-4.3-1.2-8.6-1.8-12.8c-0.4-2.9-6.6-2.5-6.1,0.9c0.7,4.6,1.3,9.2,2,13.9
					c-1.4,0.3-2.9,0.5-4.4,0.5c-0.7-4.8-1.4-9.6-2.2-14.3c-0.5-3.1-6.7-2.3-6.2,0.8c1.2,8.3,2.5,16.7,3.7,25
					c0.5,3.1,6.7,2.3,6.2-0.8c-0.2-1.5-0.5-3-0.7-4.6c1.5-0.1,2.9-0.3,4.4-0.6c0.3,2,0.6,4,0.9,6c0.4,2.9,6.6,2.5,6.1-0.9
					c-0.3-2.4-0.7-4.7-1-7.1c2-0.9,4-2,5.9-3.3c0,0,0,0,0.1,0c0.7,4.3,1.4,8.6,2.3,12.8c0.6,3,6.7,2.7,6.2-0.4
					c-0.4-2.6-0.8-5.3-1.1-8c4.9,2.9,9.4,6.3,13.5,10.4c0.3,0.3,0.7,0.5,1.1,0.6v4.9H15.7c0.9,0,1.9,0,3,0c-1.8,0-3.8-0.1-5.6,0.1
					c-1.6,0.1-3.1,0.8-4.4,1.8V9.7H59.3z M64.1,55.3V7.2c0-0.1,0-0.1,0-0.2c0-0.1,0-0.1,0-0.2c0-0.3-0.1-0.5-0.2-0.8
					c-0.1-0.2-0.2-0.3-0.3-0.5c-0.1-0.1-0.2-0.2-0.3-0.3c-0.1-0.1-0.2-0.1-0.3-0.2C62.6,5.1,62.3,5,62,4.9c-0.1,0-0.2,0-0.4,0H12.5
					H7.1c-0.2,0-0.3,0-0.5,0C5.7,5,4.7,5.3,4.3,6c0,0,0,0.1-0.1,0.1c0,0.1-0.1,0.2-0.1,0.2C4,6.6,4,6.7,4,6.9c0,0.1,0,0.2,0,0.2
					c0,0.1,0,0.2,0,0.3c0,0,0,0,0,0c0,0.1,0,0.3,0,0.4v55.1c0,0.4,0,0.8,0.1,1.2c-0.5,3.2,0.5,6.6,2.7,9.1c1.2,1.4,2.8,2.5,4.6,3.1
					c1.1,0.4,2.1,0.5,3.3,0.5c2.2,0,41.9,0,48.4,0c1.9,0,0.6-2.4,0-3.1c-0.9-1.1-2.2-1.7-3.5-1.8c-0.2,0-16.6,0-29.4,0
					c0,0,0,0-0.1,0c-0.3,0-0.6,0-1,0h-8.7c-1.1,0-2.1,0-3.2,0c-0.8,0-1.8,0.1-2.6,0c0,0,0,0-0.1,0c0,0-0.1,0-0.1,0h0.6
					c-4.9-0.4-7.5-6.4-4.2-10.2c1-1.2,2.5-2.1,4.1-2.1h-0.5c0.8-0.2,1.8-0.1,2.7-0.1c1.9,0,3.7,0,5.6,0c1.8,0,3.7,0,5.5,0
					c0.6,0,1.2,0,1.8,0c0.2,0,0.5,0,0.6,0H59c2.3,0,4.4-1.3,5-3.6c0-0.2,0.1-0.3,0-0.4C64.1,55.4,64.1,55.4,64.1,55.3"/>
			</g>
		</g>
	</g>
</g>
</svg>
