<?xml version="1.0" encoding="utf-8"?>
<!-- Generator: Adobe Illustrator 18.1.1, SVG Export Plug-In . SVG Version: 6.00 Build 0)  -->
<svg version="1.1" id="Layer_1" xmlns="http://www.w3.org/2000/svg" xmlns:xlink="http://www.w3.org/1999/xlink" x="0px" y="0px"
	 viewBox="0 0 200 200" enable-background="new 0 0 200 200" xml:space="preserve">
<circle fill="#2AABE1" cx="100" cy="100" r="94.9"/>
<g>
	<defs>
		<rect id="SVGID_1_" x="284.5" y="165.9" width="117.3" height="74.2"/>
	</defs>
	<clipPath id="SVGID_2_">
		<use xlink:href="#SVGID_1_"  overflow="visible"/>
	</clipPath>
	<path clip-path="url(#SVGID_2_)" fill="#FFFFFF" d="M357.7,195.6c0.2-2.9,0.4-5.8,0.8-8.6c0.7-4.3,8.8-12.8,7.3-2.8
		c-0.5,3.6-3.1,6.4-5.5,8.8C359.5,193.9,358.6,194.7,357.7,195.6 M400.3,232.2c-10.5-10.6-22.2-19.5-35.1-26.7
		c5.8-7,13.3-12,14.7-21.9c1.3-8.7-6.4-17.4-15.5-16.2c-5.5,0.7-9.6,2.7-12.7,5.7c-0.1-0.8-0.2-1.6-0.3-2.4c-0.7-7-14.7-6.1-14,0.9
		c0.7,6.7,1.5,13.4,2.4,20c-0.5,0.1-0.9,0.4-1.5,0.7c-3.8,2.7-7.7,4.9-11.8,6.7c-1.4-9.6-2.7-19.2-4.1-28.8
		c-0.9-6.6-14.7-5.6-13.7,1.9c1.5,10.4,2.9,20.7,4.4,31.1c-3.2,0.7-6.5,1.1-9.9,1.2c-1.6-10.7-3.2-21.4-4.8-32.2
		c-1-7-15-5.1-13.9,1.8c2.8,18.7,5.6,37.4,8.4,56.1c1,7,15,5.1,13.9-1.8c-0.5-3.4-1-6.8-1.5-10.2c3.3-0.3,6.6-0.7,9.8-1.4
		c0.6,4.5,1.3,9,1.9,13.5c0.9,6.6,14.7,5.6,13.7-1.9c-0.7-5.3-1.5-10.6-2.2-15.9c4.5-2,8.9-4.4,13.1-7.4c0,0,0.1-0.1,0.1-0.1
		c1.5,9.6,3.2,19.2,5.1,28.7c1.4,6.8,15.1,6,14-0.9c-0.9-5.9-1.8-11.9-2.4-17.9c11,6.5,21.1,14.1,30.2,23.3
		C393.2,242.9,406,237.9,400.3,232.2"/>
</g>
<g>
	<defs>
		<rect id="SVGID_3_" x="55.2" y="46.5" width="89.5" height="107"/>
	</defs>
	<clipPath id="SVGID_4_">
		<use xlink:href="#SVGID_3_"  overflow="visible"/>
	</clipPath>
	<path clip-path="url(#SVGID_4_)" fill="#232428" d="M94.8,127.9H70.8c1.2-0.3,2.7-0.1,4-0.1c2.8,0,5.5,0,8.3,0c2.7,0,5.5,0,8.2,0
		c0.9,0,1.8,0,2.7,0C94.2,127.8,94.7,127.8,94.8,127.9"/>
	<path clip-path="url(#SVGID_4_)" fill="#232428" d="M94.8,146.2c-0.2,0-0.4,0-0.6,0c0,0-0.1,0-0.1,0c-0.5,0-1,0-1.4,0
		c-0.4,0-0.9,0-1.3,0c-2.5,0-5,0-7.5,0h-4.1c-1.6,0-3.2,0-4.8,0c-1.2,0-2.6,0.2-3.9,0c0,0,0,0-0.1,0c0,0-0.1,0-0.1,0h0.9
		C79.3,146.3,87.2,146.2,94.8,146.2"/>
	<path clip-path="url(#SVGID_4_)" fill="#232428" d="M77.9,120.6h-0.6c-1.7,0-3.2,0-4.5,0h19.7C87.4,120.6,82.2,120.6,77.9,120.6"/>
	<path clip-path="url(#SVGID_4_)" fill="#232428" d="M78.8,120.6h-6c1.3,0,2.8,0,4.5,0h0.6C78.2,120.6,78.5,120.6,78.8,120.6"/>
	<path clip-path="url(#SVGID_4_)" fill="#232428" d="M79.8,146.3c-1.6,0-3.2,0-4.8,0c-1.2,0-2.6,0.2-3.9,0c0,0,0,0-0.1,0
		c0,0-0.1,0-0.1,0h0.9c0.2,0,0.4,0,0.6,0C73.3,146.3,76,146.3,79.8,146.3"/>
	<path clip-path="url(#SVGID_4_)" fill="#232428" d="M94.8,127.9H70.8c1.2-0.3,2.7-0.1,4-0.1c2.8,0,5.5,0,8.3,0c2.7,0,5.5,0,8.2,0
		c0.9,0,1.8,0,2.7,0C94.2,127.8,94.7,127.8,94.8,127.9"/>
	<path clip-path="url(#SVGID_4_)" fill="#FFFFFF" d="M68.1,139.8c0.6-1.6,2.1-1.8,3.5-1.8h65.5c0.4,0,0.8,0,1.2,0.1
		c3.1,0.6,2.6,5.4-0.6,5.4H70.7C68.8,143.4,67.5,141.5,68.1,139.8"/>
	<path clip-path="url(#SVGID_4_)" fill="#FFFFFF" d="M68.1,132.4c0.6-1.6,2.1-1.8,3.5-1.8h65.5c0.4,0,0.8,0,1.2,0.1
		c3.1,0.6,2.6,5.4-0.6,5.4H70.7C68.8,136,67.5,134.2,68.1,132.4"/>
	<path clip-path="url(#SVGID_4_)" fill="#FFFFFF" d="M115.5,84.1c0.1-1.9,0.3-3.8,0.6-5.7c0.4-2.9,5.8-8.5,4.8-1.9
		c-0.3,2.4-2.1,4.2-3.7,5.9C116.7,82.9,116.1,83.5,115.5,84.1 M137.6,53.6v49c-5.3-4.6-11-8.6-17.1-12c3.9-4.6,8.8-8,9.8-14.6
		c0.9-5.8-4.2-11.5-10.3-10.7c-3.6,0.5-6.4,1.8-8.4,3.8c-0.1-0.5-0.1-1.1-0.2-1.6c-0.5-4.7-9.8-4-9.3,0.6c0.4,4.4,1,8.9,1.6,13.3
		c-0.3,0.1-0.6,0.2-1,0.5c-2.5,1.8-5.1,3.3-7.8,4.5C93.9,80,93,73.7,92.1,67.3c-0.6-4.4-9.8-3.7-9.1,1.3c1,6.9,2,13.8,2.9,20.7
		c-2.1,0.4-4.3,0.7-6.6,0.8c-1.1-7.1-2.1-14.2-3.2-21.4c-0.7-4.6-9.9-3.4-9.2,1.2c1.9,12.4,3.7,24.8,5.6,37.2
		c0.7,4.6,9.9,3.4,9.2-1.2c-0.3-2.3-0.7-4.5-1-6.8c2.2-0.2,4.4-0.5,6.5-0.9c0.4,3,0.8,6,1.3,9c0.6,4.4,9.8,3.7,9.1-1.3
		c-0.5-3.5-1-7-1.5-10.5c3-1.3,5.9-2.9,8.7-4.9c0,0,0,0,0.1-0.1c1,6.4,2.1,12.7,3.4,19.1c0.9,4.5,10,4,9.3-0.6
		c-0.6-3.9-1.2-7.9-1.6-11.9c7.3,4.3,14,9.4,20.1,15.5c0.4,0.4,1,0.7,1.6,0.9v7.3H72.8c1.3,0,2.8,0,4.5,0c-2.7,0-5.6-0.2-8.3,0.1
		c-2.4,0.2-4.6,1.2-6.6,2.6V53.6H137.6z M144.8,121.6V50c0-0.1,0-0.2,0-0.3c0-0.1,0-0.2,0-0.3c-0.1-0.4-0.2-0.8-0.3-1.1
		c-0.1-0.3-0.3-0.5-0.5-0.7c-0.1-0.1-0.3-0.3-0.4-0.4c-0.1-0.1-0.2-0.2-0.4-0.2c-0.4-0.2-0.8-0.4-1.3-0.4c-0.2,0-0.3,0-0.5,0H67.9
		H60c-0.2,0-0.5,0-0.7,0c-1.4,0.1-2.8,0.5-3.5,1.7c0,0.1-0.1,0.1-0.1,0.2c-0.1,0.1-0.1,0.2-0.2,0.4c-0.1,0.2-0.1,0.4-0.2,0.7
		c0,0.1,0,0.2,0,0.4c0,0.1,0,0.3,0,0.4c0,0,0,0,0,0c0,0.2,0,0.4,0,0.6v82c0,0.6,0,1.2,0.2,1.8c-0.7,4.8,0.8,9.8,4.1,13.5
		c1.8,2.1,4.2,3.7,6.8,4.6c1.7,0.6,3.2,0.7,4.9,0.7c3.2,0,62.4,0,72,0c2.8,0,0.9-3.6,0-4.6c-1.3-1.6-3.2-2.5-5.3-2.6
		c-0.3,0-24.7,0-43.7,0c0,0-0.1,0-0.1,0c-0.5,0-1,0-1.4,0h-13c-1.6,0-3.2,0-4.8,0c-1.2,0-2.6,0.2-3.9,0c0,0,0,0-0.1,0
		c0,0-0.1,0-0.1,0h0.9c-7.2-0.5-11.2-9.5-6.3-15.2c1.5-1.8,3.7-3.1,6.1-3.1h-0.8c1.2-0.3,2.7-0.1,4-0.1c2.8,0,5.5,0,8.3,0
		c2.7,0,5.5,0,8.2,0c0.9,0,1.8,0,2.7,0c0.3,0,0.8-0.1,0.9,0.1h42.4c3.4,0,6.6-2,7.5-5.4c0.1-0.3,0.1-0.5,0.1-0.7
		C144.8,121.7,144.8,121.7,144.8,121.6"/>
</g>
<g>
	<defs>
		<rect id="SVGID_5_" x="-182.4" y="203" width="112.9" height="122.5"/>
	</defs>
	<clipPath id="SVGID_6_">
		<use xlink:href="#SVGID_5_"  overflow="visible"/>
	</clipPath>
	<path clip-path="url(#SVGID_6_)" fill="#FFFFFF" d="M-139.3,218.8c2.8,10.5,5.7,21.1,9,32.7c-3,3-6,6-9,9c-3-8.3-6.1-16.4-9.1-24.1
		c-0.8-2-3.1-3.4-5.9-3.4c-2,0-3.7,0.7-4.6,2c-0.7,1-0.8,2.2-0.3,3.4c3.9,10.1,7.8,20.4,11.5,30.6c-5.6,5.8-11.3,11.9-17.2,18.4
		c-4.4-9.8-6.7-22.5-6.1-34.6c0.7-14.1,4.9-25.1,12.4-32.7c4.2-4.2,9.4-6.3,15.9-6.3c1.5,0,3.1,0.1,4.7,0.3
		C-139.1,215.3-139.7,217.1-139.3,218.8 M-143.7,280.2c3.4,9.7,6.6,19.5,9.6,29c-1.1,0-2.1-0.1-3.1-0.2c-8.9-0.8-16.2-4.9-22-12.2
		C-154.5,291.6-149.4,286.1-143.7,280.2 M-127,263c3.1,10.7,6,20.6,8.9,30.1c0.5,1.8,1.9,2.8,3.8,2.8c1.9,0,4.1-1.2,5.3-2.9
		c1-1.4,1.4-2.9,0.9-4.4c-3.4-11.1-6.8-22.6-10.1-34.3c8.7-8.5,17.9-17,27.2-25.4c6.9,14.2,7.8,30.4,2.6,45.6
		c-5.6,16.4-19.2,29.4-34.8,33.4c-3.8-12-7.9-24.3-12.2-36.5C-132.6,268.7-129.8,265.8-127,263 M-69.8,207.2
		c-0.8-2.1-3.5-3.7-6.1-3.7c-1.3,0-2.4,0.4-3.3,1.1c-3,2.5-6.1,5.2-9.6,8.2c-2.4-3.1-5.1-6-7.9-8.5c-1-0.9-2.3-1.4-3.8-1.4
		c-2.5,0-4.8,1.3-5.6,3.2c-0.3,0.7-0.7,2.5,1.4,4.4c3,2.8,5.8,5.8,8.2,9.1c-8.5,7.6-16.9,15.3-25,23.1c-2.7-9.6-5.1-18.3-7.3-26.7
		c3,0.9,5.9,2,8.2,2.9c0.7,0.3,1.4,0.4,2.2,0.4c2.9,0,5.7-1.9,6.2-4.2c0.1-0.6,0.3-2.9-2.9-4.1c-8.3-3.2-18-6.7-27.8-6.7
		c-5.7,0-10.8,1.1-15.7,3.5c-14.4,7-20.1,22.2-22.4,33.8c-5.6,29,4.2,63.9,33.9,74.4c5,1.8,10.4,2.6,15.8,2.5l0.2,0.6
		c0.3,0.9,0.5,1.8,0.8,2.7c0.7,2.5,3.4,3.6,5.8,3.6c1.9,0,3.6-0.7,4.5-1.9c0.7-1,0.9-2.2,0.5-3.4c-0.3-1-0.6-1.9-0.9-2.9l-0.1-0.2
		c15.6-4.1,30.3-15.6,38.6-30.5c11-19.6,10.5-44.3-1.1-64.9c4.3-3.8,8.2-7.1,11.8-10.2C-69.7,210.3-69.2,208.8-69.8,207.2"/>
</g>
</svg>
