<?xml version="1.0" encoding="utf-8"?>
<!-- Generator: Adobe Illustrator 18.1.1, SVG Export Plug-In . SVG Version: 6.00 Build 0)  -->
<svg version="1.1" id="Layer_2" xmlns="http://www.w3.org/2000/svg" xmlns:xlink="http://www.w3.org/1999/xlink" x="0px" y="0px"
	 viewBox="0 0 188.7 30.2" enable-background="new 0 0 188.7 30.2" xml:space="preserve">
<g>
	<defs>
		<rect id="SVGID_1_" x="3.8" y="4.7" width="182" height="21.1"/>
	</defs>
	<clipPath id="SVGID_2_">
		<use xlink:href="#SVGID_1_"  overflow="visible"/>
	</clipPath>
	<path clip-path="url(#SVGID_2_)" fill="#FFCF31" d="M126.2,4.9c-0.1,0-0.2,0-0.2,0C114.4,4.5,102.9,4.7,91.4,5
		C79.9,5.4,68.4,6,56.9,6.5c-11.5,0.6-23,1.2-34.6,2.5c-5.2,0.6-10.4,1.4-15.5,2.4C6.5,11.5,6.1,12,6,12.2c-2.3,3.6-2.5,6.5-2,8.7
		c0.5,2.2,1.9,3.8,2.9,4.6c0.2,0.2,0.3,0.3,0.4,0.3c0.1,0,0.1,0,0.2,0c5-1,10.1-1.7,15.1-2.3c11.1-1.3,22.4-1.9,33.6-2.5
		c11.3-0.5,22.6-1.1,33.8-1.5c11.2-0.4,22.5-0.6,33.7-0.3c0.7,0,1.5,0,2.2,0.1c4.8,0.1,9.7,0.4,14.5,0.8l3.5,0.3
		c0.7,0.1,1.5,0.1,2.2,0.2c1.4,0.2,2.9,0.3,4.3,0.5c0,0,1.6,0.1,4,0.2c1.2,0.1,2.6,0.2,4,0.3c1.5,0.1,3,0.3,4.6,0.5
		c1.6,0.2,3.1,0.4,4.5,0.6c1.4,0.2,2.8,0.4,3.9,0.6c1.7,0.3,2.9,0.5,3.3,0.5c0.1,0,0.2,0,0.1-0.1c1.3,0.2,2.5,0.4,3.6,0.5
		c1.1,0.1,2.2,0.2,3.1,0.3c0.2,0,0.3,0,0.5,0c1.6,0,2.8-0.1,3.3-0.6c0.5-0.5,0.3-1.4-1.1-2.7c-0.7-0.7-1.7-1.4-3-2.3
		c-1.3-0.8-2.9-1.8-4.9-2.9c-4.7-2.7-10.6-5-15.3-6.6c-1.2-0.4-2.3-0.8-3.3-1c-1-0.3-1.9-0.6-2.6-0.8c-1.5-0.4-2.4-0.6-2.4-0.6
		l-2.3-0.3l-2.3-0.3l-2.3-0.3l-2.7-0.3C137.7,5.3,132,5,126.2,4.9"/>
</g>
</svg>
