<?xml version="1.0" encoding="utf-8"?>
<!-- Generator: Adobe Illustrator 18.0.0, SVG Export Plug-In . SVG Version: 6.00 Build 0)  -->
<!DOCTYPE svg PUBLIC "-//W3C//DTD SVG 1.1//EN" "http://www.w3.org/Graphics/SVG/1.1/DTD/svg11.dtd">
<svg version="1.1" id="Layer_1" xmlns="http://www.w3.org/2000/svg" xmlns:xlink="http://www.w3.org/1999/xlink" x="0px" y="0px"
	 viewBox="0 0 35 35" enable-background="new 0 0 35 35" xml:space="preserve">
<g id="Thinking_Man">
</g>
<g>
	<g>
		<g>
			<polygon fill="none" points="4.2,10.8 4.2,11.7 32.1,11.7 32.1,21.4 32.8,21.4 32.8,10.8 			"/>
		</g>
		<g>
			<rect x="32.1" y="22.3" fill="none" width="0.7" height="1"/>
		</g>
		<g>
			<polygon fill="none" points="4.2,8.9 4.2,9.8 33.5,9.8 33.5,21.4 34.2,21.4 34.2,8.9 			"/>
		</g>
		<g>
			<rect x="2.8" y="10.8" fill="none" width="0.7" height="1"/>
		</g>
		<g>
			<polygon points="4.2,7.9 4.2,8.9 34.2,8.9 34.2,21.4 34.9,21.4 34.9,7.9 			"/>
		</g>
		<g>
			<rect x="32.1" y="21.4" fill="#FFFFFF" width="0.7" height="1"/>
		</g>
		<g>
			<rect x="33.5" y="21.4" fill="#FFFFFF" width="0.7" height="1"/>
		</g>
		<g>
			<rect x="3.5" y="8.9" fill="#FFFFFF" width="0.7" height="1"/>
		</g>
		<g>
			<rect x="3.5" y="10.8" fill="#FFFFFF" width="0.7" height="1"/>
		</g>
		<g>
			<rect x="2.8" y="9.8" width="0.7" height="1"/>
		</g>
		<g>
			<polygon points="32.8,10.8 32.8,21.4 33.5,21.4 33.5,9.8 4.2,9.8 4.2,10.8 			"/>
		</g>
		<g>
			<rect x="32.8" y="22.3" width="0.7" height="1"/>
		</g>
		<g>
			<rect x="3.5" y="9.8" width="0.7" height="1"/>
		</g>
		<g>
			<rect x="32.8" y="21.4" width="0.7" height="1"/>
		</g>
		<g>
			<rect x="32.1" y="23.3" fill="#FFFFFF" width="0.7" height="1"/>
		</g>
		<g>
			<rect x="2.1" y="10.8" fill="#FFFFFF" width="0.7" height="1"/>
		</g>
		<g>
			<rect x="2.8" y="11.7" width="0.7" height="1"/>
		</g>
		<g>
			<polygon points="31.4,12.7 31.4,21.4 32.1,21.4 32.1,11.7 4.2,11.7 4.2,12.7 			"/>
		</g>
		<g>
			<rect x="31.4" y="24.2" width="0.7" height="1"/>
		</g>
		<g>
			<rect x="31.4" y="22.3" width="0.7" height="1"/>
		</g>
		<g>
			<rect x="1.4" y="11.7" width="0.7" height="1"/>
		</g>
		<g>
			<rect x="3.5" y="11.7" width="0.7" height="1"/>
		</g>
		<g>
			<polyline points="32.1,22.3 32.1,21.4 31.4,21.4 31.4,22.3 			"/>
		</g>
		<g>
			<rect x="31.4" y="23.3" width="0.7" height="1"/>
		</g>
		<g>
			<rect x="2.1" y="11.7" width="0.7" height="1"/>
		</g>
	</g>
	<g>
		<g>
			<polygon fill="none" points="1.2,14.9 1.2,15.8 1.2,18.2 2.4,18.2 2.4,15.8 5.1,15.8 5.1,14.6 1.2,14.6 			"/>
		</g>
		<g>
			<polygon fill="none" points="2.4,22.4 1.2,22.4 1.2,24.8 1.2,25.8 1.2,26 5.1,26 5.1,24.8 2.4,24.8 			"/>
		</g>
		<g>
			<polygon fill="none" points="28,24.8 25.2,24.8 25.2,26 29.2,26 29.2,25.8 29.2,24.8 29.2,22.4 28,22.4 			"/>
		</g>
		<g>
			<polygon fill="none" points="25.2,15.8 28,15.8 28,18.2 29.2,18.2 29.2,15.8 29.2,14.9 29.2,14.6 25.2,14.6 			"/>
		</g>
		<g>
			<path d="M0,13.6v13.5h15.4c-3,0-5.5-2.7-5.5-6.1s2.5-6.1,5.5-6.1c3,0,5.5,2.7,5.5,6.1s-2.5,6.1-5.5,6.1h15.4V13.6H0z M5.1,26H1.2
				v-0.2v-0.9v-2.4h1.2v2.4h2.8V26z M5.1,15.8H2.4v2.4H1.2v-2.4v-0.9v-0.2h3.9V15.8z M29.2,24.8v0.9V26h-3.9v-1.2H28v-2.4h1.2V24.8z
				 M29.2,14.9v0.9v2.4H28v-2.4h-2.8v-1.2h3.9V14.9z"/>
		</g>
	</g>
	<g>
		<g>
			<path d="M15.7,26.2h-0.5v-1.1c-0.7-0.1-1.2-0.2-1.6-0.5c-0.6-0.4-0.9-1.1-0.9-2.1h1.4c0,0.4,0.1,0.7,0.2,0.9
				c0.1,0.2,0.4,0.4,0.8,0.5v-2.3l-0.4-0.1c-0.7-0.2-1.2-0.5-1.4-0.8c-0.3-0.4-0.4-0.8-0.4-1.3c0-0.3,0.1-0.6,0.2-0.9
				s0.3-0.5,0.5-0.7c0.3-0.3,0.5-0.4,0.8-0.5c0.2-0.1,0.5-0.1,0.8-0.1v-0.7h0.5v0.7c0.6,0,1,0.2,1.4,0.4c0.6,0.4,0.9,1,0.9,1.8h-1.4
				c0-0.3-0.1-0.5-0.2-0.7c-0.1-0.3-0.4-0.4-0.7-0.4v2c0.8,0.3,1.4,0.5,1.7,0.8c0.5,0.4,0.7,0.9,0.7,1.6c0,0.9-0.3,1.5-1,1.9
				c-0.4,0.2-0.9,0.4-1.4,0.4V26.2z M15.1,18.4c-0.3,0-0.5,0.1-0.7,0.2c-0.1,0.2-0.2,0.4-0.2,0.6c0,0.3,0.1,0.5,0.3,0.7
				c0.1,0.1,0.3,0.2,0.6,0.3V18.4z M15.7,24c0.3,0,0.5-0.1,0.6-0.2c0.2-0.2,0.3-0.4,0.3-0.8c0-0.3-0.1-0.5-0.3-0.7
				c-0.1-0.1-0.3-0.2-0.6-0.3V24z"/>
		</g>
	</g>
</g>
</svg>
