<?xml version="1.0" encoding="utf-8"?>
<!-- Generator: Adobe Illustrator 18.0.0, SVG Export Plug-In . SVG Version: 6.00 Build 0)  -->
<!DOCTYPE svg PUBLIC "-//W3C//DTD SVG 1.1//EN" "http://www.w3.org/Graphics/SVG/1.1/DTD/svg11.dtd">
<svg version="1.1" id="Layer_1" xmlns="http://www.w3.org/2000/svg" xmlns:xlink="http://www.w3.org/1999/xlink" x="0px" y="0px"
	 viewBox="0 0 35 35" enable-background="new 0 0 35 35" xml:space="preserve">
<g>
	<path d="M31.5,6.7C30,5,28.1,4.1,25.7,4.1c-2,0-3.7,0.7-5.1,2.1c-1.4,1.4-2.5,2.4-3.1,5c-0.7-2.6-1.7-3.7-3.1-5
		c-1.4-1.4-3.1-2.1-5.1-2.1C6.8,4.1,4.9,5,3.5,6.7C2,8.5,1.3,10.9,1.3,13.8c0,2.6,0.5,4.7,1.5,6.2c1,1.5,2.9,3.1,5.8,4.5
		c0.1,0,0.2,0.1,0.4,0.2c4.6,2.4,7.5,5.1,8.5,8.1c1-3,3.8-5.7,8.5-8.1l0.4-0.2c2.9-1.5,4.8-3,5.8-4.6c1-1.6,1.5-3.6,1.5-6.2
		C33.6,10.9,32.9,8.5,31.5,6.7z M27.6,18.7h-2.8c-0.3,0-0.5-0.1-0.7-0.3l-1.5-1.8l-1.3,2.1c-0.2,0.2-0.4,0.4-0.7,0.4
		c-0.3,0-0.6-0.1-0.8-0.3l-1.1-1L17,23.4c-0.1,0.4-0.5,0.6-0.9,0.7c0,0,0,0,0,0c-0.4,0-0.7-0.2-0.9-0.6l-2.6-6.7l-0.5,1.1
		c-0.1,0.4-0.5,0.6-0.9,0.6h-4c-0.5,0-0.9-0.4-0.9-1s0.4-1,0.9-1h3.4l1.1-2.7c0.1-0.4,0.5-0.6,0.9-0.6c0,0,0,0,0,0
		c0.4,0,0.7,0.2,0.9,0.6l2.5,6.5l1.5-4.6c0.1-0.3,0.4-0.6,0.7-0.6c0.3-0.1,0.6,0,0.9,0.2l1.3,1.3l1.3-2.2c0.2-0.3,0.4-0.4,0.7-0.4
		c0.3,0,0.6,0.1,0.8,0.3l2.1,2.4h2.4c0.5,0,0.9,0.4,0.9,1S28.1,18.7,27.6,18.7z"/>
</g>
<g id="Thinking_Man">
</g>
</svg>
