<?xml version="1.0" encoding="utf-8"?>
<!-- Generator: Adobe Illustrator 18.0.0, SVG Export Plug-In . SVG Version: 6.00 Build 0)  -->
<!DOCTYPE svg PUBLIC "-//W3C//DTD SVG 1.1//EN" "http://www.w3.org/Graphics/SVG/1.1/DTD/svg11.dtd">
<svg version="1.1" id="Layer_1" xmlns="http://www.w3.org/2000/svg" xmlns:xlink="http://www.w3.org/1999/xlink" x="0px" y="0px"
	 viewBox="0 0 29.4 30" enable-background="new 0 0 29.4 30" xml:space="preserve">
<g>
	<defs>
		<rect id="SVGID_1_" x="0" width="29.4" height="30"/>
	</defs>
	<clipPath id="SVGID_2_">
		<use xlink:href="#SVGID_1_"  overflow="visible"/>
	</clipPath>
	<path clip-path="url(#SVGID_2_)" fill="#23B99E" d="M5,14.2C5,10.7,6.2,7.9,8.6,6l2.3,1.7L11.6,0L3.5,2L6,3.9
		C4.1,5.3,2.6,7,1.5,9.1c-1,2.1-1.5,4.2-1.5,6.6c0,3,0.8,5.8,2.4,8.4C4,26.7,6.2,28.7,9,30l2.9-5.3C7.3,22.2,5,18.7,5,14.2
		 M27.1,5.9c-1.6-2.7-3.8-4.7-6.6-5.9l-2.9,5.3c4.6,2.5,6.8,6,6.8,10.5c0,3.5-1.2,6.2-3.6,8.2l-2.3-1.7L17.7,30l8.2-2.1l-2.5-1.9
		c1.9-1.3,3.4-3.1,4.5-5.2c1-2.1,1.5-4.2,1.5-6.6C29.4,11.3,28.6,8.5,27.1,5.9"/>
</g>
</svg>
