<?xml version="1.0" encoding="utf-8"?>
<!-- Generator: Adobe Illustrator 18.0.0, SVG Export Plug-In . SVG Version: 6.00 Build 0)  -->
<!DOCTYPE svg PUBLIC "-//W3C//DTD SVG 1.1//EN" "http://www.w3.org/Graphics/SVG/1.1/DTD/svg11.dtd">
<svg version="1.1" id="Layer_1" xmlns="http://www.w3.org/2000/svg" xmlns:xlink="http://www.w3.org/1999/xlink" x="0px" y="0px"
	 viewBox="0 0 35 35" enable-background="new 0 0 35 35" xml:space="preserve">
<g id="Thinking_Man">
</g>
<g>
	<path d="M21.7,21.2c-1.2,0.6-2.6,0.9-4.1,0.9c-1.5,0-2.9-0.3-4.2-0.9c-0.8,0.4-1.7,0.7-2.7,0.7c-1,0-1.9-0.3-2.7-0.8l2.9,10.2h13.9
		l3.1-10.8c-1,0.9-2.2,1.4-3.6,1.4C23.3,21.9,22.4,21.6,21.7,21.2z"/>
	<path d="M25.8,10c-1.2-2.7-4-4.6-7.3-4.9c0-0.1,0.1-0.2,0.1-0.3c0-0.6-0.6-1.1-1.3-1.1c-0.7,0-1.3,0.5-1.3,1.1c0,0.1,0,0.2,0.1,0.3
		c-3,0.5-5.5,2.3-6.7,4.8c-2.4,0.6-4.1,2.7-4.1,5.2c0,3,2.4,5.4,5.4,5.4c1,0,1.9-0.3,2.7-0.7c1.2,0.6,2.7,0.9,4.2,0.9
		c1.5,0,2.9-0.3,4.1-0.9c0.8,0.4,1.6,0.7,2.6,0.7c3,0,5.4-2.4,5.4-5.4C29.7,12.8,28,10.7,25.8,10z"/>
</g>
</svg>
