<?xml version="1.0" encoding="utf-8"?>
<!-- Generator: Adobe Illustrator 18.0.0, SVG Export Plug-In . SVG Version: 6.00 Build 0)  -->
<!DOCTYPE svg PUBLIC "-//W3C//DTD SVG 1.1//EN" "http://www.w3.org/Graphics/SVG/1.1/DTD/svg11.dtd">
<svg version="1.1" id="Layer_1" xmlns="http://www.w3.org/2000/svg" xmlns:xlink="http://www.w3.org/1999/xlink" x="0px" y="0px"
	 viewBox="0 0 35 35" enable-background="new 0 0 35 35" xml:space="preserve">
<g id="Thinking_Man">
</g>
<g>
	<circle fill="none" cx="25.1" cy="21.5" r="1.8"/>
	<circle fill="none" cx="28.6" cy="17.8" r="1.8"/>
	<path d="M2,13.5v12.3h31.2V13.5H2z M12.2,20.7H9.8v2.5H7.1v-2.5H4.7v-2.5h2.4v-2.5h2.7v2.5h2.4V20.7z M25.1,23.3
		c-1,0-1.8-0.8-1.8-1.8s0.8-1.8,1.8-1.8s1.8,0.8,1.8,1.8S26.1,23.3,25.1,23.3z M28.6,19.6c-1,0-1.8-0.8-1.8-1.8s0.8-1.8,1.8-1.8
		s1.8,0.8,1.8,1.8S29.6,19.6,28.6,19.6z"/>
</g>
<path fill="none" stroke="#000000" stroke-width="3" stroke-miterlimit="10" d="M16.5,13.5c0-1.6,1.1-2.9,2.1-3.9
	c0.8-0.8,1.7-1.5,2.4-2.5c0.7-1.1,0.9-2.3,0.9-3.6"/>
</svg>
