<?xml version="1.0" encoding="utf-8"?>
<!-- Generator: Adobe Illustrator 18.0.0, SVG Export Plug-In . SVG Version: 6.00 Build 0)  -->
<!DOCTYPE svg PUBLIC "-//W3C//DTD SVG 1.1//EN" "http://www.w3.org/Graphics/SVG/1.1/DTD/svg11.dtd">
<svg version="1.1" id="Layer_1" xmlns="http://www.w3.org/2000/svg" xmlns:xlink="http://www.w3.org/1999/xlink" x="0px" y="0px"
	 viewBox="0 0 35 35" enable-background="new 0 0 35 35" xml:space="preserve">
<g id="Thinking_Man">
</g>
<g>
	<ellipse cx="17.6" cy="19.4" rx="15.2" ry="10.3"/>
	<polygon points="22.9,31.3 27.6,31.3 26.1,27.6 22.9,27.6 	"/>
	<polygon points="11.7,31.3 7.1,31.3 8.6,27.6 11.7,27.6 	"/>
	<path d="M10.4,12.6l-0.7,0c-0.5,0-1-0.3-1.1-0.8L7.9,9.3C7.7,8.7,8.2,8.1,9,8.1l1.4,0c0.7,0,1.2,0.4,1.2,1l0,2.5
		C11.6,12.2,11,12.6,10.4,12.6z"/>
	<circle fill="#FFFFFF" cx="6.8" cy="15.5" r="0.9"/>
	<circle cx="2.1" cy="19.8" r="1.5"/>
	<circle cx="18" cy="5.8" r="1.9"/>
	<path fill="none" stroke="#000000" stroke-linecap="round" stroke-miterlimit="10" d="M32.3,18.1c0-0.5,0.3-0.9,0.7-1.2
		c0.2-0.4,0.5-0.8,0.9-1.1c-0.1,0.1-0.5-0.1-0.6-0.1c-0.2,0-0.5-0.1-0.7,0.1c-0.2,0.2-0.3,0.5-0.2,0.8c0.3,0.9,1.5,1,1.8,0
		c0.1-0.6,0-1.2,0-1.8"/>
</g>
</svg>
