<?xml version="1.0" encoding="utf-8"?>
<!-- Generator: Adobe Illustrator 18.0.0, SVG Export Plug-In . SVG Version: 6.00 Build 0)  -->
<!DOCTYPE svg PUBLIC "-//W3C//DTD SVG 1.1//EN" "http://www.w3.org/Graphics/SVG/1.1/DTD/svg11.dtd">
<svg version="1.1" id="Layer_1" xmlns="http://www.w3.org/2000/svg" xmlns:xlink="http://www.w3.org/1999/xlink" x="0px" y="0px"
	 viewBox="0 0 35 35" enable-background="new 0 0 35 35" xml:space="preserve">
<g id="Thinking_Man">
</g>
<g>
	<path fill="none" d="M27.7,22.3h-6.1c-0.2,0-0.4,0.2-0.4,0.4v0.2c0,0.2,0.2,0.4,0.4,0.4h6.1c0.2,0,0.4-0.2,0.4-0.4v-0.2
		C28.1,22.4,27.9,22.3,27.7,22.3z"/>
	<path d="M28.5,2.3h-22c-1,0-1.7,0.8-1.7,1.7v24.6c0,1,0.8,1.7,1.7,1.7h0.3l0.9,2.2h19.8l0.9-2.2h0.3c1,0,1.7-0.8,1.7-1.7V4
		C30.3,3.1,29.5,2.3,28.5,2.3z M28.1,22.8c0,0.2-0.2,0.4-0.4,0.4h-6.1c-0.2,0-0.4-0.2-0.4-0.4v-0.2c0-0.2,0.2-0.4,0.4-0.4h6.1
		c0.2,0,0.4,0.2,0.4,0.4V22.8z M28.4,19.6c0,0.5-0.4,1-1,1H7.8c-0.5,0-1-0.4-1-1V5.9c0-0.5,0.4-1,1-1h19.7c0.5,0,1,0.4,1,1V19.6z"/>
</g>
</svg>
