<?xml version="1.0" encoding="utf-8"?>
<!-- Generator: Adobe Illustrator 18.0.0, SVG Export Plug-In . SVG Version: 6.00 Build 0)  -->
<!DOCTYPE svg PUBLIC "-//W3C//DTD SVG 1.1//EN" "http://www.w3.org/Graphics/SVG/1.1/DTD/svg11.dtd">
<svg version="1.1" id="Layer_1" xmlns="http://www.w3.org/2000/svg" xmlns:xlink="http://www.w3.org/1999/xlink" x="0px" y="0px"
	 viewBox="0 0 35 35" enable-background="new 0 0 35 35" xml:space="preserve">
<g id="Thinking_Man">
	<g id="Your_Icon">
		<path fill="#010101" d="M19.7,23.8c-0.6-0.1-1.2-0.1-1.8-0.1c-1,0-1.9,0.1-2.8,0.2c-1-5.9,0-9.7,1.5-12.1c0.3,0.4,0.7,0.7,1.3,0.7
			c0.7,0,1.3-0.5,1.5-1.2c0.1,0,0.3,0.1,0.5,0.1c0.8,0,1.5-0.7,1.5-1.5c0,0,0,0,0-0.1c0.3,0.2,0.6,0.4,0.9,0.6c1.2,1,2.3,2.3,2.3,4
			c0,0.4-0.1,0.8-0.2,1.3c0,0.1,0,0.2,0.1,0.2c0,0,0,0,0.1,0c0.1,0,0.1,0,0.2-0.1c0,0,0.6-1.5,0.6-3.3c0-1.2-0.3-2.6-1.4-3.7
			c-0.3-0.3-0.6-0.5-1-0.8c0,0,0.1,0,0.1,0c1.2,0,2.5,0.2,3.6,0.7c1.1,0.5,2,1.4,2.5,2.9c0,0.1,0.1,0.1,0.2,0.1c0,0,0,0,0,0
			c0.1,0,0.2-0.1,0.1-0.2c0,0-0.3-1.5-1.3-3.1c-0.9-1.5-2.5-3.1-5.1-3.1c-1.1,0-2.4,0.3-3.8,1c-2.4-2.9-4.7-3.9-6.7-3.9
			c-4.2,0-7,4.5-7.1,4.8v0c0,0,0,0,0,0c-0.1,0.1,0,0.2,0.1,0.3c0.1,0.1,0.2,0,0.3,0c1.3-1.8,3-2.3,4.7-2.3c1.6,0,3.3,0.5,4.6,1.1
			c-0.3,0-0.5,0-0.8,0c-2.6,0-4,1.6-4.7,3.2c-0.7,1.6-0.8,3.1-0.8,3.1c0,0.1,0.1,0.2,0.2,0.2c0,0,0,0,0,0c0.1,0,0.2-0.1,0.2-0.2
			c0.3-1.8,1.4-2.8,2.7-3.4c1.3-0.6,2.9-0.7,4-0.7c0.1,0,0.2,0,0.4,0C11,12.8,11.7,23,11.8,24.6C7.4,26,3.6,29,1.1,32.8
			c0.5-0.2,1.1-0.2,1.7-0.2c0.9,0,1.8,0.2,2.6,0.6c0.8,0.4,1.6,0.6,2.5,0.6c0.9,0,1.8-0.2,2.5-0.6c0.8-0.4,1.7-0.6,2.6-0.6
			c0.9,0,1.8,0.2,2.6,0.6c0.8,0.4,1.6,0.6,2.5,0.6c0.9,0,1.8-0.2,2.5-0.6c0.8-0.4,1.7-0.6,2.6-0.6c0.9,0,1.8,0.2,2.6,0.6
			c0.8,0.4,1.6,0.6,2.5,0.6c0.9,0,1.7-0.2,2.5-0.6c0.8-0.4,1.7-0.6,2.6-0.6c0.4,0,0.7,0,1,0.1c-2.8-4.1-7-7.2-12-8.4"/>
	</g>
</g>
</svg>
