<?xml version="1.0" encoding="utf-8"?>
<!-- Generator: Adobe Illustrator 18.0.0, SVG Export Plug-In . SVG Version: 6.00 Build 0)  -->
<!DOCTYPE svg PUBLIC "-//W3C//DTD SVG 1.1//EN" "http://www.w3.org/Graphics/SVG/1.1/DTD/svg11.dtd">
<svg version="1.1" id="Layer_1" xmlns="http://www.w3.org/2000/svg" xmlns:xlink="http://www.w3.org/1999/xlink" x="0px" y="0px"
	 viewBox="0 0 35 35" enable-background="new 0 0 35 35" xml:space="preserve">
<g id="Thinking_Man">
	<g>
		<path d="M9.4,10c0.1,0.1,0.3,0.2,0.4,0.1C9.9,10,9.9,9.9,9.8,9.7L5.9,2.3C5.8,2.2,5,2.5,4.9,2.6C4.8,2.7,4.7,2.8,4.8,3L9.4,10z"/>
		<path d="M15.8,7.8c0.2,0,0.3-0.1,0.3-0.3l0.2-6.3c0-0.2-0.7-0.2-0.9-0.1c-0.2,0-0.3,0.1-0.3,0.3l0.4,6.1
			C15.5,7.7,15.6,7.8,15.8,7.8z"/>
		<path d="M21.6,8.3L24.9,3c0.1-0.1-0.4-0.6-0.6-0.7c-0.1-0.1-0.3,0-0.4,0.1L21.1,8c-0.1,0.1,0,0.3,0.1,0.4
			C21.4,8.5,21.5,8.4,21.6,8.3z"/>
		<path d="M26.1,10.5l4.6-3.7c0.1-0.1-0.2-0.7-0.3-0.8c-0.1-0.1-0.3-0.1-0.4,0l-4.3,4.1c-0.1,0.1-0.1,0.3,0,0.4
			C25.8,10.6,26,10.6,26.1,10.5z"/>
		<path d="M6.7,14.3c0.1-0.1,0-0.3-0.1-0.4l-3.5-1.7c-0.1-0.1-0.3,0-0.4,0.1c-0.1,0.1-0.2,0.8,0,0.8l3.6,1.3
			C6.4,14.5,6.6,14.4,6.7,14.3z"/>
	</g>
	<path fill="#010101" d="M26.1,16.9"/>
	<path fill="#010101" d="M16.6,17.8"/>
	<path fill="#010101" d="M17.4,16.9"/>
	<g>
		<path fill="#010101" d="M28.9,23.1c0,0-1-3.4-1.8-6c-0.5-1.6-1.6-3.3-3.1-4.5c-1.2-1.1-3.4-2.3-6.3-2.3c-2.4,0-4.9,1-6.9,2.8
			c-1.9,1.8-3,4.2-3,6.5c0,2.2,0.7,4.3,2,6.3c0.7,1,1.4,1.7,1.7,2v6l10,0.1v-4.2l4.3-0.3c0.4,0,0.7-0.3,0.7-0.7l0-4.7h1.7
			c0.2,0,0.4-0.1,0.6-0.3C29,23.6,29,23.3,28.9,23.1z M18.6,17l-5.7,5.4l2.2-3.9l-2-0.2l2.4-4.8l3.5,0.3l-2.5,3L18.6,17z"/>
	</g>
</g>
</svg>
