<?xml version="1.0" encoding="utf-8"?>
<!-- Generator: Adobe Illustrator 19.1.0, SVG Export Plug-In . SVG Version: 6.00 Build 0)  -->
<!DOCTYPE svg PUBLIC "-//W3C//DTD SVG 1.1//EN" "http://www.w3.org/Graphics/SVG/1.1/DTD/svg11.dtd">
<svg version="1.1" id="knot" "rh__js--scroll-item" xmlns="http://www.w3.org/2000/svg" xmlns:xlink="http://www.w3.org/1999/xlink" x="0px" y="0px"
	 viewBox="0 0 565.3 563.7" enable-background="new 0 0 565.3 563.7" xml:space="preserve">
<g id="XMLID_380_">
	<path id="XMLID_5_" fill="none" stroke="#FF787A" stroke-miterlimit="10" d="M36.7,152.1c164.9,153.2,403.7,358.7,461,313
		c67.5-53.8-99.7-468.9-234-458c-133.8,10.9-241.6,444.9-151,503c96.1,61.6,465.8-268.3,424-350c-41-80.3-514.4,10.8-531,157
		c-14.2,125,306.1,286.4,354,237c58.8-60.6-289.7-443.5-237-495c26.7-26.1,149.6,39.7,436,267"/>
	<path fill="none" stroke="#F97C7D" stroke-miterlimit="10" d="M38.1,150.2c68.1,67.1,161.1,155.9,242.1,214.7
		c102,74.2,187.8,112.4,217.2,87.4C560,399.3,392.3,15.8,261.9,26.1C132.3,36.4,30.5,450.8,119.5,502.5
		c94.6,55,452.7-267.8,410.6-347.6C488.2,75.4,20.6,171.2,5.6,315.2C-6.8,439.4,319.8,590.1,366.8,544.4
		c21.9-21.3-29.6-82.1-82.8-164.8c-27.4-42.3-50.2-93.6-73.5-132.7c-38.9-65.4-76.9-107.8-82.9-143.4c-2.1-12.5-0.7-22.8,5.4-29.8
		c15.6-18,57.3-15.7,131.7,31.1c37.8,23.8,78.7,71.3,144.5,123.4c41.6,33,98.9,65.5,148.8,100.7c1-4.2-13.9-12.6-15.9-10.6"/>
	<path fill="none" stroke="#F48080" stroke-miterlimit="10" d="M39.5,148.4c63.7,66.8,162.7,166.7,245.3,222.7
		c103,69.8,185.7,93,212.4,68.7C554.7,387.3,386.5,35.5,260,45C134.7,54.8,38.9,449.5,126.4,494.9c93,48.3,439.7-267.3,397.3-345.2
		C480.8,70.9,18.3,171.4,5.5,313.3C-5.6,436.6,327.7,576.6,373.8,534.6c21.2-19.3-44.1-70.4-99.2-154.5c-29-44.3-45.5-104-65-141.3
		c-32.9-62.8-69.4-85-73.4-119.4c-1.4-12.1,0.5-23,6.9-31.3c16.9-22,58.5-29.8,127.1,14.4c32.9,21.1,60.9,79,126.4,133.8
		c42.4,35.4,111.4,65.2,160.4,95.3c2-8.5-27.8-25.3-31.7-21.2"/>
	<path fill="none" stroke="#EE8583" stroke-miterlimit="10" d="M40.8,146.5c59.2,66.6,164.3,177.6,248.5,230.6
		c103.9,65.5,183.5,73.7,207.6,49.9c52.4-51.8-116.1-372.1-238.7-363c-121.1,9-210.9,384.2-125,423.3
		c91.3,41.6,426.6-266.7,383.9-342.9C473.4,66.4,16.3,171.7,5.4,311.4c-9.6,122.5,330.3,251.7,375.5,213.4
		c20.5-17.4-58.8-58.6-115.6-144.1c-30.7-46.3-40.8-114.4-56.6-149.9c-26.8-60.3-62-62.2-63.8-95.3c-0.6-11.6,1.7-23.2,8.5-32.9
		c18.1-26,59.6-43.9,122.6-2.4c27.9,18.4,43.2,86.8,108.4,144.2c43.1,37.9,123.8,64.9,172,89.9c3-12.7-41.7-37.9-47.6-31.8"/>
	<path fill="none" stroke="#E88986" stroke-miterlimit="10" d="M42.2,144.7C97,210.9,208,333.1,293.8,383.2
		c104.8,61.1,181.3,54.4,202.7,31.1C543.9,363.2,375,74.5,256.4,83C139.6,91.4,55.6,446.9,140,479.8
		c89.6,34.9,413.5-266.2,370.6-340.5C465.9,61.9,14.3,171.9,5.3,309.5c-8,121.7,338.3,240,382.7,205.6
		c19.9-15.5-73.6-46.8-131.9-133.8c-32.4-48.3-36.1-124.8-48.1-158.4c-20.6-57.6-54.6-39.3-54.2-71.3c0.1-11.2,2.9-23.4,10-34.4
		c19.4-30,60.9-58.2,118.1-19.2c23,15.7,25.4,94.6,90.3,154.5c43.9,40.5,136.2,64.6,183.6,84.5c4.1-16.9-55.6-50.6-63.4-42.3"/>
	<path fill="none" stroke="#E38D89" stroke-miterlimit="10" d="M43.6,142.8c50.3,66,167.3,199.4,254.8,246.5
		c105.6,56.8,179,35.1,197.9,12.4c42-50.5-127.1-307.6-241.8-299.7C142,109.7,63.9,445.5,146.9,472.2
		c87.9,28.2,400.4-265.6,357.2-338.1C458.5,57.4,12.4,172.2,5.2,307.6C-1.2,428.5,351.6,535.9,395,505.3
		c19.3-13.6-88.3-35-148.3-123.5c-34.1-50.3-31.3-135-39.7-167c-14.3-54.9-47.2-16.3-44.7-47.2c0.9-10.7,4.1-23.6,11.5-35.9
		c20.6-34.1,62.3-72.7,113.5-36c18.1,13,7.5,102.5,72.3,164.9c44.6,43,148.7,64.3,195.1,79.1c5.1-21.1-69.5-63.2-79.3-52.9"/>
	<path fill="none" stroke="#DD918C" stroke-miterlimit="10" d="M45,140.9c45.9,65.7,168.7,210.3,258,254.4
		c106.3,52.6,176.7,15.9,193.1-6.4c36.6-49.7-132.6-275.4-243.3-268.1c-108.3,7.2-180.6,323.3-99,343.7
		c86.2,21.5,387.3-265.1,343.9-335.7C451,53,10.4,172.5,5.1,305.7c-4.8,120.1,354.6,216.5,397,189.8c18.8-11.8-103-23.1-164.6-113.2
		c-35.8-52.3-26.5-145.2-31.2-175.6c-8-52-39.8,6.7-35.1-23.2c1.6-10.2,5.3-23.8,13.1-37.4c21.8-38.2,64-87.5,109-52.8
		c13.3,10.2-10.3,110.4,54.2,175.3c45.3,45.6,161.1,64,206.7,73.8c6.1-25.4-83.4-75.9-95.2-63.5"/>
	<path fill="none" stroke="#D7958F" stroke-miterlimit="10" d="M46.4,139.1c41.4,65.4,170.1,221.2,261.2,262.4
		c107,48.3,174.3-3.3,188.3-25.2c31.2-48.9-138.1-243.1-244.9-236.4c-104.1,6.5-170.6,303-90.4,317.1
		c84.3,14.8,374.1-264.5,330.5-333.3C443.5,48.5,8.5,172.7,5,303.8c-3.2,119.3,362.8,204.6,404.2,182c18.3-10-117.8-11.3-181-102.9
		c-37.5-54.3-21.7-155.3-22.8-184.2c-1.8-48.9-32.5,29.9-25.5,0.9c2.3-9.7,6.5-24,14.6-38.9c23-42.2,66.6-103.1,104.5-69.6
		c8.5,7.5-28.2,118.3,36.2,185.7c46,48.2,173.6,63.7,218.3,68.4c7.1-29.6-97.3-88.5-111-74.1"/>
	<path fill="none" stroke="#D19991" stroke-miterlimit="10" d="M47.7,137.2c37,65.1,171.4,232.2,264.3,270.3
		c107.6,44.2,171.9-22.4,183.4-43.9c25.6-47.9-143.6-210.9-246.4-204.8c-99.8,5.9-160.6,282.8-81.7,290.6
		c82.5,8.2,360.9-263.9,317.2-330.9C435.9,44,6.6,173,4.9,301.9C3.3,420.4,376,494.6,416.3,476c17.8-8.2-132.5,0.5-197.4-92.6
		c-39.2-56.3-17-165.3-14.3-192.8c4.4-45.7-25.2,53-15.9,24.9c3-9.2,7.7-24.2,16.1-40.4c24.1-46.3,63.7-112.1,99.9-86.4
		c2.5,5.9-46.1,126.2,18.1,196.1c46.7,50.8,186,63.4,229.9,63c8.1-33.8-111.1-101.2-126.9-84.7"/>
	<path fill="none" stroke="#CC9E94" stroke-miterlimit="10" d="M49.1,135.4c32.6,64.8,172.7,243.2,267.5,278.2
		c108.2,40,169.4-41.3,178.6-62.7c20.1-46.6-149.1-178.6-248-173.1c-95.6,5.3-150.5,257.2-73,264C254.4,448.9,522,178.5,478,113.2
		C428.4,39.5,4.7,173.3,4.8,300c0,117.7,379.6,180.7,418.6,166.2c17.5-6.5-147.3,12.3-213.7-82.3c-40.9-58.3-12.3-175.1-5.9-201.4
		c10.4-42.3-18,76.2-6.4,49c3.7-8.6,8.9-24.4,17.7-41.9c25.3-50.4,64.7-125.9,95.4-103.1c-2.6,3.4-64,134.2,0.1,206.4
		c47.4,53.4,198.4,63.2,241.4,57.6c9.1-38-125-113.8-142.8-95.3"/>
	<path fill="none" stroke="#C6A297" stroke-miterlimit="10" d="M50.5,133.5c28.1,64.5,174,254.2,270.7,286.2
		c108.7,35.9,171-59.2,173.8-81.5c22.7-41.7-154.6-146.3-249.5-141.4c-91.4,4.7-140.9,242.3-64.4,237.5
		c78.5-5,334.5-262.8,290.5-326.2C420.8,35.1,2.9,173.6,4.7,298.1C6.3,415,395.8,474.2,430.4,456.5c17.9-1.3-162,24.2-230.1-72
		c-42.7-60.2-7.8-184.8,2.6-209.9c16.1-38.8-10.8,99.4,3.2,73c4.3-8.1,10.1-24.7,19.2-43.4c26.5-54.5,65.6-139.7,90.9-119.9
		c-7.6,0.8-82,142.2-18,216.8c48,56,210.9,62.9,253,52.2c10.1-42.3-138.9-126.5-158.6-105.9"/>
	<path fill="none" stroke="#C0A69A" stroke-miterlimit="10" d="M51.9,131.6c23.7,64.2,175.2,265.3,273.9,294.1
		c109.2,31.9,169.1-78.3,168.9-100.2c18.3-40.5-160-114.1-251.1-109.8c-87.1,4.1-131.1,222.2-55.7,210.9
		c76.5-11.5,321.3-262.2,277.1-323.8c-51.8-72.2-464,71-460.4,193.4c3.3,116.1,399.6,165.1,432.9,150.5c17.4,1-176.8,36-246.5-61.6
		c-44.4-62.2-3.5-194.6,11-218.5c21.4-35.3-3.8,122.6,12.8,97.1c4.9-7.6,11.2-24.9,20.7-45C263.1,160.2,302,65.2,321.8,82
		c-12.6-1.8-99.9,150.2-36,227.2c48.7,58.6,223.3,62.6,264.6,46.9c11.2-46.5-152.8-139.1-174.5-116.4"/>
	<path fill="none" stroke="#BBAA9D" stroke-miterlimit="10" d="M53.3,129.8c19.2,64,176.4,276.4,277,302.1
		c109.7,28,167.2-97.4,164.1-119c13.8-39.3-165.5-81.8-252.6-78.1c-82.9,3.5-121.3,202.2-47,184.4c74.5-17.9,308-261.6,263.8-321.4
		C405.7,26.2-0.8,174.2,4.5,294.4c5,115.3,408.1,154,440.1,142.7c16.9,3.2-191.6,47.9-262.8-51.3c-46.1-64.2,0.6-204.5,19.4-227.1
		c26.6-32,3.2,145.8,22.3,121.1c5.5-7.1,12.4-25.1,22.3-46.5c28.8-62.6,67.5-167.4,81.8-153.5c-17.7-4.4-117.9,158.2-54.1,237.6
		c49.3,61.3,235.8,62.3,276.2,41.5c12.2-50.7-166.7-151.7-190.3-127"/>
	<path fill="none" stroke="#B5AEA0" stroke-miterlimit="10" d="M54.6,127.9c14.8,63.7,177.6,287.6,280.2,310
		C445,462,500.1,321.4,494.1,300.1c9.3-38-171-49.5-254.2-46.5c-78.6,2.9-111.5,182.2-38.4,157.8C274,387.2,496.3,150.5,452,92.4
		C398,21.7-2.6,174.5,4.4,292.5C11.1,407,421,435.5,451.6,427.2c16.5,5.4-206.4,59.7-279.2-41c-47.8-66.2,4.7-214.5,27.9-235.7
		c31.6-28.8,10,168.9,31.9,145.2c6-6.6,13.6-25.3,23.8-48c30-66.7,68.4-181.2,77.2-170.3c-22.7-6.9-135.9,166.3-72.1,248
		c49.9,64,248.2,62,287.8,36.1c13.2-54.9-180.6-164.4-206.2-137.6"/>
	<path fill="none" stroke="#AFB2A3" stroke-miterlimit="10" d="M56,126C66.3,189.4,234.8,424.9,339.4,444
		C450,464.2,502.8,308.4,493.8,287.5c4.8-36.8-176.5-17.3-255.7-14.8c-74.4,2.3-101.7,162.4-29.7,131.2
		c70.5-30.5,281.5-260.3,237.1-316.7C390.4,17.3-4.3,174.8,4.3,290.6c8.4,113.8,425.1,132,454.4,126.9c16,7.6-221.1,71.6-295.6-30.7
		c-49.6-68.1,8.7-224.7,36.3-244.3c36.6-25.9,16.9,192,41.5,169.2c6.6-6.1,14.8-25.5,25.3-49.5c31.1-70.8,69.4-195,72.7-187.1
		c-27.7-9.5-153.9,174.3-90.2,258.3c50.5,66.6,260.6,61.7,299.3,30.7c14.2-59.2-194.5-177-222.1-148.2"/>
	<path fill="none" stroke="#AAB7A6" stroke-miterlimit="10" d="M57.4,124.2c5.9,63.1,179.9,310.1,286.6,325.9
		C455,466.5,505.5,295.3,493.6,274.8c0.4-35.6-182,15-257.3,16.8c-70.1,1.7-91.8,142.5-21.1,104.7C283.7,359.6,483.4,136.6,438.9,82
		C382.7,12.9-6.1,175.1,4.1,288.7c10.2,113,433.6,121,461.6,119.1c15.5,9.8-235.9,83.4-311.9-20.4c-51.3-70.1,12.7-235,44.8-252.9
		c41.7-23.2,23.6,214.9,51,193.3c7.1-5.6,16-25.7,26.9-51c32.3-74.9,70.3-208.8,68.2-203.8c-32.8-12.1-171.9,182.4-108.2,268.7
		c51.1,69.3,273.1,61.4,310.9,25.3c15.2-63.4-208.4-189.7-237.9-158.8"/>
	<path fill="none" stroke="#A4BBA9" stroke-miterlimit="10" d="M58.8,122.3c1.4,62.8,181.1,321.5,289.7,333.8
		C460,468.8,508.1,282.3,493.3,262.1c-4.1-34.4-187.4,47.3-258.8,48.5c-65.8,1.1-81.9,122.8-12.4,78.1
		c66.6-42.8,254.8-259,210.4-311.9C375,8.5-7.8,175.4,4,286.8C16,399,446.2,396.7,472.8,398c15,12-250.7,95.3-328.3-10.1
		c-53.1-72.1,16.8-245.4,53.2-261.4c46.8-20.5,30.4,237.8,60.6,217.3c7.6-5.2,17.1-26,28.4-52.5c33.4-78.9,71.2-222.6,63.6-220.6
		c-37.8-14.6-190,190.4-126.3,279.1c51.7,72,285.5,61.1,322.5,20c16.2-67.6-222.3-202.3-253.8-169.4"/>
	<path fill="none" stroke="#9EBFAC" stroke-miterlimit="10" d="M60.1,120.5c-3,62.5,182.3,332.9,292.9,341.7
		c111.9,9,157.7-192.9,140-212.8c-8.6-33.2-192.9,79.6-260.4,80.1c-61.6,0.5-71.9,103.1-3.7,51.6c64.8-48.9,241.4-258.3,197-309.5
		C367.3,4.1-9.5,175.7,3.9,284.9c13.7,111.4,450.6,98.9,475.9,103.3c14.6,14.2-265.5,107.1-344.6,0.2c-54.8-74,20.9-255.9,61.7-270
		c52-18,37.2,260.6,70.2,241.4c8.2-4.7,18.3-26.2,29.9-54c34.6-83,71.9-234.4,59.1-237.4c-45-10.5-208,198.5-144.4,289.5
		c52.2,74.7,298,60.8,334.1,14.6c17.2-71.8-236.2-215-269.7-180"/>
	<path fill="none" stroke="#99C3AF" stroke-miterlimit="10" d="M61.5,118.6C54,180.8,245,462.9,357.6,468.3
		c112.4,5.4,155.8-212,135.1-231.6c-13.1-32-198.4,111.8-261.9,111.8c-57.3,0-61.8,83.3,4.9,25c63-55,228.1-257.6,183.7-307.1
		C359.6-0.2-11.2,176,3.8,283c15.5,110.7,459.1,87.9,483.1,95.5c14.1,16.4-280.3,119-361,10.6C69.4,313,151,122.6,196,110.4
		c57.3-15.5,43.9,283.3,79.7,265.4c8.7-4.3,19.5-26.4,31.5-55.5c35.7-87.1,72.7-248.6,54.6-254.2C312.3,50.7,135.7,272.7,199.4,366
		c52.8,77.4,310.4,60.6,345.6,9.2c18.2-76.1-250.1-227.6-285.5-190.6"/>
	<path fill="none" stroke="#93C7B2" stroke-miterlimit="10" d="M62.9,116.7C51,178.7,248,464.1,362.2,474.4
		C474.6,484.4,516.1,243.2,492.5,224C474.9,193.2,288.6,368.1,229,367.5c-53.1-0.6-51.7,63.6,13.6-1.5
		C303.8,304.8,457.3,109,412.9,61.2C351.9-4.6-12.8,176.3,3.7,281.1c17.4,109.9,467.6,76.8,490.3,87.6
		c13.6,18.6-295.1,130.8-377.4,20.9c-58.3-78,29.3-277,78.6-287.2c62.7-13,50.7,306,89.3,289.5c9.2-3.9,20.7-26.6,33-57.1
		c36.9-91.2,73.6-262.6,50-271c-54.2-19.2-244.1,214.6-180.5,310.2c53.3,80.1,332,64.9,357.2,3.8c31.5-76.3-264-240.3-301.4-201.1"
		/>
	<path fill="none" stroke="#8DCBB5" stroke-miterlimit="10" d="M64.3,114.9c-16.4,61.6,186,359.4,302.4,365.6
		c113.2,6,148.8-246.3,125.5-269.1c-26.4-25.8-209.3,176.4-265,175.1c-48.8-1.2-41.5,43.9,22.3-28.1C309,291.1,450.7,102.1,406.4,56
		C344.1-8.9-14.5,176.5,3.6,279.2c19.2,109.1,476.1,65.8,497.4,79.8c13.2,20.8-309.9,142.7-393.7,31.2
		c-60.1-79.9,33.6-287.5,87-295.8c68.1-10.5,57.5,328.6,98.9,313.5c9.8-3.6,21.9-26.8,34.5-58.6c38-95.3,74.5-276.7,45.5-287.8
		C314.3,39,111,284.3,174.7,382.2c53.9,82.8,343.6,63.8,368.8-1.6c31.2-81.1-277.9-252.9-317.2-211.7"/>
	<path fill="none" stroke="#88D0B8" stroke-miterlimit="10" d="M65.7,113c-20.8,61.3,187.1,379,305.6,373.5
		c113.8-5.3,147.5-265.7,120.6-287.9C462,173.9,277.1,407.4,225.3,405.4c-44.5-1.7-31.3,24.2,30.9-54.6
		c57.9-73.3,187.9-255.5,143.6-300C336.3-13.2-16.1,176.8,3.5,277.3c21.1,108.3,484.6,54.8,504.6,71.9
		c12.7,23-324.7,154.6-410.1,41.5c-61.8-81.9,37.9-298,95.4-304.3c73.6-8.1,64.3,351.1,108.4,337.6c10.4-3.2,23-27,36-60.1
		c39.1-99.4,75.5-290.7,41-304.5c-63.8-25.6-280.3,230.8-216.6,331c54.4,85.5,355.2,62.9,380.4-7C573.7,297.5,251,117.8,209.7,161"
		/>
	<path fill="none" stroke="#82D4BA" stroke-miterlimit="10" d="M67,111.1c-25.3,61.1,188.3,390.7,308.8,381.4
		c114.3-8.7,146.2-285.1,115.8-306.6C458,162.1,271.4,427,223.5,424.4c-40.3-2.2-21.1,4.5,39.6-81.2
		c56.3-79.5,174.4-254.7,130.2-297.6c-64.9-63-411,131.5-389.9,229.8c23,107.5,496.3,41.3,511.8,64
		c15.8,23.1-339.5,166.4-426.5,51.8C25.2,307.4,131,82.6,192.6,78.3c79.1-5.6,71.2,373.7,118,361.6c10.9-2.8,24.2-27.2,37.6-61.6
		C388.5,274.9,424.7,73.7,384.7,57C316,28.4,86.3,295.9,150.1,398.4c54.9,88.2,366.8,62,392-12.3c30.6-90.5-305.7-278.2-349-232.9"
		/>
	<path fill="none" stroke="#7CD8BD" stroke-miterlimit="10" d="M68.4,109.3c-29.7,60.8,189.6,402.3,312,389.4
		c114.9-12.2,144.8-304.7,111-325.4c-37.5-23-225.7,273.4-269.7,270.1c-36-2.7-10.8-15.3,48.2-107.7
		c54.7-85.6,161-253.9,116.9-295.2c-66.2-62-406,137-383.5,233.1c25,106.6,504.4,30.9,519,56.2C537.1,355.5,168,508,79.5,391.8
		C14.1,306,126.1,72.7,191.8,70.3c84.7-3.1,78.1,396.2,127.6,385.7c11.5-2.4,25.3-27.5,39.1-63.1C399.7,285.3,436,74.3,390.4,54.8
		C316.8,23.2,73.9,301.7,137.7,406.5c55.4,90.9,378.3,61.2,403.5-17.7c30.4-95.2-319.6-290.9-364.8-243.5"/>
	<path fill="none" stroke="#76DCC0" stroke-miterlimit="10" d="M69.8,107.4c-34.2,60.5,190.9,414.1,315.1,397.3
		c115.5-15.6,143.3-324.3,106.1-344.2c-41.4-22.2-231.1,305.8-271.2,301.7c-31.7-3.2-0.5-35,56.9-134.3
		c53.1-91.8,147.6-253.1,103.5-292.8C312.7-25.8-20.7,177.6,3.2,271.6c27,105.8,512.5,20.4,526.1,48.3
		c13.9,28.4-369.3,190.3-459.2,72.4c-67.2-87.6,51-327.8,120.8-330.1c90.2-3,85,418.7,137.2,409.7c12.1-2.1,26.5-27.7,40.6-64.6
		c42.4-111.7,78.5-332.5,27.4-354.9c-78.5-34.3-334.7,255-270.7,362.1c55.9,93.6,389.9,60.4,415.1-23.1
		C570.7,291.7,207,88,159.8,137.4"/>
	<path fill="none" stroke="#71E0C3" stroke-miterlimit="10" d="M71.2,105.6c-38.6,60.2,192.2,425.9,318.3,405.2
		c116.1-19,141.7-343.8,101.3-362.9C445.4,126.4,254.2,486.1,218,481.2c-27.5-3.6,9.8-54.8,65.6-160.8
		c51.6-98,134.1-252.3,90.2-290.5C304.9-29.9-22.2,177.8,3.1,269.7c29,105,520.6,9.8,533.3,40.4c12.9,31-384.1,202.2-475.5,82.7
		c-69-89.6,55.4-340.1,129.2-338.7c95.9,1.9,92,441.2,146.7,433.8c12.7-1.7,27.7-27.9,42.2-66.1c43.6-115.7,79.5-346.5,22.8-371.7
		C318.4,13.1,49.1,313.3,113,422.7c56.4,96.4,401.3,59.7,426.7-28.5c30-104.4-347.3-316.1-396.6-264.7"/>
	<path fill="none" stroke="#6BE4C6" stroke-miterlimit="10" d="M72.6,103.7C29.5,163.6,266.2,541.4,394,516.9
		c116.7-22.3,140.1-363.4,96.5-381.7c-49.6-20.8-242,370.7-274.3,365c-23.2-4,20.1-74.7,74.2-187.4C340.5,208.6,411,61.3,367.3,24.7
		C296.9-34-23.7,178,3,267.8c31,104.1,528.6-0.9,540.5,32.6c11.9,33.5-398.9,214-491.9,93.1c-70.7-91.6,59.8-350.6,137.7-347.3
		c101.5,4.4,99,463.7,156.3,457.8c13.3-1.4,28.9-28.1,43.7-67.6C434,316.6,469.7,76,407.5,47.9C319.2,8,36.6,319.1,100.7,430.8
		c56.8,99.1,412.8,59.1,438.3-33.9c29.8-109-361.2-328.8-412.4-275.2"/>
	<path fill="none" stroke="#65E9C9" stroke-miterlimit="10" d="M73.9,101.8C26.4,161.4,269,551.3,398.6,523
		C516,497.3,537,140,490.3,122.5c-53.8-20.1-247.5,403.2-275.9,396.7c-18.9-4.4,30.4-94.5,82.9-214
		c48.5-110.5,107.2-250.6,63.5-285.7C289-38.1-25.2,178.2,2.9,265.9c33.1,103.2,536.6-11.7,547.7,24.7
		C561.4,326.5,136.9,516.5,42.3,394c-72.4-93.5,64.2-361.1,146.1-355.8c107.1,6.9,106,486.2,165.9,481.9c13.9-1,30.1-28.3,45.2-69.2
		c45.9-123.9,81.4-374.3,13.8-405.3C319.9,3,24.2,324.9,88.4,438.9c57.3,101.8,424.3,58.5,449.8-39.2
		c29.7-113.5-375.1-341.4-428.3-285.8"/>
	<path fill="none" stroke="#60EDCC" stroke-miterlimit="10" d="M75.3,100c-52,59.3,196.4,461.3,327.8,429.1
		c118.1-29,136.7-402.6,86.8-419.2c-58-19.4-253,436-277.4,428.3c-14.7-4.6,41-114.3,91.6-240.5C351.3,181,397.8,47.9,354.2,14.3
		C281.1-42.1-26.7,178.4,2.8,264c35.2,102.3,544.6-22.5,554.8,16.9c9.9,38.2-428.4,237.7-524.6,113.7
		c-74.2-95.5,68.6-371.6,154.6-364.4c112.8,9.4,113,508.7,175.4,505.9c14.5-0.6,31.2-28.5,46.8-70.7c47.1-127.9,82.5-388.4,9.2-422
		C320.7-2.1,11.6,330.8,76,447c57.6,104.6,435.8,57.9,461.4-44.6C567,284.4,148.4,48.3,93.3,106"/>
	<path id="XMLID_4_" fill="none" stroke="#5AF1CF" stroke-miterlimit="10" d="M424.7,41.1C321.4-7-0.7,336.5,63.7,455.1
		c58.2,107.3,447.2,57.4,473-50c29.4-122.5-402.9-366.7-460-307c-56.4,59,197.9,473.2,331,437c118.8-32.3,134.9-422.1,82-438
		c-62.3-18.7-258.7,469-279,460c-20.4-9.1,227.3-481.2,137-548C273.1-46-28.1,178.6,2.7,262.1c37.3,101.3,552.6-33.4,562,9
		c9,40.6-443.2,249.6-541,124c-75.9-97.5,73-382.1,163-373c118.4,12,120,531.2,185,530C432.8,551,529.3,89.8,424.7,41.1z"/>
</g>
</svg>
