<?xml version="1.0" encoding="utf-8"?>
<!-- Generator: Adobe Illustrator 19.1.0, SVG Export Plug-In . SVG Version: 6.00 Build 0)  -->
<!DOCTYPE svg PUBLIC "-//W3C//DTD SVG 1.1//EN" "http://www.w3.org/Graphics/SVG/1.1/DTD/svg11.dtd">
<svg version="1.1" id="downward-lines" xmlns="http://www.w3.org/2000/svg" xmlns:xlink="http://www.w3.org/1999/xlink" x="0px" y="0px"
	 viewBox="0 0 866 813.5" enable-background="new 0 0 866 813.5" xml:space="preserve">
<g>
	<path class="downward-line" fill="none" stroke="#FF787A" stroke-width="2" stroke-miterlimit="10" d="M140.5,0.7c-97.2,106.5-162.2,216-132,304
		c80.3,233.6,778.6,159.3,800,308c4.2,29.3-17.1,72.7-124,136"/>
	<path class="downward-line" fill="none" stroke="#E77F7E" stroke-width="2" stroke-miterlimit="10" d="M206.3,2C66.7,115.6-1.6,223.8,26.3,308.5
		c73.7,223.6,767,155.4,788.4,306c4.8,33.8-25.9,80.2-129.6,141.3"/>
	<path class="downward-line" fill="none" stroke="#CF8682" stroke-width="2" stroke-miterlimit="10" d="M272,3.3C90,124.1,18.6,230.9,44,312.2
		c67,213.5,755.3,151.6,776.9,304c5.3,38.2-34.8,87.7-135.1,146.7"/>
	<path class="downward-line" fill="none" stroke="#B78E86" stroke-width="2" stroke-miterlimit="10" d="M337.8,4.7C113.4,132.5,38.9,238,61.8,316
		c60.4,203.5,743.7,147.8,765.3,302c5.9,42.6-43.6,95.2-140.7,152"/>
	<path class="downward-line" fill="none" stroke="#9F958A" stroke-width="2" stroke-miterlimit="10" d="M403.6,6C136.8,141,59.1,245.1,79.6,319.8
		c53.8,193.4,732,144,753.8,300c6.5,47.1-52.4,102.7-146.2,157.3"/>
	<path class="downward-line" fill="none" stroke="#879C8E" stroke-width="2" stroke-miterlimit="10" d="M469.4,7.3C160.1,149.5,79.3,252.2,97.4,323.6
		c47.2,183.4,720.4,140.2,742.2,298c7,51.5-61.2,110.2-151.8,162.7"/>
	<path class="downward-line" fill="none" stroke="#6FA392" stroke-width="2" stroke-miterlimit="10" d="M535.1,8.7c-351.7,149.3-435.7,250.7-420,318.7
		c40.5,173.3,708.7,136.3,730.7,296c7.6,56-70,117.7-157.3,168"/>
	<path class="downward-line" fill="none" stroke="#57AB96" stroke-width="2" stroke-miterlimit="10" d="M600.9,10c-394.1,156.4-481.2,256.5-468,321.1
		C166.8,494.4,830,463.6,852,625.1c8.2,60.4-78.9,125.2-162.9,173.3"/>
	<path class="downward-line" fill="none" stroke="#3FB29A" stroke-width="2" stroke-miterlimit="10" d="M666.7,11.3c-436.5,163.5-526.8,262.3-516,323.6
		c27.3,153.2,685.4,128.7,707.6,292c8.8,64.8-87.7,132.7-168.4,178.7"/>
	<path class="downward-line" fill="none" stroke="#27B99E" stroke-width="2" stroke-miterlimit="10" d="M732.5,12.7c-478.9,170.7-572.4,268-564,326
		c20.6,143.1,673.8,124.9,696,290c9.3,69.3-96.5,140.2-174,184"/>
</g>
</svg>
