<?xml version="1.0" encoding="utf-8"?>
<!-- Generator: Adobe Illustrator 19.1.0, SVG Export Plug-In . SVG Version: 6.00 Build 0)  -->
<!DOCTYPE svg PUBLIC "-//W3C//DTD SVG 1.1//EN" "http://www.w3.org/Graphics/SVG/1.1/DTD/svg11.dtd">
<svg version="1.1" id="book-lines" xmlns="http://www.w3.org/2000/svg" xmlns:xlink="http://www.w3.org/1999/xlink" x="0px" y="0px"
	 viewBox="0 0 853 925.7" enable-background="new 0 0 853 925.7" xml:space="preserve">
<g id="XMLID_263_" opacity="0.5">
	<path class="book-line" fill="none" stroke="#27B99E" stroke-width="2" stroke-miterlimit="10" d="M160.6,14.4C94.5,58.9,24,118.7,34.6,171.9
		c30.3,152.6,673.6,58.4,795,304.5c40,81.1,42,225-125.4,448.5"/>
	<path class="book-line" fill="none" stroke="#27B99E" stroke-width="2" stroke-miterlimit="10" d="M159.6,12.9C93.7,56.5,20.5,116.4,30.9,170
		c29.3,150.9,671.4,66.7,785.7,304.8c38.3,80.3,28.8,217.5-172,450"/>
	<path class="book-line" fill="none" stroke="#27B99E" stroke-width="2" stroke-miterlimit="10" d="M158.6,11.4C93,54,17.1,114.2,27.3,168.2
		c28.4,149.2,669.8,74.7,776.4,305.2c36.8,79.5,15.6,210-218.7,451.5"/>
	<path class="book-line" fill="none" stroke="#27B99E" stroke-width="2" stroke-miterlimit="10" d="M157.6,9.9c-65.4,41.7-144,102-134,156.5
		C51,313.8,691.4,249.2,790.7,471.8c35.1,78.8,2.4,202.6-265.3,453"/>
	<path class="book-line" fill="none" stroke="#27B99E" stroke-width="2" stroke-miterlimit="10" d="M156.6,8.4C91.5,49.1,10.1,109.6,19.9,164.5
		c26.4,145.7,665.7,91.1,757.9,305.8c33.5,78-10.8,195.1-311.9,454.5"/>
	<path class="book-line" fill="none" stroke="#27B99E" stroke-width="2" stroke-miterlimit="10" d="M155.6,6.9C90.7,46.6,6.6,107.4,16.3,162.7
		c25.5,144,663.5,99.3,748.6,306.2c31.8,77.3-23.9,187.6-358.5,456"/>
	<path class="book-line" fill="none" stroke="#27B99E" stroke-width="2" stroke-miterlimit="10" d="M154.6,5.4C90,44.1,3.1,105.1,12.6,160.9
		c24.5,142.3,661.2,107.6,739.3,306.5c30.1,76.6-37.1,180.1-405.1,457.5"/>
	<path class="book-line" fill="none" stroke="#27B99E" stroke-width="2" stroke-miterlimit="10" d="M153.6,3.9C89.2,41.7-0.4,102.9,8.9,159
		c23.5,140.6,658.8,116,730,306.8c28.3,75.9-50.3,172.7-451.8,459"/>
	<path class="book-line" fill="none" stroke="#27B99E" stroke-width="2" stroke-miterlimit="10" d="M152.6,2.4C88.5,39.2-3.9,100.6,5.3,157.2
		C27.8,296,661.6,281.6,726,464.3c26.5,75.2-63.5,165.2-498.4,460.5"/>
	<path class="book-line" id="XMLID_170_" fill="none" stroke="#27B99E" stroke-width="2" stroke-miterlimit="10" d="M151.6,0.9
		C87.7,36.7-7.4,98.3,1.6,155.4c21.6,137.1,653.7,132.8,711.5,307.5c24.6,74.5-76.7,157.7-545,462"/>
</g>
</svg>
