<?xml version="1.0" encoding="utf-8"?>
<!-- Generator: Adobe Illustrator 19.1.0, SVG Export Plug-In . SVG Version: 6.00 Build 0)  -->
<!DOCTYPE svg PUBLIC "-//W3C//DTD SVG 1.1//EN" "http://www.w3.org/Graphics/SVG/1.1/DTD/svg11.dtd">
<svg version="1.1" id="page-lines" xmlns="http://www.w3.org/2000/svg" xmlns:xlink="http://www.w3.org/1999/xlink" x="0px" y="0px"
	 viewBox="0 0 860.9 803" enable-background="new 0 0 860.9 803" xml:space="preserve">
<g id="XMLID_324_">
	<path class="page-line" id="XMLID_169_" fill="none" stroke="#FF787A" stroke-width="2" stroke-miterlimit="10" d="M172.6,56.5
		C73.7,122,50.7,166.1,55.4,197C78,345.8,774,256.9,853.1,499.6c22.2,68-7.5,144.3-133.8,300.3"/>
	<path class="page-line" fill="none" stroke="#FF9191" stroke-width="2" stroke-miterlimit="10" d="M170.7,50.2C81.7,108.5,44,156.2,49.4,194.7
		C71.2,347,763,265.6,830.5,495.1c19.1,65.3-14,148.1-169.2,305.6"/>
	<path class="page-line" fill="none" stroke="#FFABA8" stroke-width="2" stroke-miterlimit="10" d="M169.3,44.1C90,95,37.3,146.4,43.4,192.5
		C64.4,348.2,752,274.3,808,490.5c16.1,62.6-20.4,152-204.6,310.9"/>
	<path class="page-line" id="XMLID_167_" fill="none" stroke="#FFC4BF" stroke-width="2" stroke-miterlimit="10" d="M168.1,37.6
		c-69.4,43.6-137.5,99-130.7,152.6c20.2,159.2,703.6,92.9,748,295.8c13.1,59.9-26.9,155.9-240,316.2"/>
	<path class="page-line" fill="none" stroke="#C8D3C4" stroke-width="2" stroke-miterlimit="10" d="M167.2,31.6C96.5,75.4,23.7,132.8,30.7,188.7
		c20,159.9,697.8,99.8,737.3,292.7c12.1,59.7-35.1,156.2-282,320"/>
	<path class="page-line" fill="none" stroke="#91E2CA" stroke-width="2" stroke-miterlimit="10" d="M166.6,25.4C94.6,69.5,16.9,129.1,24,187.1
		c19.8,160.7,692.1,106.7,726.7,289.7c11.1,59.4-43.4,156.6-324,323.8"/>
	<path class="page-line" id="XMLID_166_" fill="none" stroke="#5AF1CF" stroke-width="2" stroke-miterlimit="10" d="M166.2,19.2
		C92.8,63.5,10.1,125.4,17.4,185.6C37,347,703.6,299.3,733.4,472.3c10.2,59.1-51.7,157-366,327.6"/>
	<path class="page-line" fill="none" stroke="#49DEBF" stroke-width="2" stroke-miterlimit="10" d="M166.1,13.2C91.3,57.7,4.8,121,12,183.4
		c19,163.2,682,123.9,708,289.7c9.2,59.2-61.9,157.1-414,326.9"/>
	<path class="page-line" fill="none" stroke="#38CCAE" stroke-width="2" stroke-miterlimit="10" d="M166.1,7.1C90,51.7-0.5,116.6,6.7,181.1
		c18.4,165.1,677.7,134.2,700,292.7c8.2,59.3-72.1,157.1-462,326.1"/>
	<path class="page-line" id="XMLID_165_" fill="none" stroke="#27B99E" stroke-width="2" stroke-miterlimit="10" d="M166.3,0.9
		C88.9,45.6-5.7,112.2,1.4,178.8c17.7,166.9,673.5,144.4,692,295.8c7.3,59.4-82.3,157.2-510,325.3"/>
</g>
</svg>
